<?xml version="1.0" standalone="no"?>
<!DOCTYPE svg PUBLIC "-//W3C//DTD SVG 20010904//EN"
 "http://www.w3.org/TR/2001/REC-SVG-20010904/DTD/svg10.dtd">
<svg version="1.0" xmlns="http://www.w3.org/2000/svg"
 width="700.000000pt" height="700.000000pt" viewBox="0 0 700.000000 700.000000"
 preserveAspectRatio="xMidYMid meet">
<metadata>
Created by potrace 1.11, written by Peter Selinger 2001-2013
</metadata>
<g transform="translate(0.000000,700.000000) scale(0.100000,-0.100000)"
fill="#000000" stroke="none">
<path d="M3417 6994 c-1 -1 -58 -4 -127 -8 -69 -3 -136 -8 -150 -10 -14 -3
-52 -7 -85 -11 -90 -10 -320 -53 -405 -77 -424 -117 -714 -246 -1045 -463
-236 -155 -348 -247 -556 -455 -480 -479 -796 -1061 -944 -1739 -14 -63 -28
-135 -31 -160 -2 -25 -7 -53 -9 -61 -7 -22 -18 -133 -30 -290 -5 -62 -10
-3447 -6 -3680 l1 -35 1817 1 c1000 0 1859 4 1908 8 119 10 162 14 210 21 22
4 51 8 65 10 35 6 180 32 210 39 93 20 138 32 240 62 108 32 261 83 305 104
11 5 54 23 95 41 103 43 280 133 358 180 35 21 66 39 69 39 3 0 48 29 100 65
52 36 99 65 103 65 5 0 10 4 12 8 2 4 41 37 87 72 157 119 367 313 501 465
299 337 554 783 692 1210 77 236 122 429 143 605 3 25 8 54 10 65 19 98 28
606 13 760 -18 176 -55 389 -94 537 -14 54 -27 103 -28 110 -2 7 -5 20 -9 28
-3 8 -17 53 -32 100 -54 169 -155 402 -259 595 -90 167 -280 440 -416 596 -58
68 -245 257 -320 325 -213 192 -489 379 -757 512 -103 51 -150 72 -308 137
-128 53 -465 150 -592 169 -21 4 -45 8 -53 11 -8 2 -37 6 -65 10 -27 3 -68 8
-90 11 -76 10 -100 13 -210 20 -96 6 -314 11 -318 8z"/>
</g>
</svg>
