<?xml version="1.0" encoding="UTF-8"?>
<svg width="108px" height="27px" viewBox="0 0 108 27" version="1.1" xmlns="http://www.w3.org/2000/svg" xmlns:xlink="http://www.w3.org/1999/xlink">
    <!-- Generator: Sketch 63.1 (92452) - https://sketch.com -->
    <title>logo</title>
    <desc>Created with Sketch.</desc>
    <defs>
        <polygon id="path-1" points="0.229968955 0.328872025 18.6732666 0.328872025 18.6732666 18.7725078 0.229968955 18.7725078"></polygon>
        <polygon id="path-3" points="0 0.0631666092 9.45654364 0.0631666092 9.45654364 13.5219041 0 13.5219041"></polygon>
    </defs>
    <g id="Page-1" stroke="none" stroke-width="1" fill="none" fill-rule="evenodd">
        <g id="PC_서비스소개" transform="translate(-480.000000, -22.000000)">
            <g id="header">
                <g id="logo" transform="translate(480.000000, 22.000000)">
                    <g id="Group-3" transform="translate(88.858227, 0.000000)">
                        <mask id="mask-2" fill="white">
                            <use xlink:href="#path-1"></use>
                        </mask>
                        <g id="Clip-2"></g>
                        <path d="M9.45239048,18.7725078 L0.229968955,18.7725078 L0.229968955,9.54960331 C0.229968955,4.45667472 4.35849603,0.328630562 9.4509417,0.328630562 L9.45239048,0.328630562 C14.5448362,0.328630562 18.6733632,4.45667472 18.6733632,9.54960331 L18.6733632,9.55105209 C18.6733632,14.6439807 14.5448362,18.7725078 9.45239048,18.7725078" id="Fill-1" fill="#F63D58" mask="url(#mask-2)"></path>
                    </g>
                    <g id="Group-6" transform="translate(0.000000, 13.521904)">
                        <mask id="mask-4" fill="white">
                            <use xlink:href="#path-3"></use>
                        </mask>
                        <g id="Clip-5"></g>
                        <path d="M3.00176613,4.33995171 L3.00176613,5.29179717 C3.13070714,6.90525009 4.03474301,7.16409796 4.48627803,7.16409796 C5.8742049,7.16409796 6.39045188,6.16299414 6.39045188,4.87213522 C6.39045188,3.50014488 5.80949293,2.67772335 4.53505347,2.67772335 C3.92173853,2.67772335 3.13070714,3.04860987 3.00176613,4.33995171 L3.00176613,4.33995171 Z M-9.65850293e-05,1.30573301 C-9.65850293e-05,0.466409107 0.790934805,0.0631666092 1.51725423,0.0631666092 C2.16244222,0.0631666092 2.85640566,0.402180062 2.96941014,1.08020697 C3.61508106,0.369824077 4.48627803,0.079103139 5.32560193,0.079103139 C7.71414971,0.079103139 9.45654364,1.54767851 9.45654364,4.88807175 C9.45654364,8.27724043 7.5200138,9.69704036 5.27682649,9.69704036 C4.4703415,9.69704036 3.58272508,9.39086582 3.00176613,8.64812694 L3.00176613,12.2628217 C3.00176613,13.118565 2.24357365,13.5222904 1.51725423,13.5222904 C0.790934805,13.5222904 -9.65850293e-05,13.118565 -9.65850293e-05,12.2628217 L-9.65850293e-05,1.30573301 Z" id="Fill-4" fill="#222222" mask="url(#mask-4)"></path>
                    </g>
                    <path d="M11.069079,10.7934253 C11.069079,9.95410141 11.8272715,9.55085892 12.5700103,9.55085892 C13.2958468,9.55085892 14.0704588,9.95410141 14.0704588,10.7934253 L14.0704588,22.0412349 C14.0704588,22.8964953 13.2958468,23.3161573 12.5700103,23.3161573 C11.8596275,23.3161573 11.069079,22.8964953 11.069079,22.0412349 L11.069079,10.7934253 Z" id="Fill-7" fill="#222222"></path>
                    <path d="M21.2350397,19.5884098 L21.2350397,19.2170404 C21.0737427,19.1687478 20.6864367,19.1199724 20.3474232,19.1199724 C19.4274508,19.1199724 18.7499069,19.3947568 18.7499069,20.0887202 C18.7499069,20.6532597 19.2337979,20.8304933 19.6211038,20.8304933 C20.5410762,20.8304933 21.2350397,20.2823732 21.2350397,19.5884098 M24.1398344,16.7478441 L24.1398344,21.9928941 C24.1398344,22.8964471 23.445871,23.3320455 22.703615,23.3320455 C21.8802277,23.3320455 21.2509762,22.8964471 21.2509762,22.1701276 C20.6217247,22.8800276 19.3950949,23.1707485 18.5721904,23.1707485 C17.039386,23.1707485 15.7804001,22.3319076 15.7804001,20.3630217 C15.7804001,17.9261814 17.9912315,17.1351501 19.9601173,17.1351501 C20.3957158,17.1351501 21.0249672,17.167506 21.2186202,17.199862 L21.2186202,17.070921 C21.2186202,16.3769576 20.7187927,16.0703001 19.6858158,16.0703001 C19.2661538,16.0703001 18.6692584,16.23208 18.2814695,16.4093136 C17.8946464,16.5865471 17.523277,16.6512591 17.3136875,16.6512591 C16.6033046,16.6512591 16.1517696,15.9737151 16.1517696,15.3604001 C16.1517696,14.8277337 16.3454226,14.4404277 16.813377,14.1979993 C17.6686375,13.7464643 18.7981994,13.5040359 20.2020628,13.5040359 C22.3646016,13.5040359 24.1398344,14.4723008 24.1398344,16.7478441" id="Fill-9" fill="#222222"></path>
                    <path d="M32.2234702,14.3596826 C32.8850776,12.6810348 35.7256433,13.7946602 34.9505485,15.5051811 L31.3841463,23.3319489 C30.1903553,25.9788617 28.8343015,26.7211176 27.3014971,26.7211176 C26.7847672,26.7211176 26.2202277,26.6723422 25.8169852,26.5434012 C24.4773508,26.1237392 24.9935978,23.6868989 26.5592411,24.0742049 C26.7364746,24.1229803 26.9141911,24.1389169 27.1402001,24.1389169 C27.6728665,24.1389169 28.2214695,23.8163229 28.657068,22.7350535 L28.7377165,22.5409176 L25.4620352,15.634605 C24.5420628,13.7140117 27.4468575,12.6327423 28.269762,14.5209796 L30.2710038,19.3946602 L32.2234702,14.3596826 Z" id="Fill-11" fill="#222222"></path>
                    <path d="M40.7425595,14.7954743 C41.081573,13.0690169 43.9380752,13.0844705 44.2930252,14.7954743 L45.3742946,19.797613 L46.4067885,14.5047534 C46.7298655,12.842525 49.6182408,13.3109624 49.1343498,15.2474922 L47.5204139,21.7022697 C46.9558744,23.977813 43.8897827,23.9131011 43.3894722,21.6216212 L42.4047879,17.1835392 L41.5012349,21.6863332 C41.049217,23.9290376 37.9667058,24.0096861 37.3862297,21.7500793 L35.7240014,15.3604967 C35.2077544,13.3756744 38.2738462,12.74594 38.6287961,14.5694653 L39.694129,19.9429734 L40.7425595,14.7954743 Z" id="Fill-13" fill="#222222"></path>
                    <path d="M50.5038772,14.8115074 C50.5038772,13.9726664 51.2949086,13.568941 52.021228,13.568941 C52.7470645,13.568941 53.5057399,13.9726664 53.5057399,14.8115074 L53.5057399,22.0413798 C53.5057399,22.8961573 52.731128,23.3158192 52.0048086,23.3158192 C51.2625526,23.3158192 50.5038772,22.8961573 50.5038772,22.0413798 L50.5038772,14.8115074 Z M51.988872,9.66352535 C52.924781,9.66352535 53.6511004,10.3739082 53.6511004,11.2774612 C53.6511004,12.1814971 52.924781,12.859041 51.988872,12.859041 C51.0688996,12.859041 50.3589997,12.1814971 50.3589997,11.2774612 C50.3589997,10.3739082 51.0688996,9.66352535 51.988872,9.66352535 L51.988872,9.66352535 Z" id="Fill-15" fill="#222222"></path>
                    <path d="M61.4607244,17.6840428 C61.4607244,16.8606554 61.0734184,16.2473405 60.0727975,16.2473405 C59.3788341,16.2473405 58.7495826,16.7157779 58.5235736,17.6999793 L58.5235736,22.0409934 C58.5235736,22.8962539 57.7653812,23.3159158 57.0390617,23.3159158 C56.3127423,23.3159158 55.5221939,22.8962539 55.5221939,22.0409934 L55.5221939,14.8275405 C55.5221939,13.9886996 56.3127423,13.5849741 57.0390617,13.5849741 C57.7170887,13.5849741 58.4429251,13.9558606 58.5076371,14.7309555 C59.185664,13.8592756 60.218158,13.6009107 61.1057744,13.6009107 C62.9775923,13.6009107 64.4621042,14.7309555 64.4621042,17.0871473 L64.4621042,22.0409934 C64.4621042,22.8962539 63.6715557,23.3159158 62.9292998,23.3159158 C62.2034633,23.3159158 61.4607244,22.8962539 61.4607244,22.0409934 L61.4607244,17.6840428 Z" id="Fill-17" fill="#222222"></path>
                    <path d="M72.4974957,18.7168748 L72.4974957,17.6679614 C72.3521352,16.4901069 71.4321628,16.1187375 70.8188479,16.1187375 C69.7699345,16.1187375 69.044098,16.9252225 69.044098,18.2648568 C69.044098,19.6044912 69.5927009,20.4921076 70.8999793,20.4921076 C71.5934598,20.4921076 72.3844912,20.0560262 72.4974957,18.7168748 L72.4974957,18.7168748 Z M72.4974957,21.6858986 C71.9324733,22.605871 70.8512039,22.8801725 70.1089479,22.8801725 C67.8498241,22.8801725 65.9939427,21.541021 65.9939427,18.3455053 C65.9939427,15.2470576 68.0594136,13.6978337 69.9800069,13.6978337 C70.8512039,13.6978337 71.8836978,13.9397792 72.4974957,14.6660987 C72.5940807,13.9238427 73.3039807,13.5688927 73.9820076,13.5688927 C74.7242635,13.5688927 75.4988755,13.9726181 75.4988755,14.8114591 L75.4988755,22.1379165 C75.4988755,25.4464367 73.5628286,26.9633046 70.5933218,26.9956606 C69.30198,27.0115971 68.0270576,26.6083546 67.2852846,26.0109762 C65.9939427,24.9620628 67.3012211,22.83188 68.8021525,23.8165643 C69.2860435,24.1227389 69.9635874,24.3487478 70.4643808,24.3487478 C71.9484098,24.3487478 72.4974957,23.6712039 72.4974957,22.2349845 L72.4974957,21.6858986 Z" id="Fill-19" fill="#222222"></path>
                    <path d="M83.7273888,14.1498517 C85.1153156,14.9568196 84.0499828,17.038227 82.5978268,16.2322249 C82.2269403,16.0216695 81.6454984,15.844436 81.177544,15.844436 C80.371059,15.844436 80.0962746,16.0863815 80.0962746,16.457268 C80.0962746,16.8450569 80.467644,17.038227 81.177544,17.2159434 L81.9038634,17.4095964 C83.5984477,17.8451949 84.4701276,18.7009383 84.4701276,20.1202553 C84.4701276,21.9925561 82.8074164,23.38 80.467644,23.38 C79.2410141,23.38 78.2568127,23.1061814 77.5469127,22.638227 C76.2232149,21.7665471 77.3691963,19.5726181 78.8218351,20.3786202 C79.2574336,20.6210486 79.9349776,20.8629941 80.467644,20.8629941 C81.1133149,20.8629941 81.5165574,20.6693412 81.5165574,20.2660987 C81.5165574,19.8464367 81.2099,19.6532666 80.371059,19.4591307 L79.5640911,19.2814143 C78.2244567,18.9911763 77.1596068,18.0712039 77.1596068,16.5060435 C77.1596068,14.8602346 78.5151776,13.5201173 80.9032425,13.5201173 C82.2428769,13.5201173 83.1787858,13.8272577 83.7273888,14.1498517" id="Fill-21" fill="#222222"></path>
                </g>
            </g>
        </g>
    </g>
</svg>