<?xml version="1.0" encoding="UTF-8"?>
<svg width="108px" height="27px" viewBox="0 0 108 27" version="1.1" xmlns="http://www.w3.org/2000/svg" xmlns:xlink="http://www.w3.org/1999/xlink">
    <!-- Generator: Sketch 63.1 (92452) - https://sketch.com -->
    <title>logo</title>
    <desc>Created with Sketch.</desc>
    <defs>
        <polygon id="path-1" points="0.227699111 0.32724416 18.4889574 0.32724416 18.4889574 18.6795868 0.227699111 18.6795868"></polygon>
        <polygon id="path-3" points="0 0.0629661013 10.0979927 0.0629661013 10.0979927 13.4789819 0 13.4789819"></polygon>
    </defs>
    <g id="Page-1" stroke="none" stroke-width="1" fill="none" fill-rule="evenodd">
        <g id="PC_서비스소개" transform="translate(-360.000000, -23.000000)">
            <g id="header">
                <g id="logo" transform="translate(360.000000, 23.000000)">
                    <g id="Group-3" transform="translate(89.020995, 0.000000)">
                        <mask id="mask-2" fill="white">
                            <use xlink:href="#path-1"></use>
                        </mask>
                        <g id="Clip-2"></g>
                        <path d="M9.3590933,18.6795868 L0.227699111,18.6795868 L0.227699111,9.50233427 C0.227699111,4.43461487 4.31547672,0.327003892 9.35765883,0.327003892 L9.3590933,0.327003892 C14.4012754,0.327003892 18.489053,4.43461487 18.489053,9.50233427 L18.489053,9.50377587 C18.489053,14.5714953 14.4012754,18.6795868 9.3590933,18.6795868" id="Fill-1" fill="#F63D58" mask="url(#mask-2)"></path>
                    </g>
                    <g id="Group-6" transform="translate(0.000000, 13.081319)">
                        <mask id="mask-4" fill="white">
                            <use xlink:href="#path-3"></use>
                        </mask>
                        <g id="Clip-5"></g>
                        <path d="M3.20537964,4.32617553 L3.20537964,5.27499958 C3.34306689,6.88333096 4.30842464,7.14135719 4.79058783,7.14135719 C6.2726595,7.14135719 6.82392415,6.14343113 6.82392415,4.85666975 C6.82392415,3.48903447 6.20355804,2.66922354 4.84267177,2.66922354 C4.18775492,2.66922354 3.34306689,3.03893276 3.20537964,4.32617553 L3.20537964,4.32617553 Z M-0.000103136512,1.30158826 C-0.000103136512,0.464928598 0.844584894,0.0629661013 1.62017146,0.0629661013 C2.30912336,0.0629661013 3.05015919,0.400903434 3.17082891,1.0767781 C3.86029649,0.368650156 4.79058783,0.0788520443 5.68684411,0.0788520443 C8.23741005,0.0788520443 10.0979927,1.54276576 10.0979927,4.87255569 C10.0979927,8.25096624 8.03010566,9.66625934 5.63476018,9.66625934 C4.7735703,9.66625934 3.82574576,9.36105668 3.20537964,8.62067546 L3.20537964,12.2238962 C3.20537964,13.0769232 2.39575803,13.4793671 1.62017146,13.4793671 C0.844584894,13.4793671 -0.000103136512,13.0769232 -0.000103136512,12.2238962 L-0.000103136512,1.30158826 Z" id="Fill-4" fill="#FFFFFF" mask="url(#mask-4)"></path>
                    </g>
                    <path d="M11.3913122,10.5024325 C11.3913122,9.67908387 12.1373598,9.28351648 12.8682014,9.28351648 C13.5824113,9.28351648 14.3446154,9.67908387 14.3446154,10.5024325 L14.3446154,21.536157 C14.3446154,22.3751389 13.5824113,22.7868132 12.8682014,22.7868132 C12.1691975,22.7868132 11.3913122,22.3751389 11.3913122,21.536157 L11.3913122,10.5024325 Z" id="Fill-7" fill="#FFFFFF"></path>
                    <path d="M21.5381278,19.3510856 L21.5381278,18.9684004 C21.3753147,18.9186364 20.9843682,18.8683747 20.6421682,18.8683747 C19.7135485,18.8683747 19.0296359,19.1515319 19.0296359,19.8666407 C19.0296359,20.4483819 19.5180752,20.6310158 19.9090217,20.6310158 C20.8376414,20.6310158 21.5381278,20.0661943 21.5381278,19.3510856 M24.4702262,16.4239669 L24.4702262,21.8288354 C24.4702262,22.7599199 23.7697399,23.2087912 23.0205071,23.2087912 C22.1893802,23.2087912 21.5542141,22.7599199 21.5542141,22.0114693 C20.919048,22.7430001 19.6808884,23.0425794 18.850249,23.0425794 C17.3030369,23.0425794 16.0322172,22.1781787 16.0322172,20.1493002 C16.0322172,17.6382086 18.2638293,16.8230742 20.2512217,16.8230742 C20.6909146,16.8230742 21.3260808,16.8564161 21.521554,16.8897579 L21.521554,16.756888 C21.521554,16.0417793 21.0170283,15.7257779 19.9743419,15.7257779 C19.5507354,15.7257779 18.9482293,15.8924873 18.5567954,16.0751212 C18.1663364,16.2577551 17.7914763,16.3244388 17.5799167,16.3244388 C16.8628566,16.3244388 16.4070773,15.6262499 16.4070773,14.994247 C16.4070773,14.44535 16.6025506,14.0462427 17.0749036,13.7964274 C17.9382031,13.331134 19.0783823,13.0813187 20.4954414,13.0813187 C22.678307,13.0813187 24.4702262,14.079087 24.4702262,16.4239669" id="Fill-9" fill="#FFFFFF"></path>
                    <path d="M32.5538388,13.904915 C33.2214259,12.2403511 36.0876648,13.3446332 35.3055646,15.0408027 L31.706929,22.8019039 C30.5023485,25.426609 29.1340386,26.1626374 27.5873806,26.1626374 C27.0659804,26.1626374 26.4963386,26.1142711 26.0894516,25.986412 C24.7377095,25.570271 25.2586224,23.1538758 26.8384161,23.5379323 C27.0172514,23.5862985 27.1965741,23.6021013 27.4246258,23.6021013 C27.9621065,23.6021013 28.5156677,23.2822139 28.9552032,22.2100164 L29.0365806,22.0175092 L25.7312935,15.1691408 C24.8030063,13.2646613 27.7340548,12.1924638 28.5643967,14.0648588 L30.5837259,18.8976491 L32.5538388,13.904915 Z" id="Fill-11" fill="#FFFFFF"></path>
                    <path d="M40.9300767,14.4162575 C41.2685274,12.6535126 44.1202878,12.6692911 44.4746485,14.4162575 L45.554123,19.5235333 L46.584903,14.119426 C46.9074436,12.4222602 49.7910241,12.9005435 49.3079364,14.8777761 L47.6966797,21.468223 C47.1330774,23.7915947 44.0720754,23.7255226 43.5725955,21.3858794 L42.5895457,16.8545157 L41.6874927,21.4519515 C41.2362251,23.7417941 38.158831,23.8241377 37.5793185,21.5170375 L35.9198495,14.9931558 C35.4044595,12.9666156 38.4654615,12.3236451 38.8198223,14.1854982 L39.8833866,19.671949 L40.9300767,14.4162575 Z" id="Fill-13" fill="#FFFFFF"></path>
                    <path d="M51.1799226,14.375315 C51.1799226,13.5456288 51.8895472,13.1463096 52.5411194,13.1463096 C53.1922584,13.1463096 53.8728568,13.5456288 53.8728568,14.375315 L53.8728568,21.5262826 C53.8728568,22.3717313 53.177962,22.7868132 52.5263897,22.7868132 C51.860521,22.7868132 51.1799226,22.3717313 51.1799226,21.5262826 L51.1799226,14.375315 Z M52.5120933,9.28351648 C53.3516857,9.28351648 54.0032579,9.98614646 54.0032579,10.8798383 C54.0032579,11.7740078 53.3516857,12.4441572 52.5120933,12.4441572 C51.6867973,12.4441572 51.0499548,11.7740078 51.0499548,10.8798383 C51.0499548,9.98614646 51.6867973,9.28351648 52.5120933,9.28351648 L52.5120933,9.28351648 Z" id="Fill-15" fill="#FFFFFF"></path>
                    <path d="M61.4346041,17.3474222 C61.4346041,16.4904823 61.0324859,15.8521751 59.9935971,15.8521751 C59.2730936,15.8521751 58.6197769,16.339701 58.3851244,17.3640082 L58.3851244,21.8819164 C58.3851244,22.7720282 57.5979355,23.2087912 56.8438385,23.2087912 C56.0897416,23.2087912 55.2689593,22.7720282 55.2689593,21.8819164 L55.2689593,14.374519 C55.2689593,13.5014957 56.0897416,13.0813187 56.8438385,13.0813187 C57.547796,13.0813187 58.3013916,13.4673186 58.3685784,14.2739982 C59.0725359,13.3667978 60.1445168,13.0979046 61.0660793,13.0979046 C63.0094834,13.0979046 64.5507692,14.2739982 64.5507692,16.7262036 L64.5507692,21.8819164 C64.5507692,22.7720282 63.7299869,23.2087912 62.959344,23.2087912 C62.2057484,23.2087912 61.4346041,22.7720282 61.4346041,21.8819164 L61.4346041,17.3474222 Z" id="Fill-17" fill="#FFFFFF"></path>
                    <path d="M72.7447097,18.5186591 L72.7447097,17.4967673 C72.5898571,16.3492561 71.6098099,15.9874537 70.9564451,15.9874537 C69.839037,15.9874537 69.0658029,16.7731625 69.0658029,18.0782858 C69.0658029,19.3834092 69.65023,20.2481594 71.0428744,20.2481594 C71.7816397,20.2481594 72.6243259,19.823312 72.7447097,18.5186591 L72.7447097,18.5186591 Z M72.7447097,21.4111965 C72.1427909,22.307469 70.9909139,22.5747041 70.2001882,22.5747041 C67.7935422,22.5747041 65.8164706,21.2700512 65.8164706,18.1568567 C65.8164706,15.1382296 68.016818,13.628916 70.0628273,13.628916 C70.9909139,13.628916 72.0908304,13.8646286 72.7447097,14.572237 C72.8476018,13.8491026 73.6038586,13.5032967 74.3261611,13.5032967 C75.1168869,13.5032967 75.9420814,13.8966216 75.9420814,14.7138528 L75.9420814,21.8515698 C75.9420814,25.0748576 73.8796094,26.5526487 70.7161921,26.5841712 C69.3405248,26.5996971 67.9823491,26.2068428 67.1921379,25.6248537 C65.8164706,24.6029619 67.2091151,22.5276557 68.8080582,23.4869731 C69.3235476,23.7852602 70.0453356,24.0054468 70.5788311,24.0054468 C72.1597681,24.0054468 72.7447097,23.3453574 72.7447097,21.9461371 L72.7447097,21.4111965 Z" id="Fill-19" fill="#FFFFFF"></path>
                    <path d="M84.4724926,13.7281436 C85.876602,14.557012 84.7988478,16.6949072 83.3297605,15.8670309 C82.9545497,15.6507612 82.3663285,15.4687177 81.8929179,15.4687177 C81.0770297,15.4687177 80.7990414,15.7172294 80.7990414,16.0981815 C80.7990414,16.4964947 81.1747409,16.6949072 81.8929179,16.8774468 L82.6277058,17.0763554 C84.3420482,17.5237757 85.2238914,18.4027432 85.2238914,19.8605794 C85.2238914,21.7836931 83.5417937,23.2087912 81.1747409,23.2087912 C79.9338091,23.2087912 78.9381324,22.9275414 78.2199553,22.446887 C76.8808238,21.5515504 78.0401668,19.2980799 79.5097427,20.1259562 C79.95042,20.374964 80.6358638,20.6234757 81.1747409,20.6234757 C81.82794,20.6234757 82.2358841,20.4245671 82.2358841,20.0103809 C82.2358841,19.5793297 81.9256511,19.3809171 81.0770297,19.1815125 L80.2606529,18.998973 C78.9053991,18.7008581 77.8281336,17.7559183 77.8281336,16.1482807 C77.8281336,14.4578057 79.1995097,13.0813187 81.6154182,13.0813187 C82.970672,13.0813187 83.9174932,13.3967946 84.4724926,13.7281436" id="Fill-21" fill="#FFFFFF"></path>
                </g>
            </g>
        </g>
    </g>
</svg>