<?xml version="1.0" encoding="UTF-8"?>
<svg width="215px" height="203px" viewBox="0 0 215 203" version="1.1" xmlns="http://www.w3.org/2000/svg" xmlns:xlink="http://www.w3.org/1999/xlink">
    <!-- Generator: Sketch 63.1 (92452) - https://sketch.com -->
    <title>언제든가볍게지구산책</title>
    <desc>Created with Sketch.</desc>
    <g id="Page-1" stroke="none" stroke-width="1" fill="none" fill-rule="evenodd">
        <g id="PC_서비스소개" transform="translate(-309.000000, -658.000000)" fill="#FFFFFF" fill-rule="nonzero">
            <path d="M352.6,699.82 C353.72,699.82 354.63,699.56 355.33,699.04 C356.03,698.52 356.38,697.72 356.38,696.64 L356.38,696.64 L356.38,661.72 C356.38,660.8 356.01,660.1 355.27,659.62 C354.53,659.14 353.64,658.9 352.6,658.9 C351.56,658.9 350.67,659.14 349.93,659.62 C349.19,660.1 348.82,660.8 348.82,661.72 L348.82,661.72 L348.82,673 L339.88,673 C339.52,671.44 338.92,670.02 338.08,668.74 C337.24,667.46 336.19,666.36 334.93,665.44 C333.67,664.52 332.22,663.81 330.58,663.31 C328.94,662.81 327.14,662.56 325.18,662.56 C322.9,662.56 320.83,662.9 318.97,663.58 C317.11,664.26 315.53,665.21 314.23,666.43 C312.93,667.65 311.92,669.1 311.2,670.78 C310.48,672.46 310.12,674.3 310.12,676.3 C310.12,678.3 310.48,680.14 311.2,681.82 C311.92,683.5 312.93,684.94 314.23,686.14 C315.53,687.34 317.11,688.28 318.97,688.96 C320.83,689.64 322.9,689.98 325.18,689.98 C329.14,689.98 332.41,689.02 334.99,687.1 C337.57,685.18 339.2,682.64 339.88,679.48 L339.88,679.48 L348.82,679.48 L348.82,696.64 C348.82,697.72 349.18,698.52 349.9,699.04 C350.62,699.56 351.52,699.82 352.6,699.82 Z M325.18,683.8 C322.78,683.8 320.9,683.1 319.54,681.7 C318.18,680.3 317.5,678.48 317.5,676.24 C317.5,674 318.18,672.18 319.54,670.78 C320.9,669.38 322.78,668.68 325.18,668.68 C327.62,668.68 329.51,669.38 330.85,670.78 C332.19,672.18 332.86,674 332.86,676.24 C332.86,678.48 332.19,680.3 330.85,681.7 C329.51,683.1 327.62,683.8 325.18,683.8 Z M355.36,715.06 C356.28,715.06 356.95,714.75 357.37,714.13 C357.79,713.51 358,712.72 358,711.76 C358,710.88 357.79,710.13 357.37,709.51 C356.95,708.89 356.28,708.58 355.36,708.58 L355.36,708.58 L328.72,708.58 C328.16,708.58 327.8,708.5 327.64,708.34 C327.48,708.18 327.4,707.82 327.4,707.26 L327.4,707.26 L327.4,697.66 C327.4,696.74 327.01,696.03 326.23,695.53 C325.45,695.03 324.5,694.78 323.38,694.78 C322.34,694.78 321.42,695.03 320.62,695.53 C319.82,696.03 319.42,696.74 319.42,697.66 L319.42,697.66 L319.42,709.66 C319.42,710.78 319.53,711.69 319.75,712.39 C319.97,713.09 320.3,713.64 320.74,714.04 C321.18,714.44 321.76,714.71 322.48,714.85 C323.2,714.99 324.08,715.06 325.12,715.06 L325.12,715.06 L355.36,715.06 Z M409.48,714.7 C410.6,714.7 411.5,714.46 412.18,713.98 C412.86,713.5 413.2,712.74 413.2,711.7 L413.2,711.7 L413.2,661.6 C413.2,660.76 412.85,660.1 412.15,659.62 C411.45,659.14 410.56,658.9 409.48,658.9 C408.44,658.9 407.57,659.14 406.87,659.62 C406.17,660.1 405.82,660.76 405.82,661.6 L405.82,661.6 L405.82,711.7 C405.82,712.74 406.17,713.5 406.87,713.98 C407.57,714.46 408.44,714.7 409.48,714.7 Z M397.72,713.5 C398.76,713.5 399.62,713.27 400.3,712.81 C400.98,712.35 401.32,711.6 401.32,710.56 L401.32,710.56 L401.32,662.68 C401.32,661.8 400.97,661.13 400.27,660.67 C399.57,660.21 398.72,659.98 397.72,659.98 C396.68,659.98 395.81,660.21 395.11,660.67 C394.41,661.13 394.06,661.8 394.06,662.68 L394.06,662.68 L394.06,677.68 L388.24,677.68 C387.32,677.68 386.64,677.99 386.2,678.61 C385.76,679.23 385.54,680.06 385.54,681.1 C385.54,682.1 385.76,682.91 386.2,683.53 C386.64,684.15 387.32,684.46 388.24,684.46 L388.24,684.46 L394.06,684.46 L394.06,710.56 C394.06,711.6 394.41,712.35 395.11,712.81 C395.81,713.27 396.68,713.5 397.72,713.5 Z M366.58,701.89 C367.42,702.15 368.3,701.98 369.22,701.38 C370.18,700.78 371.09,700.04 371.95,699.16 C372.81,698.28 373.6,697.32 374.32,696.28 C375.04,695.24 375.67,694.14 376.21,692.98 C376.75,691.82 377.18,690.66 377.5,689.5 C377.86,690.7 378.33,691.86 378.91,692.98 C379.49,694.1 380.15,695.15 380.89,696.13 C381.63,697.11 382.43,698 383.29,698.8 C384.15,699.6 385,700.28 385.84,700.84 C386.56,701.32 387.35,701.51 388.21,701.41 C389.07,701.31 389.8,700.88 390.4,700.12 C391,699.36 391.29,698.5 391.27,697.54 C391.25,696.58 390.86,695.8 390.1,695.2 C388.82,694.24 387.64,693.15 386.56,691.93 C385.48,690.71 384.55,689.28 383.77,687.64 C382.99,686 382.38,684.1 381.94,681.94 C381.5,679.78 381.28,677.32 381.28,674.56 L381.28,674.56 L381.28,670.6 L388,670.6 C388.92,670.6 389.58,670.27 389.98,669.61 C390.38,668.95 390.58,668.18 390.58,667.3 C390.58,666.46 390.36,665.72 389.92,665.08 C389.48,664.44 388.84,664.12 388,664.12 L388,664.12 L366.88,664.12 C366.04,664.12 365.41,664.43 364.99,665.05 C364.57,665.67 364.36,666.42 364.36,667.3 C364.36,668.18 364.55,668.95 364.93,669.61 C365.31,670.27 365.96,670.6 366.88,670.6 L366.88,670.6 L373.78,670.6 L373.78,674.68 C373.78,677.52 373.56,680.01 373.12,682.15 C372.68,684.29 372.07,686.19 371.29,687.85 C370.51,689.51 369.57,690.98 368.47,692.26 C367.37,693.54 366.18,694.74 364.9,695.86 C364.18,696.54 363.82,697.33 363.82,698.23 C363.82,699.13 364.08,699.92 364.6,700.6 C365.08,701.2 365.74,701.63 366.58,701.89 Z M461.74,682.54 C462.66,682.54 463.33,682.25 463.75,681.67 C464.17,681.09 464.38,680.32 464.38,679.36 C464.38,678.44 464.17,677.69 463.75,677.11 C463.33,676.53 462.66,676.24 461.74,676.24 L461.74,676.24 L436.06,676.24 C435.46,676.24 435.08,676.15 434.92,675.97 C434.76,675.79 434.68,675.42 434.68,674.86 L434.68,674.86 L434.68,668.56 C434.68,667.92 434.76,667.52 434.92,667.36 C435.08,667.2 435.46,667.12 436.06,667.12 L436.06,667.12 L461.44,667.12 C462.36,667.12 463.03,666.83 463.45,666.25 C463.87,665.67 464.08,664.92 464.08,664 C464.08,663.04 463.87,662.27 463.45,661.69 C463.03,661.11 462.36,660.82 461.44,660.82 L461.44,660.82 L432.4,660.82 C431.28,660.82 430.36,660.91 429.64,661.09 C428.92,661.27 428.34,661.57 427.9,661.99 C427.46,662.41 427.15,662.97 426.97,663.67 C426.79,664.37 426.7,665.24 426.7,666.28 L426.7,666.28 L426.7,677.08 C426.7,678.24 426.81,679.17 427.03,679.87 C427.25,680.57 427.58,681.12 428.02,681.52 C428.46,681.92 429.04,682.19 429.76,682.33 C430.48,682.47 431.36,682.54 432.4,682.54 L432.4,682.54 L461.74,682.54 Z M468.76,693.46 C469.56,693.46 470.16,693.13 470.56,692.47 C470.96,691.81 471.16,691.08 471.16,690.28 C471.16,689.48 470.96,688.75 470.56,688.09 C470.16,687.43 469.56,687.1 468.76,687.1 L468.76,687.1 L421.36,687.1 C420.56,687.1 419.97,687.43 419.59,688.09 C419.21,688.75 419.02,689.48 419.02,690.28 C419.02,691.08 419.21,691.81 419.59,692.47 C419.97,693.13 420.56,693.46 421.36,693.46 L421.36,693.46 L468.76,693.46 Z M462.46,715.06 C463.38,715.06 464.03,714.74 464.41,714.1 C464.79,713.46 464.98,712.68 464.98,711.76 C464.98,710.84 464.79,710.08 464.41,709.48 C464.03,708.88 463.38,708.58 462.46,708.58 L462.46,708.58 L435.7,708.58 C435.14,708.58 434.78,708.5 434.62,708.34 C434.46,708.18 434.38,707.82 434.38,707.26 L434.38,707.26 L434.38,699.94 C434.38,698.98 433.97,698.26 433.15,697.78 C432.33,697.3 431.4,697.06 430.36,697.06 C429.32,697.06 428.4,697.3 427.6,697.78 C426.8,698.26 426.4,698.98 426.4,699.94 L426.4,699.94 L426.4,709.66 C426.4,711.66 426.84,713.06 427.72,713.86 C428.6,714.66 430.06,715.06 432.1,715.06 L432.1,715.06 L462.46,715.06 Z M349.24,786.7 C350.36,786.7 351.28,786.45 352,785.95 C352.72,785.45 353.08,784.66 353.08,783.58 L353.08,783.58 L353.08,756.7 L359.56,756.7 C360.48,756.7 361.13,756.38 361.51,755.74 C361.89,755.1 362.08,754.32 362.08,753.4 C362.08,752.48 361.89,751.71 361.51,751.09 C361.13,750.47 360.48,750.16 359.56,750.16 L359.56,750.16 L353.08,750.16 L353.08,733.78 C353.08,732.86 352.72,732.15 352,731.65 C351.28,731.15 350.36,730.9 349.24,730.9 C348.2,730.9 347.32,731.15 346.6,731.65 C345.88,732.15 345.52,732.86 345.52,733.78 L345.52,733.78 L345.52,783.58 C345.52,784.66 345.87,785.45 346.57,785.95 C347.27,786.45 348.16,786.7 349.24,786.7 Z M313.12,773.74 C313.68,773.74 314.32,773.58 315.04,773.26 C322.48,770.14 328.13,765.91 331.99,760.57 C335.85,755.23 337.78,748.62 337.78,740.74 C337.78,739.66 337.69,738.78 337.51,738.1 C337.33,737.42 337.03,736.88 336.61,736.48 C336.19,736.08 335.64,735.81 334.96,735.67 C334.28,735.53 333.46,735.46 332.5,735.46 L332.5,735.46 L313.24,735.46 C312.44,735.46 311.8,735.77 311.32,736.39 C310.84,737.01 310.6,737.78 310.6,738.7 C310.6,739.7 310.84,740.5 311.32,741.1 C311.8,741.7 312.44,742 313.24,742 L313.24,742 L328.18,742 C328.82,742 329.24,742.1 329.44,742.3 C329.64,742.5 329.74,742.88 329.74,743.44 C329.74,746.28 329.3,748.88 328.42,751.24 C327.54,753.6 326.29,755.74 324.67,757.66 C323.05,759.58 321.1,761.31 318.82,762.85 C316.54,764.39 314,765.76 311.2,766.96 C310.76,767.16 310.39,767.52 310.09,768.04 C309.79,768.56 309.64,769.14 309.64,769.78 C309.64,770.98 310.02,771.94 310.78,772.66 C311.54,773.38 312.32,773.74 313.12,773.74 Z M407.86,761.38 C408.98,761.38 409.89,761.12 410.59,760.6 C411.29,760.08 411.64,759.28 411.64,758.2 L411.64,758.2 L411.64,733.72 C411.64,732.8 411.27,732.1 410.53,731.62 C409.79,731.14 408.9,730.9 407.86,730.9 C406.82,730.9 405.93,731.14 405.19,731.62 C404.45,732.1 404.08,732.8 404.08,733.72 L404.08,733.72 L404.08,738.16 L394.12,738.16 L394.12,735.64 C394.12,734.76 393.74,734.11 392.98,733.69 C392.22,733.27 391.3,733.06 390.22,733.06 C389.26,733.06 388.4,733.27 387.64,733.69 C386.88,734.11 386.5,734.76 386.5,735.64 L386.5,735.64 L386.5,741.1 L374.14,741.1 L374.14,735.64 C374.14,734.76 373.76,734.11 373,733.69 C372.24,733.27 371.32,733.06 370.24,733.06 C369.24,733.06 368.37,733.27 367.63,733.69 C366.89,734.11 366.52,734.76 366.52,735.64 L366.52,735.64 L366.52,754.24 C366.52,755.36 366.6,756.28 366.76,757 C366.92,757.72 367.22,758.29 367.66,758.71 C368.1,759.13 368.74,759.43 369.58,759.61 C370.42,759.79 371.5,759.88 372.82,759.88 L372.82,759.88 L387.76,759.88 C388.84,759.88 389.77,759.83 390.55,759.73 C391.33,759.63 391.97,759.41 392.47,759.07 C392.97,758.73 393.35,758.24 393.61,757.6 C393.87,756.96 394.04,756.12 394.12,755.08 L394.12,755.08 L404.08,755.08 L404.08,758.2 C404.08,759.24 404.43,760.03 405.13,760.57 C405.83,761.11 406.74,761.38 407.86,761.38 Z M404.08,748.84 L394.12,748.84 L394.12,744.4 L404.08,744.4 L404.08,748.84 Z M385,753.76 L375.52,753.76 C374.96,753.76 374.59,753.7 374.41,753.58 C374.23,753.46 374.14,753.06 374.14,752.38 L374.14,752.38 L374.14,747.1 L386.5,747.1 L386.5,752.26 C386.5,752.94 386.42,753.36 386.26,753.52 C386.1,753.68 385.68,753.76 385,753.76 L385,753.76 Z M405.1,787.78 C406.38,787.78 407.44,787.7 408.28,787.54 C409.12,787.38 409.79,787.08 410.29,786.64 C410.79,786.2 411.14,785.59 411.34,784.81 C411.54,784.03 411.64,783.04 411.64,781.84 L411.64,781.84 L411.64,766.24 C411.64,765.32 411.27,764.63 410.53,764.17 C409.79,763.71 408.9,763.48 407.86,763.48 C406.86,763.48 405.98,763.71 405.22,764.17 C404.46,764.63 404.08,765.32 404.08,766.24 L404.08,766.24 L404.08,770.56 L382.48,770.56 L382.48,766.24 C382.48,765.32 382.11,764.63 381.37,764.17 C380.63,763.71 379.74,763.48 378.7,763.48 C377.7,763.48 376.82,763.71 376.06,764.17 C375.3,764.63 374.92,765.32 374.92,766.24 L374.92,766.24 L374.92,781.84 C374.92,783 375.01,783.96 375.19,784.72 C375.37,785.48 375.7,786.08 376.18,786.52 C376.66,786.96 377.32,787.28 378.16,787.48 C379,787.68 380.1,787.78 381.46,787.78 L381.46,787.78 L405.1,787.78 Z M402.76,781.84 L383.8,781.84 C383.2,781.84 382.83,781.78 382.69,781.66 C382.55,781.54 382.48,781.14 382.48,780.46 L382.48,780.46 L382.48,776.38 L404.08,776.38 L404.08,780.46 C404.08,781.14 404.01,781.54 403.87,781.66 C403.73,781.78 403.36,781.84 402.76,781.84 L402.76,781.84 Z M464.74,786.7 C465.86,786.7 466.76,786.46 467.44,785.98 C468.12,785.5 468.46,784.74 468.46,783.7 L468.46,783.7 L468.46,733.6 C468.46,732.76 468.11,732.1 467.41,731.62 C466.71,731.14 465.82,730.9 464.74,730.9 C463.7,730.9 462.83,731.14 462.13,731.62 C461.43,732.1 461.08,732.76 461.08,733.6 L461.08,733.6 L461.08,783.7 C461.08,784.74 461.43,785.5 462.13,785.98 C462.83,786.46 463.7,786.7 464.74,786.7 Z M452.8,785.5 C453.84,785.5 454.7,785.27 455.38,784.81 C456.06,784.35 456.4,783.6 456.4,782.56 L456.4,782.56 L456.4,734.68 C456.4,733.8 456.06,733.13 455.38,732.67 C454.7,732.21 453.84,731.98 452.8,731.98 C451.76,731.98 450.9,732.21 450.22,732.67 C449.54,733.13 449.2,733.8 449.2,734.68 L449.2,734.68 L449.2,749.68 L442.66,749.68 C443.18,747.12 443.44,744.3 443.44,741.22 C443.44,739.14 443.06,737.74 442.3,737.02 C441.54,736.3 440.26,735.94 438.46,735.94 L438.46,735.94 L423.22,735.94 C422.38,735.94 421.74,736.25 421.3,736.87 C420.86,737.49 420.64,738.26 420.64,739.18 C420.64,740.1 420.86,740.86 421.3,741.46 C421.74,742.06 422.38,742.36 423.22,742.36 L423.22,742.36 L434.38,742.36 C434.98,742.36 435.39,742.43 435.61,742.57 C435.83,742.71 435.94,743.04 435.94,743.56 C435.94,748.88 434.68,753.47 432.16,757.33 C429.64,761.19 425.96,764.48 421.12,767.2 C420.68,767.44 420.34,767.78 420.1,768.22 C419.86,768.66 419.74,769.16 419.74,769.72 C419.74,770.28 419.85,770.79 420.07,771.25 C420.29,771.71 420.57,772.11 420.91,772.45 C421.25,772.79 421.63,773.06 422.05,773.26 C422.47,773.46 422.88,773.56 423.28,773.56 C424.04,773.56 424.76,773.36 425.44,772.96 C429.28,770.8 432.46,768.33 434.98,765.55 C437.5,762.77 439.46,759.64 440.86,756.16 L440.86,756.16 L449.2,756.16 L449.2,782.56 C449.2,783.6 449.54,784.35 450.22,784.81 C450.9,785.27 451.76,785.5 452.8,785.5 Z M352.18,858.76 C353.26,858.76 354.16,858.5 354.88,857.98 C355.6,857.46 355.96,856.66 355.96,855.58 L355.96,855.58 L355.96,805.72 C355.96,804.8 355.6,804.09 354.88,803.59 C354.16,803.09 353.26,802.84 352.18,802.84 C351.1,802.84 350.2,803.09 349.48,803.59 C348.76,804.09 348.4,804.8 348.4,805.72 L348.4,805.72 L348.4,855.58 C348.4,856.66 348.75,857.46 349.45,857.98 C350.15,858.5 351.06,858.76 352.18,858.76 Z M312.85,844.81 C313.67,844.99 314.64,844.78 315.76,844.18 C316.92,843.54 318.05,842.77 319.15,841.87 C320.25,840.97 321.28,839.96 322.24,838.84 C323.2,837.72 324.05,836.53 324.79,835.27 C325.53,834.01 326.14,832.68 326.62,831.28 C327.14,832.68 327.81,834 328.63,835.24 C329.45,836.48 330.35,837.62 331.33,838.66 C332.31,839.7 333.35,840.63 334.45,841.45 C335.55,842.27 336.64,842.94 337.72,843.46 C338.88,844.02 339.85,844.2 340.63,844 C341.41,843.8 342.12,843.22 342.76,842.26 C343.32,841.42 343.53,840.52 343.39,839.56 C343.25,838.6 342.78,837.9 341.98,837.46 C340.18,836.5 338.58,835.43 337.18,834.25 C335.78,833.07 334.58,831.7 333.58,830.14 C332.58,828.58 331.82,826.78 331.3,824.74 C330.78,822.7 330.52,820.34 330.52,817.66 L330.52,817.66 L330.52,814.3 L339.88,814.3 C340.8,814.3 341.46,813.96 341.86,813.28 C342.26,812.6 342.46,811.84 342.46,811 C342.46,810.16 342.25,809.4 341.83,808.72 C341.41,808.04 340.76,807.7 339.88,807.7 L339.88,807.7 L313.12,807.7 C312.24,807.7 311.59,808.04 311.17,808.72 C310.75,809.4 310.54,810.16 310.54,811 C310.54,811.84 310.74,812.6 311.14,813.28 C311.54,813.96 312.2,814.3 313.12,814.3 L313.12,814.3 L322.54,814.3 L322.54,817.54 C322.54,820.26 322.29,822.67 321.79,824.77 C321.29,826.87 320.56,828.74 319.6,830.38 C318.64,832.02 317.48,833.48 316.12,834.76 C314.76,836.04 313.22,837.24 311.5,838.36 C310.58,838.96 310.06,839.72 309.94,840.64 C309.82,841.56 310.06,842.44 310.66,843.28 C311.3,844.12 312.03,844.63 312.85,844.81 Z M389.8,859.72 C390.84,859.72 391.76,859.47 392.56,858.97 C393.36,858.47 393.76,857.68 393.76,856.6 L393.76,856.6 L393.76,836.8 L413.38,836.8 C414.22,836.8 414.85,836.48 415.27,835.84 C415.69,835.2 415.9,834.42 415.9,833.5 C415.9,832.58 415.69,831.8 415.27,831.16 C414.85,830.52 414.22,830.2 413.38,830.2 L413.38,830.2 L405.76,830.2 C406.24,829.24 406.66,828.15 407.02,826.93 C407.38,825.71 407.7,824.43 407.98,823.09 C408.26,821.75 408.47,820.38 408.61,818.98 C408.75,817.58 408.82,816.22 408.82,814.9 L408.82,814.9 L408.82,810.22 C408.82,808.26 408.43,806.91 407.65,806.17 C406.87,805.43 405.48,805.06 403.48,805.06 L403.48,805.06 L372.94,805.06 C372.02,805.06 371.32,805.36 370.84,805.96 C370.36,806.56 370.12,807.36 370.12,808.36 C370.12,809.28 370.36,810.05 370.84,810.67 C371.32,811.29 372.02,811.6 372.94,811.6 L372.94,811.6 L399.46,811.6 C400.06,811.6 400.44,811.7 400.6,811.9 C400.76,812.1 400.84,812.5 400.84,813.1 L400.84,813.1 L400.84,816.52 C400.84,819.12 400.6,821.61 400.12,823.99 C399.64,826.37 399.04,828.44 398.32,830.2 L398.32,830.2 L366.16,830.2 C365.36,830.2 364.75,830.52 364.33,831.16 C363.91,831.8 363.7,832.58 363.7,833.5 C363.7,834.42 363.91,835.2 364.33,835.84 C364.75,836.48 365.36,836.8 366.16,836.8 L366.16,836.8 L385.84,836.8 L385.84,856.6 C385.84,857.68 386.22,858.47 386.98,858.97 C387.74,859.47 388.68,859.72 389.8,859.72 Z M459.94,843.28 C461.06,843.28 461.97,843.03 462.67,842.53 C463.37,842.03 463.72,841.24 463.72,840.16 L463.72,840.16 L463.72,824.8 L470.08,824.8 C471,824.8 471.66,824.5 472.06,823.9 C472.46,823.3 472.66,822.52 472.66,821.56 C472.66,820.64 472.46,819.88 472.06,819.28 C471.66,818.68 471,818.38 470.08,818.38 L470.08,818.38 L463.72,818.38 L463.72,805.72 C463.72,804.8 463.35,804.09 462.61,803.59 C461.87,803.09 460.98,802.84 459.94,802.84 C458.9,802.84 458.01,803.09 457.27,803.59 C456.53,804.09 456.16,804.8 456.16,805.72 L456.16,805.72 L456.16,840.16 C456.16,841.24 456.51,842.03 457.21,842.53 C457.91,843.03 458.82,843.28 459.94,843.28 Z M420.91,835.9 C421.65,836.3 422.58,836.28 423.7,835.84 C424.94,835.36 426.17,834.73 427.39,833.95 C428.61,833.17 429.75,832.28 430.81,831.28 C431.87,830.28 432.8,829.19 433.6,828.01 C434.4,826.83 435.02,825.6 435.46,824.32 C435.94,825.52 436.59,826.67 437.41,827.77 C438.23,828.87 439.13,829.87 440.11,830.77 C441.09,831.67 442.14,832.47 443.26,833.17 C444.38,833.87 445.52,834.44 446.68,834.88 C447.84,835.36 448.84,835.38 449.68,834.94 C450.52,834.5 451.14,833.88 451.54,833.08 C451.9,832.24 451.99,831.38 451.81,830.5 C451.63,829.62 451.08,828.98 450.16,828.58 C448.72,828.02 447.35,827.29 446.05,826.39 C444.75,825.49 443.59,824.39 442.57,823.09 C441.55,821.79 440.74,820.24 440.14,818.44 C439.54,816.64 439.24,814.56 439.24,812.2 L439.24,812.2 L439.24,807.64 C439.24,806.72 438.85,806.03 438.07,805.57 C437.29,805.11 436.36,804.88 435.28,804.88 C434.24,804.88 433.33,805.11 432.55,805.57 C431.77,806.03 431.38,806.72 431.38,807.64 L431.38,807.64 L431.38,812.56 C431.38,814.88 431.1,816.93 430.54,818.71 C429.98,820.49 429.21,822.07 428.23,823.45 C427.25,824.83 426.09,826.02 424.75,827.02 C423.41,828.02 421.96,828.9 420.4,829.66 C419.36,830.14 418.8,830.81 418.72,831.67 C418.64,832.53 418.8,833.36 419.2,834.16 C419.6,834.92 420.17,835.5 420.91,835.9 Z M463.3,859.06 C464.22,859.06 464.88,858.75 465.28,858.13 C465.68,857.51 465.88,856.74 465.88,855.82 C465.88,854.9 465.68,854.14 465.28,853.54 C464.88,852.94 464.22,852.64 463.3,852.64 L463.3,852.64 L436.9,852.64 C436.3,852.64 435.92,852.56 435.76,852.4 C435.6,852.24 435.52,851.88 435.52,851.32 L435.52,851.32 L435.52,841.54 C435.52,840.62 435.12,839.91 434.32,839.41 C433.52,838.91 432.6,838.66 431.56,838.66 C430.52,838.66 429.59,838.91 428.77,839.41 C427.95,839.91 427.54,840.62 427.54,841.54 L427.54,841.54 L427.54,853.84 C427.54,854.96 427.66,855.86 427.9,856.54 C428.14,857.22 428.5,857.75 428.98,858.13 C429.46,858.51 430.07,858.76 430.81,858.88 C431.55,859 432.42,859.06 433.42,859.06 L433.42,859.06 L463.3,859.06 Z M519.94,837.76 C521.06,837.76 521.97,837.53 522.67,837.07 C523.37,836.61 523.72,835.86 523.72,834.82 L523.72,834.82 L523.72,805.6 C523.72,804.76 523.36,804.1 522.64,803.62 C521.92,803.14 521.02,802.9 519.94,802.9 C518.9,802.9 518.04,803.14 517.36,803.62 C516.68,804.1 516.34,804.76 516.34,805.6 L516.34,805.6 L516.34,817.6 L511.06,817.6 L511.06,806.68 C511.06,805.8 510.71,805.13 510.01,804.67 C509.31,804.21 508.44,803.98 507.4,803.98 C506.36,803.98 505.48,804.21 504.76,804.67 C504.04,805.13 503.68,805.8 503.68,806.68 L503.68,806.68 L503.68,834.22 C503.68,835.26 504.01,836.02 504.67,836.5 C505.33,836.98 506.24,837.22 507.4,837.22 C508.48,837.22 509.36,836.98 510.04,836.5 C510.72,836.02 511.06,835.26 511.06,834.22 L511.06,834.22 L511.06,824.26 L516.34,824.26 L516.34,834.82 C516.34,835.86 516.68,836.61 517.36,837.07 C518.04,837.53 518.9,837.76 519.94,837.76 Z M492.88,811.12 C493.72,811.12 494.36,810.82 494.8,810.22 C495.24,809.62 495.46,808.88 495.46,808 C495.46,807.16 495.24,806.43 494.8,805.81 C494.36,805.19 493.72,804.88 492.88,804.88 L492.88,804.88 L482.98,804.88 C482.18,804.88 481.57,805.18 481.15,805.78 C480.73,806.38 480.52,807.12 480.52,808 C480.52,808.8 480.7,809.52 481.06,810.16 C481.42,810.8 482.06,811.12 482.98,811.12 L482.98,811.12 L492.88,811.12 Z M475.48,835.9 C476.52,837.54 477.98,838 479.86,837.28 C481.78,836.52 483.53,835.37 485.11,833.83 C486.69,832.29 487.82,830.68 488.5,829 C489.18,830.6 490.28,832.07 491.8,833.41 C493.32,834.75 494.98,835.76 496.78,836.44 C497.58,836.76 498.38,836.78 499.18,836.5 C499.98,836.22 500.6,835.7 501.04,834.94 C501.48,834.14 501.64,833.31 501.52,832.45 C501.4,831.59 500.88,830.96 499.96,830.56 C498.92,830.12 497.92,829.61 496.96,829.03 C496,828.45 495.14,827.76 494.38,826.96 C493.62,826.16 493,825.23 492.52,824.17 C492.04,823.11 491.78,821.86 491.74,820.42 L491.74,820.42 L498.64,820.42 C499.56,820.42 500.22,820.11 500.62,819.49 C501.02,818.87 501.22,818.14 501.22,817.3 C501.22,816.46 501,815.74 500.56,815.14 C500.12,814.54 499.48,814.24 498.64,814.24 L498.64,814.24 L477.34,814.24 C476.5,814.24 475.87,814.53 475.45,815.11 C475.03,815.69 474.82,816.42 474.82,817.3 C474.82,818.14 475.02,818.87 475.42,819.49 C475.82,820.11 476.46,820.42 477.34,820.42 L477.34,820.42 L484.3,820.42 C484.22,823.38 483.44,825.72 481.96,827.44 C480.48,829.16 478.58,830.56 476.26,831.64 C475.46,832 475.01,832.61 474.91,833.47 C474.81,834.33 475,835.14 475.48,835.9 Z M519.82,860.68 C520.86,860.68 521.77,860.45 522.55,859.99 C523.33,859.53 523.72,858.84 523.72,857.92 L523.72,857.92 L523.72,845.14 C523.72,844.06 523.6,843.18 523.36,842.5 C523.12,841.82 522.75,841.29 522.25,840.91 C521.75,840.53 521.1,840.27 520.3,840.13 C519.5,839.99 518.54,839.92 517.42,839.92 L517.42,839.92 L486.58,839.92 C485.66,839.92 484.98,840.24 484.54,840.88 C484.1,841.52 483.88,842.3 483.88,843.22 C483.88,844.14 484.1,844.92 484.54,845.56 C484.98,846.2 485.66,846.52 486.58,846.52 L486.58,846.52 L514.6,846.52 C515.16,846.52 515.51,846.58 515.65,846.7 C515.79,846.82 515.86,847.16 515.86,847.72 L515.86,847.72 L515.86,857.92 C515.86,858.84 516.26,859.53 517.06,859.99 C517.86,860.45 518.78,860.68 519.82,860.68 Z" id="언제든가볍게지구산책"></path>
        </g>
    </g>
</svg>