<?xml version="1.0" encoding="UTF-8"?>
<svg width="287px" height="69px" viewBox="0 0 287 69" version="1.1" xmlns="http://www.w3.org/2000/svg" xmlns:xlink="http://www.w3.org/1999/xlink">
    <!-- Generator: Sketch 63.1 (92452) - https://sketch.com -->
    <title>왜우리는매번현재가격을비교할까요?</title>
    <desc>Created with Sketch.</desc>
    <g id="Page-1" stroke="none" stroke-width="1" fill="none" fill-rule="evenodd" fill-opacity="0.87">
        <g id="PC_서비스소개" transform="translate(-1513.000000, -73.000000)" fill="#000000" fill-rule="nonzero">
            <path d="M1594.004,99.088 C1594.48933,99.088 1594.89067,98.976 1595.208,98.752 C1595.52533,98.528 1595.684,98.1733333 1595.684,97.688 L1595.684,97.688 L1595.684,74.28 C1595.684,73.8693333 1595.52533,73.552 1595.208,73.328 C1594.89067,73.104 1594.48933,72.992 1594.004,72.992 C1593.51867,72.992 1593.11733,73.104 1592.8,73.328 C1592.48267,73.552 1592.324,73.8693333 1592.324,74.28 L1592.324,74.28 L1592.324,82.428 L1590.112,82.428 L1590.112,74.784 C1590.112,74.3733333 1589.958,74.0606667 1589.65,73.846 C1589.342,73.6313333 1588.94533,73.524 1588.46,73.524 C1587.97467,73.524 1587.56867,73.6313333 1587.242,73.846 C1586.91533,74.0606667 1586.752,74.3733333 1586.752,74.784 L1586.752,74.784 L1586.752,97.128 C1586.752,97.6133333 1586.91533,97.9633333 1587.242,98.178 C1587.56867,98.3926667 1587.97467,98.5 1588.46,98.5 C1588.94533,98.5 1589.342,98.3926667 1589.65,98.178 C1589.958,97.9633333 1590.112,97.6133333 1590.112,97.128 L1590.112,97.128 L1590.112,85.536 L1592.324,85.536 L1592.324,97.688 C1592.324,98.1733333 1592.48267,98.528 1592.8,98.752 C1593.11733,98.976 1593.51867,99.088 1594.004,99.088 Z M1578.156,92.956 C1578.772,92.956 1579.40667,92.9373333 1580.06,92.9 C1580.71333,92.8626667 1581.34333,92.8066667 1581.95,92.732 C1582.55667,92.6573333 1583.126,92.5733333 1583.658,92.48 C1584.19,92.3866667 1584.652,92.284 1585.044,92.172 C1585.41733,92.0786667 1585.66467,91.8686667 1585.786,91.542 C1585.90733,91.2153333 1585.93067,90.8373333 1585.856,90.408 C1585.8,89.9786667 1585.62733,89.6613333 1585.338,89.456 C1585.04867,89.2506667 1584.71733,89.1946667 1584.344,89.288 C1583.91467,89.4 1583.39667,89.5073333 1582.79,89.61 C1582.18333,89.7126667 1581.544,89.7733333 1580.872,89.792 L1580.872,89.792 L1580.872,86.18 C1582.25333,85.8626667 1583.336,85.2093333 1584.12,84.22 C1584.904,83.2306667 1585.296,82.008 1585.296,80.552 C1585.296,79.6746667 1585.14667,78.8766667 1584.848,78.158 C1584.54933,77.4393333 1584.12933,76.8233333 1583.588,76.31 C1583.04667,75.7966667 1582.38867,75.4 1581.614,75.12 C1580.83933,74.84 1579.976,74.7 1579.024,74.7 C1578.072,74.7 1577.20867,74.84 1576.434,75.12 C1575.65933,75.4 1575.00133,75.7966667 1574.46,76.31 C1573.91867,76.8233333 1573.49867,77.4393333 1573.2,78.158 C1572.90133,78.8766667 1572.752,79.6746667 1572.752,80.552 C1572.752,82.0453333 1573.16267,83.2913333 1573.984,84.29 C1574.80533,85.2886667 1575.944,85.9373333 1577.4,86.236 L1577.4,86.236 L1577.4,89.904 L1573.62,89.904 C1573.24667,89.904 1572.94333,90.044 1572.71,90.324 C1572.47667,90.604 1572.36,90.968 1572.36,91.416 C1572.36,91.9013333 1572.47667,92.2793333 1572.71,92.55 C1572.94333,92.8206667 1573.24667,92.956 1573.62,92.956 L1573.62,92.956 L1578.156,92.956 Z M1578.996,83.576 C1578.1,83.576 1577.39067,83.2866667 1576.868,82.708 C1576.34533,82.1293333 1576.084,81.4106667 1576.084,80.552 C1576.084,79.656 1576.34533,78.9233333 1576.868,78.354 C1577.39067,77.7846667 1578.1,77.5 1578.996,77.5 C1579.91067,77.5 1580.634,77.7846667 1581.166,78.354 C1581.698,78.9233333 1581.964,79.656 1581.964,80.552 C1581.964,81.4106667 1581.698,82.1293333 1581.166,82.708 C1580.634,83.2866667 1579.91067,83.576 1578.996,83.576 Z M1617.804,85.508 C1619.39067,85.508 1620.74867,85.3586667 1621.878,85.06 C1623.00733,84.7613333 1623.936,84.3506667 1624.664,83.828 C1625.392,83.3053333 1625.924,82.68 1626.26,81.952 C1626.596,81.224 1626.764,80.44 1626.764,79.6 C1626.764,78.76 1626.596,77.9806667 1626.26,77.262 C1625.924,76.5433333 1625.392,75.9273333 1624.664,75.414 C1623.936,74.9006667 1623.00733,74.4946667 1621.878,74.196 C1620.74867,73.8973333 1619.39067,73.748 1617.804,73.748 C1616.19867,73.748 1614.82667,73.8973333 1613.688,74.196 C1612.54933,74.4946667 1611.62067,74.9006667 1610.902,75.414 C1610.18333,75.9273333 1609.656,76.5433333 1609.32,77.262 C1608.984,77.9806667 1608.816,78.76 1608.816,79.6 C1608.816,80.44 1608.984,81.224 1609.32,81.952 C1609.656,82.68 1610.18333,83.3053333 1610.902,83.828 C1611.62067,84.3506667 1612.54933,84.7613333 1613.688,85.06 C1614.82667,85.3586667 1616.19867,85.508 1617.804,85.508 Z M1617.804,82.484 C1615.86267,82.484 1614.49533,82.218 1613.702,81.686 C1612.90867,81.154 1612.512,80.4586667 1612.512,79.6 C1612.512,79.1893333 1612.60533,78.8066667 1612.792,78.452 C1612.97867,78.0973333 1613.282,77.794 1613.702,77.542 C1614.122,77.29 1614.668,77.094 1615.34,76.954 C1616.012,76.814 1616.83333,76.744 1617.804,76.744 C1619.708,76.744 1621.06133,77.01 1621.864,77.542 C1622.66667,78.074 1623.068,78.76 1623.068,79.6 C1623.068,80.4586667 1622.66667,81.154 1621.864,81.686 C1621.06133,82.218 1619.708,82.484 1617.804,82.484 Z M1617.804,99.62 C1618.28933,99.62 1618.71867,99.508 1619.092,99.284 C1619.46533,99.06 1619.652,98.6866667 1619.652,98.164 L1619.652,98.164 L1619.652,90.52 L1628.78,90.52 C1629.172,90.52 1629.466,90.3753333 1629.662,90.086 C1629.858,89.7966667 1629.956,89.428 1629.956,88.98 C1629.956,88.5693333 1629.858,88.2193333 1629.662,87.93 C1629.466,87.6406667 1629.172,87.496 1628.78,87.496 L1628.78,87.496 L1606.772,87.496 C1606.39867,87.496 1606.114,87.6406667 1605.918,87.93 C1605.722,88.2193333 1605.624,88.5693333 1605.624,88.98 C1605.624,89.428 1605.722,89.7966667 1605.918,90.086 C1606.114,90.3753333 1606.39867,90.52 1606.772,90.52 L1606.772,90.52 L1615.928,90.52 L1615.928,98.164 C1615.928,98.6866667 1616.11,99.06 1616.474,99.284 C1616.838,99.508 1617.28133,99.62 1617.804,99.62 Z M1651.796,99.06 C1652.3,99.06 1652.72,98.9433333 1653.056,98.71 C1653.392,98.4766667 1653.56,98.108 1653.56,97.604 L1653.56,97.604 L1653.56,74.364 C1653.56,73.9346667 1653.38733,73.6033333 1653.042,73.37 C1652.69667,73.1366667 1652.28133,73.02 1651.796,73.02 C1651.27333,73.02 1650.844,73.1366667 1650.508,73.37 C1650.172,73.6033333 1650.004,73.9346667 1650.004,74.364 L1650.004,74.364 L1650.004,97.604 C1650.004,98.108 1650.172,98.4766667 1650.508,98.71 C1650.844,98.9433333 1651.27333,99.06 1651.796,99.06 Z M1637.628,92.62 C1638.636,92.62 1639.63467,92.592 1640.624,92.536 C1641.61333,92.48 1642.542,92.4053333 1643.41,92.312 C1644.278,92.2186667 1645.06667,92.1113333 1645.776,91.99 C1646.48533,91.8686667 1647.064,91.7426667 1647.512,91.612 C1647.75467,91.5373333 1647.95067,91.3926667 1648.1,91.178 C1648.24933,90.9633333 1648.324,90.6693333 1648.324,90.296 C1648.324,89.7733333 1648.20733,89.3766667 1647.974,89.106 C1647.74067,88.8353333 1647.44667,88.7 1647.092,88.7 C1647.01733,88.7 1646.93333,88.7093333 1646.84,88.728 C1645.776,88.9333333 1644.53933,89.12 1643.13,89.288 C1641.72067,89.456 1640.26,89.54 1638.748,89.54 L1638.748,89.54 L1637.32,89.54 C1636.984,89.54 1636.77867,89.4933333 1636.704,89.4 C1636.62933,89.3066667 1636.592,89.1013333 1636.592,88.784 L1636.592,88.784 L1636.592,85.592 C1636.592,85.3306667 1636.62933,85.1673333 1636.704,85.102 C1636.77867,85.0366667 1636.94667,85.004 1637.208,85.004 L1637.208,85.004 L1642.668,85.004 C1643.60133,85.004 1644.25467,84.7986667 1644.628,84.388 C1645.00133,83.9773333 1645.188,83.3146667 1645.188,82.4 L1645.188,82.4 L1645.188,77.528 C1645.188,76.5946667 1645.02467,75.932 1644.698,75.54 C1644.37133,75.148 1643.72267,74.952 1642.752,74.952 L1642.752,74.952 L1634.156,74.952 C1633.74533,74.952 1633.43267,75.106 1633.218,75.414 C1633.00333,75.722 1632.896,76.0813333 1632.896,76.492 C1632.896,76.8653333 1633.00333,77.2106667 1633.218,77.528 C1633.43267,77.8453333 1633.74533,78.004 1634.156,78.004 L1634.156,78.004 L1640.932,78.004 C1641.23067,78.004 1641.41267,78.046 1641.478,78.13 C1641.54333,78.214 1641.576,78.368 1641.576,78.592 L1641.576,78.592 L1641.576,81.532 C1641.576,81.7933333 1641.53867,81.966 1641.464,82.05 C1641.38933,82.134 1641.212,82.176 1640.932,82.176 L1640.932,82.176 L1635.696,82.176 C1634.688,82.176 1633.988,82.3393333 1633.596,82.666 C1633.204,82.9926667 1633.008,83.5946667 1633.008,84.472 L1633.008,84.472 L1633.008,89.512 C1633.008,90.5946667 1633.19933,91.3693333 1633.582,91.836 C1633.96467,92.3026667 1634.66,92.5546667 1635.668,92.592 C1636.004,92.6106667 1636.33533,92.62 1636.662,92.62 L1636.662,92.62 L1637.628,92.62 Z M1677.192,83.436 C1677.62133,83.436 1677.934,83.3006667 1678.13,83.03 C1678.326,82.7593333 1678.424,82.4 1678.424,81.952 C1678.424,81.5226667 1678.326,81.1726667 1678.13,80.902 C1677.934,80.6313333 1677.62133,80.496 1677.192,80.496 L1677.192,80.496 L1665.18,80.496 C1664.91867,80.496 1664.746,80.4586667 1664.662,80.384 C1664.578,80.3093333 1664.536,80.132 1664.536,79.852 L1664.536,79.852 L1664.536,74.84 C1664.536,74.4106667 1664.354,74.0886667 1663.99,73.874 C1663.626,73.6593333 1663.18267,73.552 1662.66,73.552 C1662.17467,73.552 1661.75,73.6593333 1661.386,73.874 C1661.022,74.0886667 1660.84,74.4106667 1660.84,74.84 L1660.84,74.84 L1660.84,81.028 C1660.84,81.532 1660.88667,81.9426667 1660.98,82.26 C1661.07333,82.5773333 1661.22733,82.8246667 1661.442,83.002 C1661.65667,83.1793333 1661.92733,83.296 1662.254,83.352 C1662.58067,83.408 1662.98667,83.436 1663.472,83.436 L1663.472,83.436 L1677.192,83.436 Z M1680.412,88.84 C1680.78533,88.84 1681.06533,88.686 1681.252,88.378 C1681.43867,88.07 1681.532,87.7293333 1681.532,87.356 C1681.532,87.0013333 1681.43867,86.6653333 1681.252,86.348 C1681.06533,86.0306667 1680.78533,85.872 1680.412,85.872 L1680.412,85.872 L1658.292,85.872 C1657.91867,85.872 1657.64333,86.0306667 1657.466,86.348 C1657.28867,86.6653333 1657.2,87.0013333 1657.2,87.356 C1657.2,87.7293333 1657.28867,88.07 1657.466,88.378 C1657.64333,88.686 1657.91867,88.84 1658.292,88.84 L1658.292,88.84 L1680.412,88.84 Z M1677.416,99.172 C1677.84533,99.172 1678.14867,99.0273333 1678.326,98.738 C1678.50333,98.4486667 1678.592,98.0893333 1678.592,97.66 C1678.592,97.2306667 1678.50333,96.876 1678.326,96.596 C1678.14867,96.316 1677.84533,96.176 1677.416,96.176 L1677.416,96.176 L1665.152,96.176 C1664.872,96.176 1664.69467,96.1386667 1664.62,96.064 C1664.54533,95.9893333 1664.508,95.8213333 1664.508,95.56 L1664.508,95.56 L1664.508,92.144 C1664.508,91.696 1664.32133,91.36 1663.948,91.136 C1663.57467,90.912 1663.14533,90.8 1662.66,90.8 C1662.156,90.8 1661.71733,90.912 1661.344,91.136 C1660.97067,91.36 1660.784,91.696 1660.784,92.144 L1660.784,92.144 L1660.784,96.792 C1660.784,97.3146667 1660.83067,97.7346667 1660.924,98.052 C1661.01733,98.3693333 1661.16667,98.612 1661.372,98.78 C1661.57733,98.948 1661.84333,99.0553333 1662.17,99.102 C1662.49667,99.1486667 1662.90267,99.172 1663.388,99.172 L1663.388,99.172 L1677.416,99.172 Z M1711.716,99.06 C1712.23867,99.06 1712.66333,98.948 1712.99,98.724 C1713.31667,98.5 1713.48,98.1453333 1713.48,97.66 L1713.48,97.66 L1713.48,74.28 C1713.48,73.888 1713.312,73.5753333 1712.976,73.342 C1712.64,73.1086667 1712.22,72.992 1711.716,72.992 C1711.23067,72.992 1710.82933,73.1086667 1710.512,73.342 C1710.19467,73.5753333 1710.036,73.888 1710.036,74.28 L1710.036,74.28 L1710.036,82.204 L1707.6,82.204 L1707.6,74.784 C1707.6,74.3733333 1707.432,74.0606667 1707.096,73.846 C1706.76,73.6313333 1706.34933,73.524 1705.864,73.524 C1705.37867,73.524 1704.968,73.6313333 1704.632,73.846 C1704.296,74.0606667 1704.128,74.3733333 1704.128,74.784 L1704.128,74.784 L1704.128,97.128 C1704.128,97.6133333 1704.29133,97.9633333 1704.618,98.178 C1704.94467,98.3926667 1705.36,98.5 1705.864,98.5 C1706.368,98.5 1706.78333,98.3926667 1707.11,98.178 C1707.43667,97.9633333 1707.6,97.6133333 1707.6,97.128 L1707.6,97.128 L1707.6,85.508 L1710.036,85.508 L1710.036,97.66 C1710.036,98.1453333 1710.19467,98.5 1710.512,98.724 C1710.82933,98.948 1711.23067,99.06 1711.716,99.06 Z M1699.396,91.836 C1700.46,91.836 1701.174,91.626 1701.538,91.206 C1701.902,90.786 1702.084,90.0626667 1702.084,89.036 L1702.084,89.036 L1702.084,78.284 C1702.084,77.276 1701.89733,76.562 1701.524,76.142 C1701.15067,75.722 1700.44133,75.512 1699.396,75.512 L1699.396,75.512 L1693.768,75.512 C1693.208,75.512 1692.75067,75.5726667 1692.396,75.694 C1692.04133,75.8153333 1691.766,76.002 1691.57,76.254 C1691.374,76.506 1691.24333,76.828 1691.178,77.22 C1691.11267,77.612 1691.08,78.088 1691.08,78.648 L1691.08,78.648 L1691.08,89.036 C1691.08,90.0626667 1691.26667,90.786 1691.64,91.206 C1692.01333,91.626 1692.72267,91.836 1693.768,91.836 L1693.768,91.836 L1699.396,91.836 Z M1697.912,88.952 L1695.28,88.952 C1695,88.952 1694.82267,88.9053333 1694.748,88.812 C1694.67333,88.7186667 1694.636,88.5413333 1694.636,88.28 L1694.636,88.28 L1694.636,79.04 C1694.636,78.7786667 1694.67333,78.6013333 1694.748,78.508 C1694.82267,78.4146667 1695,78.368 1695.28,78.368 L1695.28,78.368 L1697.912,78.368 C1698.17333,78.368 1698.346,78.4146667 1698.43,78.508 C1698.514,78.6013333 1698.556,78.7786667 1698.556,79.04 L1698.556,79.04 L1698.556,88.28 C1698.556,88.5413333 1698.514,88.7186667 1698.43,88.812 C1698.346,88.9053333 1698.17333,88.952 1697.912,88.952 L1697.912,88.952 Z M1736.776,92.256 C1737.29867,92.256 1737.728,92.1346667 1738.064,91.892 C1738.4,91.6493333 1738.568,91.276 1738.568,90.772 L1738.568,90.772 L1738.568,74.336 C1738.568,73.9066667 1738.39067,73.5753333 1738.036,73.342 C1737.68133,73.1086667 1737.26133,72.992 1736.776,72.992 C1736.29067,72.992 1735.87533,73.1086667 1735.53,73.342 C1735.18467,73.5753333 1735.012,73.9066667 1735.012,74.336 L1735.012,74.336 L1735.012,79.376 L1730.364,79.376 L1730.364,75.708 C1730.364,75.2786667 1730.19133,74.966 1729.846,74.77 C1729.50067,74.574 1729.06667,74.476 1728.544,74.476 C1728.096,74.476 1727.69933,74.574 1727.354,74.77 C1727.00867,74.966 1726.836,75.2786667 1726.836,75.708 L1726.836,75.708 L1726.836,78.592 L1721.096,78.592 L1721.096,75.708 C1721.096,75.2786667 1720.914,74.966 1720.55,74.77 C1720.186,74.574 1719.752,74.476 1719.248,74.476 C1718.8,74.476 1718.39867,74.574 1718.044,74.77 C1717.68933,74.966 1717.512,75.2786667 1717.512,75.708 L1717.512,75.708 L1717.512,85.34 C1717.512,86.2546667 1717.708,86.8706667 1718.1,87.188 C1718.492,87.5053333 1719.18267,87.664 1720.172,87.664 L1720.172,87.664 L1727.704,87.664 C1728.17067,87.664 1728.57667,87.6313333 1728.922,87.566 C1729.26733,87.5006667 1729.54267,87.3793333 1729.748,87.202 C1729.95333,87.0246667 1730.10733,86.7866667 1730.21,86.488 C1730.31267,86.1893333 1730.364,85.8066667 1730.364,85.34 L1730.364,85.34 L1730.364,82.4 L1735.012,82.4 L1735.012,90.772 C1735.012,91.276 1735.18,91.6493333 1735.516,91.892 C1735.852,92.1346667 1736.272,92.256 1736.776,92.256 Z M1726.108,84.808 L1721.74,84.808 C1721.46,84.808 1721.28267,84.78 1721.208,84.724 C1721.13333,84.668 1721.096,84.4813333 1721.096,84.164 L1721.096,84.164 L1721.096,81.364 L1726.836,81.364 L1726.836,84.108 C1726.836,84.4253333 1726.794,84.6213333 1726.71,84.696 C1726.626,84.7706667 1726.42533,84.808 1726.108,84.808 L1726.108,84.808 Z M1738.176,99.228 C1738.60533,99.228 1738.918,99.0833333 1739.114,98.794 C1739.31,98.5046667 1739.408,98.1453333 1739.408,97.716 C1739.408,97.2866667 1739.31,96.9273333 1739.114,96.638 C1738.918,96.3486667 1738.60533,96.204 1738.176,96.204 L1738.176,96.204 L1725.66,96.204 C1725.38,96.204 1725.20267,96.1713333 1725.128,96.106 C1725.05333,96.0406667 1725.016,95.8773333 1725.016,95.616 L1725.016,95.616 L1725.016,91.192 C1725.016,90.7626667 1724.834,90.436 1724.47,90.212 C1724.106,89.988 1723.672,89.876 1723.168,89.876 C1722.664,89.876 1722.22533,89.988 1721.852,90.212 C1721.47867,90.436 1721.292,90.7626667 1721.292,91.192 L1721.292,91.192 L1721.292,96.736 C1721.292,97.2586667 1721.34333,97.6833333 1721.446,98.01 C1721.54867,98.3366667 1721.70733,98.5886667 1721.922,98.766 C1722.13667,98.9433333 1722.412,99.0646667 1722.748,99.13 C1723.084,99.1953333 1723.48533,99.228 1723.952,99.228 L1723.952,99.228 L1738.176,99.228 Z M1533.314,135.376 C1533.83667,135.376 1534.266,135.259333 1534.602,135.026 C1534.938,134.792667 1535.106,134.414667 1535.106,133.892 L1535.106,133.892 L1535.106,116.336 C1535.106,115.906667 1534.92867,115.575333 1534.574,115.342 C1534.21933,115.108667 1533.79933,114.992 1533.314,114.992 C1532.82867,114.992 1532.41333,115.108667 1532.068,115.342 C1531.72267,115.575333 1531.55,115.906667 1531.55,116.336 L1531.55,116.336 L1531.55,122.468 L1529.002,122.468 C1528.57267,122.468 1528.274,122.603333 1528.106,122.874 C1527.938,123.144667 1527.854,123.494667 1527.854,123.924 C1527.854,124.353333 1527.938,124.703333 1528.106,124.974 C1528.274,125.244667 1528.57267,125.38 1529.002,125.38 L1529.002,125.38 L1531.55,125.38 L1531.55,127.564 L1529.002,127.564 C1528.59133,127.564 1528.29733,127.699333 1528.12,127.97 C1527.94267,128.240667 1527.854,128.590667 1527.854,129.02 C1527.854,129.449333 1527.94267,129.799333 1528.12,130.07 C1528.29733,130.340667 1528.59133,130.476 1529.002,130.476 L1529.002,130.476 L1531.55,130.476 L1531.55,133.892 C1531.55,134.414667 1531.718,134.792667 1532.054,135.026 C1532.39,135.259333 1532.81,135.376 1533.314,135.376 Z M1523.514,118.548 C1523.94333,118.548 1524.25133,118.403333 1524.438,118.114 C1524.62467,117.824667 1524.718,117.484 1524.718,117.092 C1524.718,116.718667 1524.62,116.392 1524.424,116.112 C1524.228,115.832 1523.92467,115.692 1523.514,115.692 L1523.514,115.692 L1517.662,115.692 C1517.25133,115.692 1516.95267,115.832 1516.766,116.112 C1516.57933,116.392 1516.486,116.718667 1516.486,117.092 C1516.486,117.484 1516.57467,117.824667 1516.752,118.114 C1516.92933,118.403333 1517.23267,118.548 1517.662,118.548 L1517.662,118.548 L1523.514,118.548 Z M1526.65,122.944 C1527.07933,122.944 1527.38733,122.799333 1527.574,122.51 C1527.76067,122.220667 1527.854,121.88 1527.854,121.488 C1527.854,121.114667 1527.756,120.783333 1527.56,120.494 C1527.364,120.204667 1527.06067,120.06 1526.65,120.06 L1526.65,120.06 L1514.19,120.06 C1513.77933,120.06 1513.476,120.2 1513.28,120.48 C1513.084,120.76 1512.986,121.096 1512.986,121.488 C1512.986,121.88 1513.07933,122.220667 1513.266,122.51 C1513.45267,122.799333 1513.76067,122.944 1514.19,122.944 L1514.19,122.944 L1526.65,122.944 Z M1520.714,132.492 C1522.69267,132.492 1524.20467,132.1 1525.25,131.316 C1526.29533,130.532 1526.818,129.496 1526.818,128.208 C1526.818,126.901333 1526.29533,125.860667 1525.25,125.086 C1524.20467,124.311333 1522.69267,123.924 1520.714,123.924 C1518.71667,123.924 1517.19067,124.311333 1516.136,125.086 C1515.08133,125.860667 1514.554,126.901333 1514.554,128.208 C1514.554,129.496 1515.08133,130.532 1516.136,131.316 C1517.19067,132.1 1518.71667,132.492 1520.714,132.492 Z M1520.714,130.168 C1519.78067,130.168 1519.07133,129.976667 1518.586,129.594 C1518.10067,129.211333 1517.858,128.749333 1517.858,128.208 C1517.858,127.666667 1518.10067,127.204667 1518.586,126.822 C1519.07133,126.439333 1519.78067,126.248 1520.714,126.248 C1521.62867,126.248 1522.32867,126.439333 1522.814,126.822 C1523.29933,127.204667 1523.542,127.666667 1523.542,128.208 C1523.542,128.749333 1523.29933,129.211333 1522.814,129.594 C1522.32867,129.976667 1521.62867,130.168 1520.714,130.168 Z M1534.686,141.452 C1535.11533,141.452 1535.428,141.302667 1535.624,141.004 C1535.82,140.705333 1535.918,140.350667 1535.918,139.94 C1535.918,139.510667 1535.82,139.151333 1535.624,138.862 C1535.428,138.572667 1535.11533,138.428 1534.686,138.428 L1534.686,138.428 L1522.002,138.428 C1521.70333,138.428 1521.51667,138.395333 1521.442,138.33 C1521.36733,138.264667 1521.33,138.101333 1521.33,137.84 L1521.33,137.84 L1521.33,134.928 C1521.33,134.498667 1521.148,134.167333 1520.784,133.934 C1520.42,133.700667 1519.99533,133.584 1519.51,133.584 C1519.006,133.584 1518.56733,133.700667 1518.194,133.934 C1517.82067,134.167333 1517.634,134.498667 1517.634,134.928 L1517.634,134.928 L1517.634,138.932 C1517.634,139.454667 1517.68533,139.879333 1517.788,140.206 C1517.89067,140.532667 1518.04933,140.789333 1518.264,140.976 C1518.47867,141.162667 1518.754,141.288667 1519.09,141.354 C1519.426,141.419333 1519.83667,141.452 1520.322,141.452 L1520.322,141.452 L1534.686,141.452 Z M1559.858,141.088 C1560.362,141.088 1560.77733,140.976 1561.104,140.752 C1561.43067,140.528 1561.594,140.173333 1561.594,139.688 L1561.594,139.688 L1561.594,116.28 C1561.594,115.869333 1561.426,115.552 1561.09,115.328 C1560.754,115.104 1560.34333,114.992 1559.858,114.992 C1559.37267,114.992 1558.96667,115.104 1558.64,115.328 C1558.31333,115.552 1558.15,115.869333 1558.15,116.28 L1558.15,116.28 L1558.15,124.204 L1555.686,124.204 L1555.686,116.784 C1555.686,116.373333 1555.52267,116.060667 1555.196,115.846 C1554.86933,115.631333 1554.46333,115.524 1553.978,115.524 C1553.474,115.524 1553.05867,115.631333 1552.732,115.846 C1552.40533,116.060667 1552.242,116.373333 1552.242,116.784 L1552.242,116.784 L1552.242,139.128 C1552.242,139.613333 1552.40067,139.963333 1552.718,140.178 C1553.03533,140.392667 1553.45533,140.5 1553.978,140.5 C1554.46333,140.5 1554.86933,140.392667 1555.196,140.178 C1555.52267,139.963333 1555.686,139.613333 1555.686,139.128 L1555.686,139.128 L1555.686,127.312 L1558.15,127.312 L1558.15,139.688 C1558.15,140.173333 1558.30867,140.528 1558.626,140.752 C1558.94333,140.976 1559.354,141.088 1559.858,141.088 Z M1539.838,135.082 C1540.23,135.203333 1540.64067,135.124 1541.07,134.844 C1541.518,134.564 1541.94267,134.218667 1542.344,133.808 C1542.74533,133.397333 1543.114,132.949333 1543.45,132.464 C1543.786,131.978667 1544.08,131.465333 1544.332,130.924 C1544.584,130.382667 1544.78467,129.841333 1544.934,129.3 C1545.102,129.86 1545.32133,130.401333 1545.592,130.924 C1545.86267,131.446667 1546.17067,131.936667 1546.516,132.394 C1546.86133,132.851333 1547.23467,133.266667 1547.636,133.64 C1548.03733,134.013333 1548.434,134.330667 1548.826,134.592 C1549.162,134.816 1549.53067,134.904667 1549.932,134.858 C1550.33333,134.811333 1550.674,134.610667 1550.954,134.256 C1551.234,133.901333 1551.36933,133.5 1551.36,133.052 C1551.35067,132.604 1551.16867,132.24 1550.814,131.96 C1550.21667,131.512 1549.666,131.003333 1549.162,130.434 C1548.658,129.864667 1548.224,129.197333 1547.86,128.432 C1547.496,127.666667 1547.21133,126.78 1547.006,125.772 C1546.80067,124.764 1546.698,123.616 1546.698,122.328 L1546.698,122.328 L1546.698,120.452 L1549.834,120.452 C1550.26333,120.452 1550.57133,120.298 1550.758,119.99 C1550.94467,119.682 1551.038,119.322667 1551.038,118.912 C1551.038,118.52 1550.94,118.179333 1550.744,117.89 C1550.548,117.600667 1550.24467,117.456 1549.834,117.456 L1549.834,117.456 L1539.978,117.456 C1539.586,117.456 1539.292,117.596 1539.096,117.876 C1538.9,118.156 1538.802,118.501333 1538.802,118.912 C1538.802,119.322667 1538.89067,119.682 1539.068,119.99 C1539.24533,120.298 1539.54867,120.452 1539.978,120.452 L1539.978,120.452 L1543.198,120.452 L1543.198,122.384 C1543.198,123.709333 1543.09533,124.871333 1542.89,125.87 C1542.68467,126.868667 1542.4,127.755333 1542.036,128.53 C1541.672,129.304667 1541.23333,129.990667 1540.72,130.588 C1540.20667,131.185333 1539.65133,131.745333 1539.054,132.268 C1538.718,132.585333 1538.55,132.954 1538.55,133.374 C1538.55,133.794 1538.67133,134.162667 1538.914,134.48 C1539.138,134.76 1539.446,134.960667 1539.838,135.082 Z M1590.742,141.06 C1591.26467,141.06 1591.694,140.943333 1592.03,140.71 C1592.366,140.476667 1592.534,140.108 1592.534,139.604 L1592.534,139.604 L1592.534,127.06 L1595.558,127.06 C1595.98733,127.06 1596.29067,126.910667 1596.468,126.612 C1596.64533,126.313333 1596.734,125.949333 1596.734,125.52 C1596.734,125.090667 1596.64533,124.731333 1596.468,124.442 C1596.29067,124.152667 1595.98733,124.008 1595.558,124.008 L1595.558,124.008 L1592.534,124.008 L1592.534,116.364 C1592.534,115.934667 1592.366,115.603333 1592.03,115.37 C1591.694,115.136667 1591.26467,115.02 1590.742,115.02 C1590.25667,115.02 1589.846,115.136667 1589.51,115.37 C1589.174,115.603333 1589.006,115.934667 1589.006,116.364 L1589.006,116.364 L1589.006,139.604 C1589.006,140.108 1589.16933,140.476667 1589.496,140.71 C1589.82267,140.943333 1590.238,141.06 1590.742,141.06 Z M1573.886,135.012 C1574.14733,135.012 1574.446,134.937333 1574.782,134.788 C1578.254,133.332 1580.89067,131.358 1582.692,128.866 C1584.49333,126.374 1585.394,123.289333 1585.394,119.612 C1585.394,119.108 1585.352,118.697333 1585.268,118.38 C1585.184,118.062667 1585.044,117.810667 1584.848,117.624 C1584.652,117.437333 1584.39533,117.311333 1584.078,117.246 C1583.76067,117.180667 1583.378,117.148 1582.93,117.148 L1582.93,117.148 L1573.942,117.148 C1573.56867,117.148 1573.27,117.292667 1573.046,117.582 C1572.822,117.871333 1572.71,118.230667 1572.71,118.66 C1572.71,119.126667 1572.822,119.5 1573.046,119.78 C1573.27,120.06 1573.56867,120.2 1573.942,120.2 L1573.942,120.2 L1580.914,120.2 C1581.21267,120.2 1581.40867,120.246667 1581.502,120.34 C1581.59533,120.433333 1581.642,120.610667 1581.642,120.872 C1581.642,122.197333 1581.43667,123.410667 1581.026,124.512 C1580.61533,125.613333 1580.032,126.612 1579.276,127.508 C1578.52,128.404 1577.61,129.211333 1576.546,129.93 C1575.482,130.648667 1574.29667,131.288 1572.99,131.848 C1572.78467,131.941333 1572.612,132.109333 1572.472,132.352 C1572.332,132.594667 1572.262,132.865333 1572.262,133.164 C1572.262,133.724 1572.43933,134.172 1572.794,134.508 C1573.14867,134.844 1573.51267,135.012 1573.886,135.012 Z M1618.098,130.532 C1618.62067,130.532 1619.04533,130.415333 1619.372,130.182 C1619.69867,129.948667 1619.862,129.570667 1619.862,129.048 L1619.862,129.048 L1619.862,116.336 C1619.862,115.906667 1619.68933,115.58 1619.344,115.356 C1618.99867,115.132 1618.58333,115.02 1618.098,115.02 C1617.61267,115.02 1617.19733,115.132 1616.852,115.356 C1616.50667,115.58 1616.334,115.906667 1616.334,116.336 L1616.334,116.336 L1616.334,118.996 L1611.462,118.996 C1611.462,118.921333 1611.46667,118.851333 1611.476,118.786 C1611.48533,118.720667 1611.49,118.641333 1611.49,118.548 C1611.49,117.764 1611.322,117.222667 1610.986,116.924 C1610.65,116.625333 1610.04333,116.476 1609.166,116.476 L1609.166,116.476 L1600.178,116.476 C1599.786,116.476 1599.492,116.620667 1599.296,116.91 C1599.1,117.199333 1599.002,117.558667 1599.002,117.988 C1599.002,118.436 1599.1,118.804667 1599.296,119.094 C1599.492,119.383333 1599.786,119.528 1600.178,119.528 L1600.178,119.528 L1606.898,119.528 C1607.19667,119.528 1607.39267,119.560667 1607.486,119.626 C1607.57933,119.691333 1607.626,119.798667 1607.626,119.948 C1607.626,120.844 1607.41133,121.665333 1606.982,122.412 C1606.55267,123.158667 1605.96467,123.830667 1605.218,124.428 C1604.47133,125.025333 1603.594,125.548 1602.586,125.996 C1601.578,126.444 1600.49533,126.808 1599.338,127.088 C1599.03933,127.162667 1598.81067,127.321333 1598.652,127.564 C1598.49333,127.806667 1598.414,128.086667 1598.414,128.404 C1598.414,128.945333 1598.57267,129.384 1598.89,129.72 C1599.20733,130.056 1599.55267,130.224 1599.926,130.224 C1600.094,130.224 1600.28067,130.196 1600.486,130.14 C1601.73667,129.841333 1602.922,129.444667 1604.042,128.95 C1605.162,128.455333 1606.17467,127.862667 1607.08,127.172 C1607.98533,126.481333 1608.76467,125.702 1609.418,124.834 C1610.07133,123.966 1610.57533,123.009333 1610.93,121.964 L1610.93,121.964 L1616.334,121.964 L1616.334,124.372 L1611.854,124.372 C1611.42467,124.372 1611.12133,124.507333 1610.944,124.778 C1610.76667,125.048667 1610.678,125.398667 1610.678,125.828 C1610.678,126.276 1610.76667,126.635333 1610.944,126.906 C1611.12133,127.176667 1611.42467,127.312 1611.854,127.312 L1611.854,127.312 L1616.334,127.312 L1616.334,129.048 C1616.334,129.533333 1616.49267,129.902 1616.81,130.154 C1617.12733,130.406 1617.55667,130.532 1618.098,130.532 Z M1618.042,141.956 C1618.50867,141.956 1618.92867,141.844 1619.302,141.62 C1619.67533,141.396 1619.862,141.069333 1619.862,140.64 L1619.862,140.64 L1619.862,134.2 C1619.862,133.210667 1619.66133,132.543333 1619.26,132.198 C1618.85867,131.852667 1618.182,131.68 1617.23,131.68 L1617.23,131.68 L1603.23,131.68 C1602.80067,131.68 1602.48333,131.824667 1602.278,132.114 C1602.07267,132.403333 1601.97,132.762667 1601.97,133.192 C1601.97,133.621333 1602.07267,133.976 1602.278,134.256 C1602.48333,134.536 1602.80067,134.676 1603.23,134.676 L1603.23,134.676 L1615.606,134.676 C1615.86733,134.676 1616.03067,134.704 1616.096,134.76 C1616.16133,134.816 1616.194,134.974667 1616.194,135.236 L1616.194,135.236 L1616.194,140.64 C1616.194,141.069333 1616.38067,141.396 1616.754,141.62 C1617.12733,141.844 1617.55667,141.956 1618.042,141.956 Z M1635.486,124.54 C1637.09133,124.54 1638.46333,124.428 1639.602,124.204 C1640.74067,123.98 1641.674,123.667333 1642.402,123.266 C1643.13,122.864667 1643.662,122.379333 1643.998,121.81 C1644.334,121.240667 1644.502,120.610667 1644.502,119.92 C1644.502,119.229333 1644.334,118.599333 1643.998,118.03 C1643.662,117.460667 1643.13,116.970667 1642.402,116.56 C1641.674,116.149333 1640.74067,115.836667 1639.602,115.622 C1638.46333,115.407333 1637.09133,115.3 1635.486,115.3 C1633.88067,115.3 1632.50867,115.407333 1631.37,115.622 C1630.23133,115.836667 1629.298,116.149333 1628.57,116.56 C1627.842,116.970667 1627.30533,117.460667 1626.96,118.03 C1626.61467,118.599333 1626.442,119.229333 1626.442,119.92 C1626.442,120.610667 1626.61467,121.240667 1626.96,121.81 C1627.30533,122.379333 1627.842,122.864667 1628.57,123.266 C1629.298,123.667333 1630.23133,123.98 1631.37,124.204 C1632.50867,124.428 1633.88067,124.54 1635.486,124.54 Z M1635.486,121.824 C1633.582,121.824 1632.22867,121.656 1631.426,121.32 C1630.62333,120.984 1630.222,120.517333 1630.222,119.92 C1630.222,119.304 1630.62333,118.823333 1631.426,118.478 C1632.22867,118.132667 1633.582,117.96 1635.486,117.96 C1637.40867,117.96 1638.762,118.132667 1639.546,118.478 C1640.33,118.823333 1640.722,119.304 1640.722,119.92 C1640.722,120.517333 1640.33,120.984 1639.546,121.32 C1638.762,121.656 1637.40867,121.824 1635.486,121.824 Z M1646.518,128.684 C1646.89133,128.684 1647.17133,128.544 1647.358,128.264 C1647.54467,127.984 1647.638,127.657333 1647.638,127.284 C1647.638,126.910667 1647.54467,126.579333 1647.358,126.29 C1647.17133,126.000667 1646.89133,125.856 1646.518,125.856 L1646.518,125.856 L1624.398,125.856 C1624.02467,125.856 1623.74933,126.000667 1623.572,126.29 C1623.39467,126.579333 1623.306,126.910667 1623.306,127.284 C1623.306,127.657333 1623.39467,127.984 1623.572,128.264 C1623.74933,128.544 1624.02467,128.684 1624.398,128.684 L1624.398,128.684 L1646.518,128.684 Z M1644.082,141.76 C1644.474,141.76 1644.76333,141.62 1644.95,141.34 C1645.13667,141.06 1645.23,140.705333 1645.23,140.276 C1645.23,139.865333 1645.13667,139.529333 1644.95,139.268 C1644.76333,139.006667 1644.474,138.876 1644.082,138.876 L1644.082,138.876 L1630.95,138.876 C1630.70733,138.876 1630.558,138.852667 1630.502,138.806 C1630.446,138.759333 1630.418,138.642667 1630.418,138.456 L1630.418,138.456 L1630.418,137.672 C1630.418,137.485333 1630.446,137.368667 1630.502,137.322 C1630.558,137.275333 1630.70733,137.252 1630.95,137.252 L1630.95,137.252 L1641.842,137.252 C1642.738,137.252 1643.354,137.056 1643.69,136.664 C1644.026,136.272 1644.194,135.674667 1644.194,134.872 L1644.194,134.872 L1644.194,132.632 C1644.194,131.885333 1644.026,131.320667 1643.69,130.938 C1643.354,130.555333 1642.738,130.364 1641.842,130.364 L1641.842,130.364 L1627.73,130.364 C1627.35667,130.364 1627.072,130.494667 1626.876,130.756 C1626.68,131.017333 1626.582,131.362667 1626.582,131.792 C1626.582,132.202667 1626.68,132.538667 1626.876,132.8 C1627.072,133.061333 1627.35667,133.192 1627.73,133.192 L1627.73,133.192 L1639.938,133.192 C1640.19933,133.192 1640.35333,133.215333 1640.4,133.262 C1640.44667,133.308667 1640.47,133.416 1640.47,133.584 L1640.47,133.584 L1640.47,134.34 C1640.47,134.526667 1640.442,134.638667 1640.386,134.676 C1640.33,134.713333 1640.18067,134.732 1639.938,134.732 L1639.938,134.732 L1628.85,134.732 C1628.01,134.732 1627.44067,134.909333 1627.142,135.264 C1626.84333,135.618667 1626.694,136.150667 1626.694,136.86 L1626.694,136.86 L1626.694,139.408 C1626.694,140.304 1626.90867,140.92 1627.338,141.256 C1627.76733,141.592 1628.458,141.76 1629.41,141.76 L1629.41,141.76 L1644.082,141.76 Z M1676.898,141.06 C1677.402,141.06 1677.822,140.943333 1678.158,140.71 C1678.494,140.476667 1678.662,140.108 1678.662,139.604 L1678.662,139.604 L1678.662,116.364 C1678.662,115.934667 1678.48933,115.603333 1678.144,115.37 C1677.79867,115.136667 1677.38333,115.02 1676.898,115.02 C1676.37533,115.02 1675.946,115.136667 1675.61,115.37 C1675.274,115.603333 1675.106,115.934667 1675.106,116.364 L1675.106,116.364 L1675.106,139.604 C1675.106,140.108 1675.274,140.476667 1675.61,140.71 C1675.946,140.943333 1676.37533,141.06 1676.898,141.06 Z M1668.358,133.864 C1669.32867,133.864 1670.01933,133.677333 1670.43,133.304 C1670.84067,132.930667 1671.046,132.286667 1671.046,131.372 L1671.046,131.372 L1671.046,117.68 C1671.046,117.250667 1670.86867,116.928667 1670.514,116.714 C1670.15933,116.499333 1669.73933,116.392 1669.254,116.392 C1668.78733,116.392 1668.38133,116.499333 1668.036,116.714 C1667.69067,116.928667 1667.518,117.250667 1667.518,117.68 L1667.518,117.68 L1667.518,122.524 L1661.666,122.524 L1661.666,117.68 C1661.666,117.250667 1661.49333,116.933333 1661.148,116.728 C1660.80267,116.522667 1660.378,116.42 1659.874,116.42 C1659.426,116.42 1659.02467,116.522667 1658.67,116.728 C1658.31533,116.933333 1658.138,117.250667 1658.138,117.68 L1658.138,117.68 L1658.138,131.344 C1658.138,132.277333 1658.32467,132.930667 1658.698,133.304 C1659.07133,133.677333 1659.762,133.864 1660.77,133.864 L1660.77,133.864 L1668.358,133.864 Z M1666.846,130.924 L1662.282,130.924 C1662.02067,130.924 1661.85267,130.891333 1661.778,130.826 C1661.70333,130.760667 1661.666,130.569333 1661.666,130.252 L1661.666,130.252 L1661.666,125.352 L1667.518,125.352 L1667.518,130.224 C1667.518,130.541333 1667.48533,130.737333 1667.42,130.812 C1667.35467,130.886667 1667.16333,130.924 1666.846,130.924 L1666.846,130.924 Z M1701.202,131.008 C1701.57533,131.008 1701.902,130.914667 1702.182,130.728 C1702.462,130.541333 1702.67667,130.233333 1702.826,129.804 C1702.994,129.337333 1703.13867,128.81 1703.26,128.222 C1703.38133,127.634 1703.484,127.018 1703.568,126.374 C1703.652,125.73 1703.71267,125.072 1703.75,124.4 C1703.78733,123.728 1703.806,123.074667 1703.806,122.44 L1703.806,122.44 L1703.806,119.612 C1703.806,118.734667 1703.61,118.109333 1703.218,117.736 C1702.826,117.362667 1702.14467,117.176 1701.174,117.176 L1701.174,117.176 L1686.39,117.176 C1685.96067,117.176 1685.648,117.320667 1685.452,117.61 C1685.256,117.899333 1685.158,118.268 1685.158,118.716 C1685.158,119.145333 1685.256,119.514 1685.452,119.822 C1685.648,120.13 1685.96067,120.284 1686.39,120.284 L1686.39,120.284 L1699.438,120.284 C1699.73667,120.284 1699.91867,120.330667 1699.984,120.424 C1700.04933,120.517333 1700.082,120.694667 1700.082,120.956 L1700.082,120.956 L1700.082,122.888 C1700.082,123.952 1700.02133,125.039333 1699.9,126.15 C1699.77867,127.260667 1699.606,128.236 1699.382,129.076 C1699.36333,129.169333 1699.34933,129.248667 1699.34,129.314 C1699.33067,129.379333 1699.326,129.449333 1699.326,129.524 C1699.326,129.972 1699.49867,130.331333 1699.844,130.602 C1700.18933,130.872667 1700.642,131.008 1701.202,131.008 Z M1705.458,137.42 C1705.85,137.42 1706.144,137.275333 1706.34,136.986 C1706.536,136.696667 1706.634,136.328 1706.634,135.88 C1706.634,135.450667 1706.536,135.091333 1706.34,134.802 C1706.144,134.512667 1705.85,134.368 1705.458,134.368 L1705.458,134.368 L1697.618,134.368 L1697.618,127.088 C1697.618,126.658667 1697.44067,126.341333 1697.086,126.136 C1696.73133,125.930667 1696.31133,125.828 1695.826,125.828 C1695.34067,125.828 1694.92067,125.930667 1694.566,126.136 C1694.21133,126.341333 1694.034,126.658667 1694.034,127.088 L1694.034,127.088 L1694.034,134.368 L1691.458,134.368 L1691.458,127.088 C1691.458,126.658667 1691.28533,126.341333 1690.94,126.136 C1690.59467,125.930667 1690.17933,125.828 1689.694,125.828 C1689.20867,125.828 1688.79333,125.930667 1688.448,126.136 C1688.10267,126.341333 1687.93,126.658667 1687.93,127.088 L1687.93,127.088 L1687.93,134.368 L1683.45,134.368 C1683.07667,134.368 1682.792,134.512667 1682.596,134.802 C1682.4,135.091333 1682.302,135.450667 1682.302,135.88 C1682.302,136.328 1682.4,136.696667 1682.596,136.986 C1682.792,137.275333 1683.07667,137.42 1683.45,137.42 L1683.45,137.42 L1705.458,137.42 Z M1727.186,130.252 C1727.70867,130.252 1728.13333,130.14 1728.46,129.916 C1728.78667,129.692 1728.95,129.318667 1728.95,128.796 L1728.95,128.796 L1728.95,124.988 L1731.918,124.988 C1732.34733,124.988 1732.65533,124.843333 1732.842,124.554 C1733.02867,124.264667 1733.122,123.905333 1733.122,123.476 C1733.122,123.046667 1733.02867,122.687333 1732.842,122.398 C1732.65533,122.108667 1732.34733,121.964 1731.918,121.964 L1731.918,121.964 L1728.95,121.964 L1728.95,116.336 C1728.95,115.906667 1728.77733,115.575333 1728.432,115.342 C1728.08667,115.108667 1727.67133,114.992 1727.186,114.992 C1726.70067,114.992 1726.28533,115.108667 1725.94,115.342 C1725.59467,115.575333 1725.422,115.906667 1725.422,116.336 L1725.422,116.336 L1725.422,128.796 C1725.422,129.318667 1725.58533,129.692 1725.912,129.916 C1726.23867,130.14 1726.66333,130.252 1727.186,130.252 Z M1718.954,117.876 C1719.38333,117.876 1719.69133,117.75 1719.878,117.498 C1720.06467,117.246 1720.158,116.924 1720.158,116.532 C1720.158,116.158667 1720.06,115.846 1719.864,115.594 C1719.668,115.342 1719.36467,115.216 1718.954,115.216 L1718.954,115.216 L1712.822,115.216 C1712.41133,115.216 1712.11267,115.342 1711.926,115.594 C1711.73933,115.846 1711.646,116.158667 1711.646,116.532 C1711.646,116.924 1711.73467,117.246 1711.912,117.498 C1712.08933,117.75 1712.39267,117.876 1712.822,117.876 L1712.822,117.876 L1718.954,117.876 Z M1722.454,121.908 C1722.88333,121.908 1723.19133,121.772667 1723.378,121.502 C1723.56467,121.231333 1723.658,120.909333 1723.658,120.536 C1723.658,120.162667 1723.56,119.840667 1723.364,119.57 C1723.168,119.299333 1722.86467,119.164 1722.454,119.164 L1722.454,119.164 L1709.126,119.164 C1708.71533,119.164 1708.41667,119.294667 1708.23,119.556 C1708.04333,119.817333 1707.95,120.144 1707.95,120.536 C1707.95,120.909333 1708.03867,121.231333 1708.216,121.502 C1708.39333,121.772667 1708.69667,121.908 1709.126,121.908 L1709.126,121.908 L1722.454,121.908 Z M1715.986,130.028 C1717.96467,130.028 1719.48133,129.701333 1720.536,129.048 C1721.59067,128.394667 1722.118,127.498667 1722.118,126.36 C1722.118,125.221333 1721.59067,124.325333 1720.536,123.672 C1719.48133,123.018667 1717.96467,122.692 1715.986,122.692 C1713.97,122.692 1712.43467,123.018667 1711.38,123.672 C1710.32533,124.325333 1709.798,125.221333 1709.798,126.36 C1709.798,127.498667 1710.32533,128.394667 1711.38,129.048 C1712.43467,129.701333 1713.97,130.028 1715.986,130.028 Z M1715.986,127.788 C1715.034,127.788 1714.32933,127.657333 1713.872,127.396 C1713.41467,127.134667 1713.186,126.789333 1713.186,126.36 C1713.186,125.968 1713.41467,125.636667 1713.872,125.366 C1714.32933,125.095333 1715.034,124.96 1715.986,124.96 C1716.91933,124.96 1717.61467,125.095333 1718.072,125.366 C1718.52933,125.636667 1718.758,125.968 1718.758,126.36 C1718.758,126.789333 1718.52933,127.134667 1718.072,127.396 C1717.61467,127.657333 1716.91933,127.788 1715.986,127.788 Z M1728.894,141.872 C1729.286,141.872 1729.57533,141.746 1729.762,141.494 C1729.94867,141.242 1730.042,140.901333 1730.042,140.472 C1730.042,140.061333 1729.94867,139.739333 1729.762,139.506 C1729.57533,139.272667 1729.286,139.156 1728.894,139.156 L1728.894,139.156 L1716.182,139.156 C1715.93933,139.156 1715.78067,139.142 1715.706,139.114 C1715.63133,139.086 1715.594,138.978667 1715.594,138.792 L1715.594,138.792 L1715.594,137.952 C1715.594,137.784 1715.63133,137.681333 1715.706,137.644 C1715.78067,137.606667 1715.94867,137.588 1716.21,137.588 L1716.21,137.588 L1726.71,137.588 C1727.62467,137.588 1728.22667,137.429333 1728.516,137.112 C1728.80533,136.794667 1728.95,136.234667 1728.95,135.432 L1728.95,135.432 L1728.95,133.248 C1728.95,132.482667 1728.80067,131.946 1728.502,131.638 C1728.20333,131.33 1727.606,131.176 1726.71,131.176 L1726.71,131.176 L1712.962,131.176 C1712.57,131.176 1712.27133,131.297333 1712.066,131.54 C1711.86067,131.782667 1711.758,132.109333 1711.758,132.52 C1711.758,133.397333 1712.15933,133.836 1712.962,133.836 L1712.962,133.836 L1724.666,133.836 C1724.92733,133.836 1725.09533,133.859333 1725.17,133.906 C1725.24467,133.952667 1725.282,134.06 1725.282,134.228 L1725.282,134.228 L1725.282,134.9 C1725.282,135.086667 1725.24467,135.198667 1725.17,135.236 C1725.09533,135.273333 1724.92733,135.292 1724.666,135.292 L1724.666,135.292 L1713.97,135.292 C1713.14867,135.292 1712.598,135.455333 1712.318,135.782 C1712.038,136.108667 1711.898,136.636 1711.898,137.364 L1711.898,137.364 L1711.898,139.548 C1711.898,140.425333 1712.07067,141.032 1712.416,141.368 C1712.76133,141.704 1713.40067,141.872 1714.334,141.872 L1714.334,141.872 L1728.894,141.872 Z M1753.17,141.06 C1753.69267,141.06 1754.108,140.943333 1754.416,140.71 C1754.724,140.476667 1754.878,140.108 1754.878,139.604 L1754.878,139.604 L1754.878,127.06 L1757.706,127.06 C1758.13533,127.06 1758.43867,126.910667 1758.616,126.612 C1758.79333,126.313333 1758.882,125.949333 1758.882,125.52 C1758.882,125.090667 1758.79333,124.726667 1758.616,124.428 C1758.43867,124.129333 1758.13533,123.98 1757.706,123.98 L1757.706,123.98 L1754.878,123.98 L1754.878,116.364 C1754.878,115.934667 1754.71933,115.603333 1754.402,115.37 C1754.08467,115.136667 1753.674,115.02 1753.17,115.02 C1752.666,115.02 1752.25533,115.136667 1751.938,115.37 C1751.62067,115.603333 1751.462,115.934667 1751.462,116.364 L1751.462,116.364 L1751.462,139.604 C1751.462,140.108 1751.616,140.476667 1751.924,140.71 C1752.232,140.943333 1752.64733,141.06 1753.17,141.06 Z M1743.062,135.88 C1743.54733,135.88 1743.94867,135.693333 1744.266,135.32 C1745.96467,133.453333 1747.19667,131.255333 1747.962,128.726 C1748.72733,126.196667 1749.11,123.336 1749.11,120.144 C1749.11,119.154667 1748.956,118.459333 1748.648,118.058 C1748.34,117.656667 1747.766,117.456 1746.926,117.456 L1746.926,117.456 L1743.706,117.456 C1743.33267,117.456 1743.03867,117.596 1742.824,117.876 C1742.60933,118.156 1742.502,118.510667 1742.502,118.94 C1742.502,119.369333 1742.60933,119.724 1742.824,120.004 C1743.03867,120.284 1743.33267,120.424 1743.706,120.424 L1743.706,120.424 L1745.022,120.424 C1745.32067,120.424 1745.50267,120.48 1745.568,120.592 C1745.63333,120.704 1745.666,120.937333 1745.666,121.292 C1745.64733,122.393333 1745.57267,123.471333 1745.442,124.526 C1745.31133,125.580667 1745.092,126.602667 1744.784,127.592 C1744.476,128.581333 1744.07,129.547333 1743.566,130.49 C1743.062,131.432667 1742.43667,132.342667 1741.69,133.22 C1741.578,133.369333 1741.48467,133.523333 1741.41,133.682 C1741.33533,133.840667 1741.298,134.013333 1741.298,134.2 C1741.298,134.368 1741.34467,134.55 1741.438,134.746 C1741.53133,134.942 1741.662,135.124 1741.83,135.292 C1741.998,135.46 1742.18933,135.6 1742.404,135.712 C1742.61867,135.824 1742.838,135.88 1743.062,135.88 Z M1735.474,134.256 C1735.88467,134.256 1736.24867,134.097333 1736.566,133.78 C1738.358,131.950667 1739.66467,129.925333 1740.486,127.704 C1741.30733,125.482667 1741.718,122.962667 1741.718,120.144 C1741.718,119.229333 1741.59667,118.552667 1741.354,118.114 C1741.11133,117.675333 1740.58867,117.456 1739.786,117.456 L1739.786,117.456 L1735.53,117.456 C1735.15667,117.456 1734.872,117.596 1734.676,117.876 C1734.48,118.156 1734.382,118.510667 1734.382,118.94 C1734.382,119.369333 1734.48,119.724 1734.676,120.004 C1734.872,120.284 1735.15667,120.424 1735.53,120.424 L1735.53,120.424 L1737.63,120.424 C1737.89133,120.424 1738.064,120.461333 1738.148,120.536 C1738.232,120.610667 1738.274,120.778667 1738.274,121.04 C1738.274,122.944 1738.00333,124.764 1737.462,126.5 C1736.92067,128.236 1735.922,129.841333 1734.466,131.316 L1734.466,131.316 L1734.27,131.512 C1734.12067,131.661333 1734.004,131.834 1733.92,132.03 C1733.836,132.226 1733.794,132.426667 1733.794,132.632 C1733.794,133.042667 1733.97133,133.416 1734.326,133.752 C1734.68067,134.088 1735.06333,134.256 1735.474,134.256 Z M1771.846,129.356 C1773.47,129.356 1774.86533,129.192667 1776.032,128.866 C1777.19867,128.539333 1778.16,128.082 1778.916,127.494 C1779.672,126.906 1780.22733,126.206 1780.582,125.394 C1780.93667,124.582 1781.114,123.7 1781.114,122.748 C1781.114,121.796 1780.93667,120.918667 1780.582,120.116 C1780.22733,119.313333 1779.672,118.622667 1778.916,118.044 C1778.16,117.465333 1777.19867,117.012667 1776.032,116.686 C1774.86533,116.359333 1773.47,116.196 1771.846,116.196 C1770.24067,116.196 1768.85467,116.359333 1767.688,116.686 C1766.52133,117.012667 1765.56,117.465333 1764.804,118.044 C1764.048,118.622667 1763.488,119.313333 1763.124,120.116 C1762.76,120.918667 1762.578,121.796 1762.578,122.748 C1762.578,123.7 1762.76,124.582 1763.124,125.394 C1763.488,126.206 1764.048,126.906 1764.804,127.494 C1765.56,128.082 1766.52133,128.539333 1767.688,128.866 C1768.85467,129.192667 1770.24067,129.356 1771.846,129.356 Z M1771.846,126.248 C1769.90467,126.248 1768.486,125.926 1767.59,125.282 C1766.694,124.638 1766.246,123.793333 1766.246,122.748 C1766.246,121.721333 1766.694,120.881333 1767.59,120.228 C1768.486,119.574667 1769.90467,119.248 1771.846,119.248 C1773.78733,119.248 1775.206,119.574667 1776.102,120.228 C1776.998,120.881333 1777.446,121.721333 1777.446,122.748 C1777.446,123.793333 1776.998,124.638 1776.102,125.282 C1775.206,125.926 1773.78733,126.248 1771.846,126.248 Z M1782.85,137.588 C1783.22333,137.588 1783.508,137.438667 1783.704,137.14 C1783.9,136.841333 1783.998,136.477333 1783.998,136.048 C1783.998,135.618667 1783.90467,135.259333 1783.718,134.97 C1783.53133,134.680667 1783.242,134.536 1782.85,134.536 L1782.85,134.536 L1778.37,134.536 L1778.37,131.008 C1778.37,130.578667 1778.188,130.266 1777.824,130.07 C1777.46,129.874 1777.026,129.776 1776.522,129.776 C1776.03667,129.776 1775.612,129.874 1775.248,130.07 C1774.884,130.266 1774.702,130.578667 1774.702,131.008 L1774.702,131.008 L1774.702,134.536 L1768.962,134.536 L1768.962,131.008 C1768.962,130.578667 1768.78467,130.266 1768.43,130.07 C1768.07533,129.874 1767.65533,129.776 1767.17,129.776 C1766.68467,129.776 1766.25533,129.874 1765.882,130.07 C1765.50867,130.266 1765.322,130.578667 1765.322,131.008 L1765.322,131.008 L1765.322,134.536 L1760.814,134.536 C1760.44067,134.536 1760.156,134.680667 1759.96,134.97 C1759.764,135.259333 1759.666,135.618667 1759.666,136.048 C1759.666,136.477333 1759.764,136.841333 1759.96,137.14 C1760.156,137.438667 1760.44067,137.588 1760.814,137.588 L1760.814,137.588 L1782.85,137.588 Z M1791.6,133.29 C1792.02,133.280667 1792.40733,133.154667 1792.762,132.912 C1793.11667,132.669333 1793.294,132.314667 1793.294,131.848 L1793.294,131.848 L1793.294,130.364 C1793.294,129.804 1793.39667,129.337333 1793.602,128.964 C1793.80733,128.590667 1794.20867,128.245333 1794.806,127.928 C1795.34733,127.629333 1795.87933,127.279333 1796.402,126.878 C1796.92467,126.476667 1797.396,126.014667 1797.816,125.492 C1798.236,124.969333 1798.572,124.4 1798.824,123.784 C1799.076,123.168 1799.202,122.505333 1799.202,121.796 C1799.202,119.985333 1798.60467,118.548 1797.41,117.484 C1796.21533,116.42 1794.54467,115.888 1792.398,115.888 C1791.67,115.888 1790.984,115.972 1790.34,116.14 C1789.696,116.308 1789.108,116.536667 1788.576,116.826 C1788.044,117.115333 1787.58667,117.460667 1787.204,117.862 C1786.82133,118.263333 1786.52733,118.688 1786.322,119.136 C1786.154,119.509333 1786.14933,119.878 1786.308,120.242 C1786.46667,120.606 1786.70933,120.890667 1787.036,121.096 C1787.36267,121.301333 1787.736,121.39 1788.156,121.362 C1788.576,121.334 1788.954,121.114667 1789.29,120.704 C1789.66333,120.274667 1790.10667,119.910667 1790.62,119.612 C1791.13333,119.313333 1791.67,119.164 1792.23,119.164 C1793.20067,119.164 1793.95667,119.397333 1794.498,119.864 C1795.03933,120.330667 1795.31,121.04 1795.31,121.992 C1795.31,122.421333 1795.21667,122.832 1795.03,123.224 C1794.84333,123.616 1794.60533,123.98 1794.316,124.316 C1794.02667,124.652 1793.69533,124.96 1793.322,125.24 C1792.94867,125.52 1792.57533,125.762667 1792.202,125.968 C1791.45533,126.397333 1790.886,126.924667 1790.494,127.55 C1790.102,128.175333 1789.906,128.973333 1789.906,129.944 L1789.906,129.944 L1789.906,131.848 C1789.906,132.352 1790.08333,132.720667 1790.438,132.954 C1790.79267,133.187333 1791.18,133.299333 1791.6,133.29 Z M1791.53,139.604 C1792.12733,139.604 1792.62667,139.403333 1793.028,139.002 C1793.42933,138.600667 1793.63,138.101333 1793.63,137.504 C1793.63,136.906667 1793.42933,136.402667 1793.028,135.992 C1792.62667,135.581333 1792.12733,135.376 1791.53,135.376 C1790.93267,135.376 1790.42867,135.581333 1790.018,135.992 C1789.60733,136.402667 1789.402,136.906667 1789.402,137.504 C1789.402,138.101333 1789.60733,138.600667 1790.018,139.002 C1790.42867,139.403333 1790.93267,139.604 1791.53,139.604 Z" id="왜우리는매번현재가격을비교할까요?"></path>
        </g>
    </g>
</svg>