<?xml version="1.0" encoding="UTF-8"?>
<svg width="396px" height="149px" viewBox="0 0 396 149" version="1.1" xmlns="http://www.w3.org/2000/svg" xmlns:xlink="http://www.w3.org/1999/xlink">
    <!-- Generator: Sketch 63.1 (92452) - https://sketch.com -->
    <title>항공권특가알림플레이윙즈</title>
    <desc>Created with Sketch.</desc>
    <g id="Page-1" stroke="none" stroke-width="1" fill="none" fill-rule="evenodd">
        <g id="PC_서비스소개" transform="translate(-361.000000, -285.000000)" fill="#FFFFFF" fill-rule="nonzero">
            <g id="intro">
                <path d="M402.42,323.28 C403.54,323.28 404.45,323.04 405.15,322.56 C405.85,322.08 406.2,321.28 406.2,320.16 L406.2,320.16 L406.2,309.24 L412.56,309.24 C413.48,309.24 414.14,308.94 414.54,308.34 C414.94,307.74 415.14,306.96 415.14,306 C415.14,305.08 414.94,304.32 414.54,303.72 C414.14,303.12 413.48,302.82 412.56,302.82 L412.56,302.82 L406.2,302.82 L406.2,288.72 C406.2,287.8 405.83,287.09 405.09,286.59 C404.35,286.09 403.46,285.84 402.42,285.84 C401.38,285.84 400.49,286.09 399.75,286.59 C399.01,287.09 398.64,287.8 398.64,288.72 L398.64,288.72 L398.64,320.16 C398.64,321.28 398.99,322.08 399.69,322.56 C400.39,323.04 401.3,323.28 402.42,323.28 Z M384.42,292.8 C385.34,292.8 385.99,292.51 386.37,291.93 C386.75,291.35 386.94,290.64 386.94,289.8 C386.94,289 386.73,288.31 386.31,287.73 C385.89,287.15 385.26,286.86 384.42,286.86 L384.42,286.86 L371.58,286.86 C370.74,286.86 370.11,287.15 369.69,287.73 C369.27,288.31 369.06,289 369.06,289.8 C369.06,290.64 369.25,291.35 369.63,291.93 C370.01,292.51 370.66,292.8 371.58,292.8 L371.58,292.8 L384.42,292.8 Z M392.28,301.98 C393.2,301.98 393.86,301.68 394.26,301.08 C394.66,300.48 394.86,299.76 394.86,298.92 C394.86,298.12 394.65,297.41 394.23,296.79 C393.81,296.17 393.16,295.86 392.28,295.86 L392.28,295.86 L363.72,295.86 C362.84,295.86 362.2,296.16 361.8,296.76 C361.4,297.36 361.2,298.08 361.2,298.92 C361.2,299.76 361.39,300.48 361.77,301.08 C362.15,301.68 362.8,301.98 363.72,301.98 L363.72,301.98 L392.28,301.98 Z M378.3,321.84 C382.62,321.84 385.9,321.04 388.14,319.44 C390.38,317.84 391.5,315.66 391.5,312.9 C391.5,310.18 390.38,308.01 388.14,306.39 C385.9,304.77 382.62,303.96 378.3,303.96 C373.94,303.96 370.63,304.77 368.37,306.39 C366.11,308.01 364.98,310.18 364.98,312.9 C364.98,315.66 366.11,317.84 368.37,319.44 C370.63,321.04 373.94,321.84 378.3,321.84 Z M378.3,316.74 C376.26,316.74 374.73,316.39 373.71,315.69 C372.69,314.99 372.18,314.06 372.18,312.9 C372.18,311.74 372.68,310.82 373.68,310.14 C374.68,309.46 376.22,309.12 378.3,309.12 C380.34,309.12 381.86,309.46 382.86,310.14 C383.86,310.82 384.36,311.74 384.36,312.9 C384.36,314.06 383.86,314.99 382.86,315.69 C381.86,316.39 380.34,316.74 378.3,316.74 Z M388.08,343.5 C394.16,343.5 398.78,342.63 401.94,340.89 C405.1,339.15 406.68,336.68 406.68,333.48 C406.68,330.32 405.1,327.86 401.94,326.1 C398.78,324.34 394.16,323.46 388.08,323.46 C382,323.46 377.39,324.34 374.25,326.1 C371.11,327.86 369.54,330.32 369.54,333.48 C369.54,336.68 371.11,339.15 374.25,340.89 C377.39,342.63 382,343.5 388.08,343.5 Z M388.08,337.68 C384.48,337.68 381.78,337.3 379.98,336.54 C378.18,335.78 377.28,334.76 377.28,333.48 C377.28,332.2 378.18,331.18 379.98,330.42 C381.78,329.66 384.48,329.28 388.08,329.28 C391.72,329.28 394.45,329.66 396.27,330.42 C398.09,331.18 399,332.2 399,333.48 C399,334.76 398.09,335.78 396.27,336.54 C394.45,337.3 391.72,337.68 388.08,337.68 Z M456.54,308.46 C457.34,308.46 458.05,308.29 458.67,307.95 C459.29,307.61 459.72,307.1 459.96,306.42 C460.48,305.02 460.87,303.33 461.13,301.35 C461.39,299.37 461.52,297.42 461.52,295.5 L461.52,295.5 L461.52,293.22 C461.52,291.06 461.03,289.61 460.05,288.87 C459.07,288.13 457.42,287.76 455.1,287.76 L455.1,287.76 L426.3,287.76 C425.38,287.76 424.69,288.06 424.23,288.66 C423.77,289.26 423.54,290.06 423.54,291.06 C423.54,291.9 423.77,292.64 424.23,293.28 C424.69,293.92 425.38,294.24 426.3,294.24 L426.3,294.24 L452.22,294.24 C452.78,294.24 453.15,294.33 453.33,294.51 C453.51,294.69 453.6,295.08 453.6,295.68 L453.6,295.68 L453.6,297.78 C453.6,298.9 453.51,300.11 453.33,301.41 C453.15,302.71 452.9,303.86 452.58,304.86 C452.54,305.02 452.52,305.24 452.52,305.52 C452.52,306.44 452.9,307.16 453.66,307.68 C454.42,308.2 455.38,308.46 456.54,308.46 Z M466.5,317.7 C467.3,317.7 467.9,317.37 468.3,316.71 C468.7,316.05 468.9,315.32 468.9,314.52 C468.9,313.76 468.7,313.03 468.3,312.33 C467.9,311.63 467.3,311.28 466.5,311.28 L466.5,311.28 L444.36,311.28 L444.36,303.12 C444.36,302.2 443.97,301.52 443.19,301.08 C442.41,300.64 441.48,300.42 440.4,300.42 C439.32,300.42 438.38,300.64 437.58,301.08 C436.78,301.52 436.38,302.2 436.38,303.12 L436.38,303.12 L436.38,311.28 L419.1,311.28 C418.3,311.28 417.71,311.63 417.33,312.33 C416.95,313.03 416.76,313.76 416.76,314.52 C416.76,315.32 416.95,316.05 417.33,316.71 C417.71,317.37 418.3,317.7 419.1,317.7 L419.1,317.7 L466.5,317.7 Z M442.86,342.6 C449.26,342.6 454.07,341.7 457.29,339.9 C460.51,338.1 462.12,335.48 462.12,332.04 C462.12,328.52 460.51,325.86 457.29,324.06 C454.07,322.26 449.26,321.36 442.86,321.36 C436.5,321.36 431.7,322.26 428.46,324.06 C425.22,325.86 423.6,328.52 423.6,332.04 C423.6,335.48 425.22,338.1 428.46,339.9 C431.7,341.7 436.5,342.6 442.86,342.6 Z M442.86,336.66 C438.98,336.66 436.1,336.24 434.22,335.4 C432.34,334.56 431.4,333.44 431.4,332.04 C431.4,330.6 432.34,329.46 434.22,328.62 C436.1,327.78 438.98,327.36 442.86,327.36 C446.74,327.36 449.62,327.78 451.5,328.62 C453.38,329.46 454.32,330.6 454.32,332.04 C454.32,333.44 453.38,334.56 451.5,335.4 C449.62,336.24 446.74,336.66 442.86,336.66 Z M516.3,330.78 C517.42,330.78 518.33,330.51 519.03,329.97 C519.73,329.43 520.08,328.62 520.08,327.54 L520.08,327.54 L520.08,288.78 C520.08,287.86 519.72,287.15 519,286.65 C518.28,286.15 517.38,285.9 516.3,285.9 C515.26,285.9 514.37,286.15 513.63,286.65 C512.89,287.15 512.52,287.86 512.52,288.78 L512.52,288.78 L512.52,317.1 L503.46,317.1 C502.66,317.1 502.04,317.4 501.6,318 C501.16,318.6 500.94,319.34 500.94,320.22 C500.94,321.14 501.16,321.92 501.6,322.56 C502.04,323.2 502.66,323.52 503.46,323.52 L503.46,323.52 L512.52,323.52 L512.52,327.54 C512.52,328.62 512.88,329.43 513.6,329.97 C514.32,330.51 515.22,330.78 516.3,330.78 Z M519.3,342.24 C520.22,342.24 520.88,341.95 521.28,341.37 C521.68,340.79 521.88,340.02 521.88,339.06 C521.88,338.14 521.68,337.37 521.28,336.75 C520.88,336.13 520.22,335.82 519.3,335.82 L519.3,335.82 L490.5,335.82 C489.9,335.82 489.52,335.74 489.36,335.58 C489.2,335.42 489.12,335.06 489.12,334.5 L489.12,334.5 L489.12,326.82 C489.6,326.94 490.12,327 490.68,327 C491.76,327 492.66,326.77 493.38,326.31 C494.1,325.85 494.46,325.14 494.46,324.18 L494.46,324.18 L494.46,314.46 C496.94,314.3 499.31,314.08 501.57,313.8 C503.83,313.52 505.64,313.18 507,312.78 C507.68,312.58 508.16,312.24 508.44,311.76 C508.72,311.28 508.86,310.7 508.86,310.02 C508.86,308.98 508.63,308.16 508.17,307.56 C507.71,306.96 507.1,306.66 506.34,306.66 C506.1,306.66 505.88,306.68 505.68,306.72 C505.12,306.84 504.53,306.95 503.91,307.05 C503.29,307.15 502.62,307.26 501.9,307.38 C502.66,305.82 503.19,304.16 503.49,302.4 C503.79,300.64 503.94,299.12 503.94,297.84 L503.94,297.84 L503.94,294.24 C503.94,293.16 503.87,292.27 503.73,291.57 C503.59,290.87 503.31,290.32 502.89,289.92 C502.47,289.52 501.89,289.25 501.15,289.11 C500.41,288.97 499.44,288.9 498.24,288.9 L498.24,288.9 L478.92,288.9 C477.96,288.9 477.27,289.19 476.85,289.77 C476.43,290.35 476.22,291.14 476.22,292.14 C476.22,293.06 476.44,293.83 476.88,294.45 C477.32,295.07 478,295.38 478.92,295.38 L478.92,295.38 L494.76,295.38 C495.32,295.38 495.69,295.49 495.87,295.71 C496.05,295.93 496.14,296.32 496.14,296.88 L496.14,296.88 L496.14,299.1 C496.14,300.3 496.04,301.65 495.84,303.15 C495.64,304.65 495.24,306.26 494.64,307.98 C494.2,308.02 493.75,308.04 493.29,308.04 L493.29,308.04 L474.96,308.04 C474.16,308.04 473.52,308.34 473.04,308.94 C472.56,309.54 472.32,310.34 472.32,311.34 C472.32,312.34 472.56,313.12 473.04,313.68 C473.52,314.24 474.16,314.52 474.96,314.52 L474.96,314.52 L486.9,314.52 L486.9,322.56 C486.42,322.4 485.84,322.32 485.16,322.32 C484.12,322.32 483.19,322.56 482.37,323.04 C481.55,323.52 481.14,324.24 481.14,325.2 L481.14,325.2 L481.14,336.72 C481.14,338.96 481.71,340.44 482.85,341.16 C483.99,341.88 485.66,342.24 487.86,342.24 L487.86,342.24 L519.3,342.24 Z M585.9,312.12 C586.82,312.12 587.51,311.85 587.97,311.31 C588.43,310.77 588.66,310.02 588.66,309.06 C588.66,308.14 588.44,307.41 588,306.87 C587.56,306.33 586.88,306.06 585.96,306.06 L585.96,306.06 L559.68,306.06 C559.12,306.06 558.77,306 558.63,305.88 C558.49,305.76 558.42,305.42 558.42,304.86 L558.42,304.86 L558.42,302.52 L584.76,302.52 C586.56,302.52 587.46,301.54 587.46,299.58 C587.46,297.66 586.56,296.7 584.76,296.7 L584.76,296.7 L558.42,296.7 L558.42,294.36 C558.42,293.84 558.49,293.52 558.63,293.4 C558.77,293.28 559.12,293.22 559.68,293.22 L559.68,293.22 L585.66,293.22 C586.58,293.22 587.26,292.95 587.7,292.41 C588.14,291.87 588.36,291.12 588.36,290.16 C588.36,289.24 588.14,288.51 587.7,287.97 C587.26,287.43 586.58,287.16 585.66,287.16 L585.66,287.16 L556.38,287.16 C555.26,287.16 554.33,287.25 553.59,287.43 C552.85,287.61 552.26,287.91 551.82,288.33 C551.38,288.75 551.07,289.31 550.89,290.01 C550.71,290.71 550.62,291.58 550.62,292.62 L550.62,292.62 L550.62,306.54 C550.62,308.82 551.09,310.32 552.03,311.04 C552.97,311.76 554.46,312.12 556.5,312.12 L556.5,312.12 L585.9,312.12 Z M592.92,321.6 C593.76,321.6 594.37,321.28 594.75,320.64 C595.13,320 595.32,319.28 595.32,318.48 C595.32,317.72 595.13,317.02 594.75,316.38 C594.37,315.74 593.76,315.42 592.92,315.42 L592.92,315.42 L545.58,315.42 C544.74,315.42 544.13,315.74 543.75,316.38 C543.37,317.02 543.18,317.72 543.18,318.48 C543.18,319.28 543.37,320 543.75,320.64 C544.13,321.28 544.74,321.6 545.58,321.6 L545.58,321.6 L592.92,321.6 Z M584.1,343.74 C585.14,343.74 586.05,343.5 586.83,343.02 C587.61,342.54 588,341.84 588,340.92 L588,340.92 L588,330.48 C588,328.4 587.54,326.99 586.62,326.25 C585.7,325.51 584.18,325.14 582.06,325.14 L582.06,325.14 L552.24,325.14 C551.32,325.14 550.65,325.43 550.23,326.01 C549.81,326.59 549.6,327.34 549.6,328.26 C549.6,329.18 549.81,329.93 550.23,330.51 C550.65,331.09 551.32,331.38 552.24,331.38 L552.24,331.38 L578.82,331.38 C579.38,331.38 579.73,331.44 579.87,331.56 C580.01,331.68 580.08,332.02 580.08,332.58 L580.08,332.58 L580.08,340.92 C580.08,341.84 580.48,342.54 581.28,343.02 C582.08,343.5 583.02,343.74 584.1,343.74 Z M639.18,341.7 C640.3,341.7 641.22,341.45 641.94,340.95 C642.66,340.45 643.02,339.66 643.02,338.58 L643.02,338.58 L643.02,311.7 L649.5,311.7 C650.42,311.7 651.07,311.38 651.45,310.74 C651.83,310.1 652.02,309.32 652.02,308.4 C652.02,307.48 651.83,306.71 651.45,306.09 C651.07,305.47 650.42,305.16 649.5,305.16 L649.5,305.16 L643.02,305.16 L643.02,288.78 C643.02,287.86 642.66,287.15 641.94,286.65 C641.22,286.15 640.3,285.9 639.18,285.9 C638.14,285.9 637.26,286.15 636.54,286.65 C635.82,287.15 635.46,287.86 635.46,288.78 L635.46,288.78 L635.46,338.58 C635.46,339.66 635.81,340.45 636.51,340.95 C637.21,341.45 638.1,341.7 639.18,341.7 Z M603.06,328.74 C603.62,328.74 604.26,328.58 604.98,328.26 C612.42,325.14 618.07,320.91 621.93,315.57 C625.79,310.23 627.72,303.62 627.72,295.74 C627.72,294.66 627.63,293.78 627.45,293.1 C627.27,292.42 626.97,291.88 626.55,291.48 C626.13,291.08 625.58,290.81 624.9,290.67 C624.22,290.53 623.4,290.46 622.44,290.46 L622.44,290.46 L603.18,290.46 C602.38,290.46 601.74,290.77 601.26,291.39 C600.78,292.01 600.54,292.78 600.54,293.7 C600.54,294.7 600.78,295.5 601.26,296.1 C601.74,296.7 602.38,297 603.18,297 L603.18,297 L618.12,297 C618.76,297 619.18,297.1 619.38,297.3 C619.58,297.5 619.68,297.88 619.68,298.44 C619.68,301.28 619.24,303.88 618.36,306.24 C617.48,308.6 616.23,310.74 614.61,312.66 C612.99,314.58 611.04,316.31 608.76,317.85 C606.48,319.39 603.94,320.76 601.14,321.96 C600.7,322.16 600.33,322.52 600.03,323.04 C599.73,323.56 599.58,324.14 599.58,324.78 C599.58,325.98 599.96,326.94 600.72,327.66 C601.48,328.38 602.26,328.74 603.06,328.74 Z M694.56,314.4 C695.68,314.4 696.59,314.16 697.29,313.68 C697.99,313.2 698.34,312.42 698.34,311.34 L698.34,311.34 L698.34,303.96 L704.76,303.96 C705.64,303.96 706.28,303.67 706.68,303.09 C707.08,302.51 707.28,301.72 707.28,300.72 C707.28,299.8 707.09,299.04 706.71,298.44 C706.33,297.84 705.68,297.54 704.76,297.54 L704.76,297.54 L698.34,297.54 L698.34,288.72 C698.34,287.8 697.97,287.1 697.23,286.62 C696.49,286.14 695.6,285.9 694.56,285.9 C693.52,285.9 692.64,286.14 691.92,286.62 C691.2,287.1 690.84,287.8 690.84,288.72 L690.84,288.72 L690.84,311.34 C690.84,312.42 691.19,313.2 691.89,313.68 C692.59,314.16 693.48,314.4 694.56,314.4 Z M669.12,313.2 C671.32,313.2 673.32,312.88 675.12,312.24 C676.92,311.6 678.46,310.7 679.74,309.54 C681.02,308.38 682.01,307.02 682.71,305.46 C683.41,303.9 683.76,302.18 683.76,300.3 C683.76,298.46 683.41,296.76 682.71,295.2 C682.01,293.64 681.02,292.29 679.74,291.15 C678.46,290.01 676.92,289.11 675.12,288.45 C673.32,287.79 671.32,287.46 669.12,287.46 C666.92,287.46 664.92,287.79 663.12,288.45 C661.32,289.11 659.78,290.01 658.5,291.15 C657.22,292.29 656.23,293.64 655.53,295.2 C654.83,296.76 654.48,298.46 654.48,300.3 C654.48,302.18 654.83,303.9 655.53,305.46 C656.23,307.02 657.22,308.38 658.5,309.54 C659.78,310.7 661.32,311.6 663.12,312.24 C664.92,312.88 666.92,313.2 669.12,313.2 Z M669.12,307.14 C666.88,307.14 665.11,306.48 663.81,305.16 C662.51,303.84 661.86,302.22 661.86,300.3 C661.86,298.38 662.51,296.77 663.81,295.47 C665.11,294.17 666.88,293.52 669.12,293.52 C671.4,293.52 673.19,294.17 674.49,295.47 C675.79,296.77 676.44,298.38 676.44,300.3 C676.44,302.22 675.79,303.84 674.49,305.16 C673.19,306.48 671.4,307.14 669.12,307.14 Z M698.22,343.08 C699.06,343.08 699.69,342.77 700.11,342.15 C700.53,341.53 700.74,340.78 700.74,339.9 C700.74,339.02 700.53,338.28 700.11,337.68 C699.69,337.08 699.06,336.78 698.22,336.78 L698.22,336.78 L670.98,336.78 C670.46,336.78 670.13,336.72 669.99,336.6 C669.85,336.48 669.78,336.14 669.78,335.58 L669.78,335.58 L669.78,333.6 C669.78,333.16 669.85,332.88 669.99,332.76 C670.13,332.64 670.48,332.58 671.04,332.58 L671.04,332.58 L693.24,332.58 C695.16,332.58 696.49,332.2 697.23,331.44 C697.97,330.68 698.34,329.44 698.34,327.72 L698.34,327.72 L698.34,321.48 C698.34,319.88 698,318.68 697.32,317.88 C696.64,317.08 695.34,316.68 693.42,316.68 L693.42,316.68 L664.08,316.68 C663.2,316.68 662.56,316.98 662.16,317.58 C661.76,318.18 661.56,318.9 661.56,319.74 C661.56,320.66 661.76,321.41 662.16,321.99 C662.56,322.57 663.2,322.86 664.08,322.86 L664.08,322.86 L689.16,322.86 C689.72,322.86 690.07,322.93 690.21,323.07 C690.35,323.21 690.42,323.52 690.42,324 L690.42,324 L690.42,325.74 C690.42,326.26 690.35,326.59 690.21,326.73 C690.07,326.87 689.72,326.94 689.16,326.94 L689.16,326.94 L666.78,326.94 C664.94,326.94 663.65,327.32 662.91,328.08 C662.17,328.84 661.8,330 661.8,331.56 L661.8,331.56 L661.8,337.86 C661.8,339.74 662.19,341.08 662.97,341.88 C663.75,342.68 665.14,343.08 667.14,343.08 L667.14,343.08 L698.22,343.08 Z M752.64,319.8 C753.72,319.8 754.62,319.56 755.34,319.08 C756.06,318.6 756.42,317.82 756.42,316.74 L756.42,316.74 L756.42,288.72 C756.42,287.8 756.05,287.1 755.31,286.62 C754.57,286.14 753.68,285.9 752.64,285.9 C751.6,285.9 750.7,286.14 749.94,286.62 C749.18,287.1 748.8,287.8 748.8,288.72 L748.8,288.72 L748.8,316.74 C748.8,317.82 749.16,318.6 749.88,319.08 C750.6,319.56 751.52,319.8 752.64,319.8 Z M718.02,317.94 C720.82,318.02 723.5,318.03 726.06,317.97 C728.62,317.91 730.99,317.8 733.17,317.64 C735.35,317.48 737.3,317.28 739.02,317.04 C740.74,316.8 742.18,316.52 743.34,316.2 C743.98,316 744.47,315.57 744.81,314.91 C745.15,314.25 745.22,313.44 745.02,312.48 C744.82,311.56 744.43,310.89 743.85,310.47 C743.27,310.05 742.64,309.94 741.96,310.14 C739.48,310.7 736.51,311.11 733.05,311.37 C729.59,311.63 725.76,311.68 721.56,311.52 C720.88,311.48 720.46,311.37 720.3,311.19 C720.14,311.01 720.06,310.58 720.06,309.9 L720.06,309.9 L720.06,307.14 C720.06,306.62 720.14,306.28 720.3,306.12 C720.46,305.96 720.82,305.88 721.38,305.88 L721.38,305.88 L733.2,305.88 C735.04,305.88 736.32,305.51 737.04,304.77 C737.76,304.03 738.12,302.68 738.12,300.72 L738.12,300.72 L738.12,293.52 C738.12,291.72 737.79,290.45 737.13,289.71 C736.47,288.97 735.16,288.6 733.2,288.6 L733.2,288.6 L714.84,288.6 C713.92,288.6 713.26,288.92 712.86,289.56 C712.46,290.2 712.26,290.98 712.26,291.9 C712.26,292.7 712.46,293.42 712.86,294.06 C713.26,294.7 713.92,295.02 714.84,295.02 L714.84,295.02 L729.06,295.02 C729.66,295.02 730.04,295.11 730.2,295.29 C730.36,295.47 730.44,295.8 730.44,296.28 L730.44,296.28 L730.44,298.8 C730.44,299.36 730.36,299.74 730.2,299.94 C730.04,300.14 729.66,300.24 729.06,300.24 L729.06,300.24 L717.06,300.24 C715.42,300.24 714.23,300.59 713.49,301.29 C712.75,301.99 712.38,303.18 712.38,304.86 L712.38,304.86 L712.38,312.48 C712.38,314.56 712.81,315.98 713.67,316.74 C714.53,317.5 715.98,317.9 718.02,317.94 Z M750.84,342.72 C751.92,342.72 752.82,342.63 753.54,342.45 C754.26,342.27 754.83,341.97 755.25,341.55 C755.67,341.13 755.97,340.57 756.15,339.87 C756.33,339.17 756.42,338.3 756.42,337.26 L756.42,337.26 L756.42,327.3 C756.42,325.22 756.03,323.79 755.25,323.01 C754.47,322.23 753,321.84 750.84,321.84 L750.84,321.84 L725.04,321.84 C723.96,321.84 723.06,321.93 722.34,322.11 C721.62,322.29 721.05,322.59 720.63,323.01 C720.21,323.43 719.92,323.99 719.76,324.69 C719.6,325.39 719.52,326.26 719.52,327.3 L719.52,327.3 L719.52,337.2 C719.52,339.32 719.9,340.77 720.66,341.55 C721.42,342.33 722.88,342.72 725.04,342.72 L725.04,342.72 L750.84,342.72 Z M747.24,336.66 L728.7,336.66 C728.06,336.66 727.66,336.56 727.5,336.36 C727.34,336.16 727.26,335.78 727.26,335.22 L727.26,335.22 L727.26,329.28 C727.26,328.72 727.34,328.34 727.5,328.14 C727.66,327.94 728.06,327.84 728.7,327.84 L728.7,327.84 L747.24,327.84 C747.88,327.84 748.29,327.94 748.47,328.14 C748.65,328.34 748.74,328.72 748.74,329.28 L748.74,329.28 L748.74,335.22 C748.74,335.78 748.65,336.16 748.47,336.36 C748.29,336.56 747.88,336.66 747.24,336.66 L747.24,336.66 Z M404.88,397.02 C405.8,397.02 406.46,396.73 406.86,396.15 C407.26,395.57 407.46,394.86 407.46,394.02 C407.46,393.22 407.25,392.5 406.83,391.86 C406.41,391.22 405.76,390.9 404.88,390.9 L404.88,390.9 L399.66,390.9 L399.66,383.28 L405.3,383.28 C406.22,383.28 406.88,382.97 407.28,382.35 C407.68,381.73 407.88,380.98 407.88,380.1 C407.88,379.3 407.66,378.6 407.22,378 C406.78,377.4 406.14,377.1 405.3,377.1 L405.3,377.1 L369.6,377.1 C368.76,377.1 368.13,377.39 367.71,377.97 C367.29,378.55 367.08,379.26 367.08,380.1 C367.08,380.98 367.27,381.73 367.65,382.35 C368.03,382.97 368.68,383.28 369.6,383.28 L369.6,383.28 L375.3,383.28 L375.3,390.9 L369.96,390.9 C369.12,390.9 368.49,391.21 368.07,391.83 C367.65,392.45 367.44,393.18 367.44,394.02 C367.44,394.86 367.63,395.57 368.01,396.15 C368.39,396.73 369.04,397.02 369.96,397.02 L369.96,397.02 L404.88,397.02 Z M392.34,390.9 L382.62,390.9 L382.62,383.28 L392.34,383.28 L392.34,390.9 Z M411.24,406.26 C412.04,406.26 412.63,405.96 413.01,405.36 C413.39,404.76 413.58,404.08 413.58,403.32 C413.58,402.56 413.39,401.87 413.01,401.25 C412.63,400.63 412.04,400.32 411.24,400.32 L411.24,400.32 L363.84,400.32 C363.04,400.32 362.45,400.63 362.07,401.25 C361.69,401.87 361.5,402.56 361.5,403.32 C361.5,404.08 361.69,404.76 362.07,405.36 C362.45,405.96 363.04,406.26 363.84,406.26 L363.84,406.26 L411.24,406.26 Z M405.9,433.38 C406.74,433.38 407.37,433.08 407.79,432.48 C408.21,431.88 408.42,431.16 408.42,430.32 C408.42,429.44 408.21,428.71 407.79,428.13 C407.37,427.55 406.74,427.26 405.9,427.26 L405.9,427.26 L377.82,427.26 C377.34,427.26 377.04,427.21 376.92,427.11 C376.8,427.01 376.74,426.76 376.74,426.36 L376.74,426.36 L376.74,424.8 C376.74,424.4 376.8,424.15 376.92,424.05 C377.04,423.95 377.34,423.9 377.82,423.9 L377.82,423.9 L401.1,423.9 C403.06,423.9 404.39,423.48 405.09,422.64 C405.79,421.8 406.14,420.56 406.14,418.92 L406.14,418.92 L406.14,414.24 C406.14,412.64 405.78,411.44 405.06,410.64 C404.34,409.84 403.02,409.44 401.1,409.44 L401.1,409.44 L370.98,409.44 C370.14,409.44 369.51,409.73 369.09,410.31 C368.67,410.89 368.46,411.62 368.46,412.5 C368.46,413.34 368.67,414.04 369.09,414.6 C369.51,415.16 370.14,415.44 370.98,415.44 L370.98,415.44 L397.08,415.44 C397.6,415.44 397.91,415.49 398.01,415.59 C398.11,415.69 398.16,415.92 398.16,416.28 L398.16,416.28 L398.16,417.84 C398.16,418.24 398.1,418.48 397.98,418.56 C397.86,418.64 397.56,418.68 397.08,418.68 L397.08,418.68 L373.38,418.68 C371.62,418.68 370.41,419.04 369.75,419.76 C369.09,420.48 368.76,421.58 368.76,423.06 L368.76,423.06 L368.76,428.46 C368.76,430.3 369.21,431.58 370.11,432.3 C371.01,433.02 372.48,433.38 374.52,433.38 L374.52,433.38 L405.9,433.38 Z M462.48,431.7 C463.6,431.7 464.5,431.46 465.18,430.98 C465.86,430.5 466.2,429.74 466.2,428.7 L466.2,428.7 L466.2,378.6 C466.2,377.76 465.85,377.1 465.15,376.62 C464.45,376.14 463.56,375.9 462.48,375.9 C461.44,375.9 460.57,376.14 459.87,376.62 C459.17,377.1 458.82,377.76 458.82,378.6 L458.82,378.6 L458.82,428.7 C458.82,429.74 459.17,430.5 459.87,430.98 C460.57,431.46 461.44,431.7 462.48,431.7 Z M450.9,430.5 C451.94,430.5 452.8,430.27 453.48,429.81 C454.16,429.35 454.5,428.6 454.5,427.56 L454.5,427.56 L454.5,379.68 C454.5,378.8 454.16,378.13 453.48,377.67 C452.8,377.21 451.94,376.98 450.9,376.98 C449.86,376.98 449,377.21 448.32,377.67 C447.64,378.13 447.3,378.8 447.3,379.68 L447.3,379.68 L447.3,394.14 L443.58,394.14 C442.66,394.14 441.97,394.44 441.51,395.04 C441.05,395.64 440.82,396.46 440.82,397.5 C440.82,398.5 441.05,399.31 441.51,399.93 C441.97,400.55 442.66,400.86 443.58,400.86 L443.58,400.86 L447.3,400.86 L447.3,427.56 C447.3,428.6 447.64,429.35 448.32,429.81 C449,430.27 449.86,430.5 450.9,430.5 Z M427.32,417.48 C429.88,417.48 432.32,417.39 434.64,417.21 C436.96,417.03 438.98,416.7 440.7,416.22 C441.18,416.06 441.61,415.72 441.99,415.2 C442.37,414.68 442.56,414.02 442.56,413.22 C442.56,412.1 442.29,411.28 441.75,410.76 C441.21,410.24 440.58,409.98 439.86,409.98 L439.86,409.98 L439.53,409.98 C439.39,409.98 439.24,410 439.08,410.04 C438.4,410.16 437.61,410.28 436.71,410.4 C435.81,410.52 434.87,410.62 433.89,410.7 C432.91,410.78 431.95,410.84 431.01,410.88 C430.07,410.92 429.26,410.94 428.58,410.94 L428.58,410.94 L427.26,410.94 C426.54,410.94 426.1,410.84 425.94,410.64 C425.78,410.44 425.7,410 425.7,409.32 L425.7,409.32 L425.7,402.54 C425.7,402.02 425.79,401.69 425.97,401.55 C426.15,401.41 426.52,401.34 427.08,401.34 L427.08,401.34 L434.04,401.34 C436.08,401.34 437.47,400.96 438.21,400.2 C438.95,399.44 439.32,398.1 439.32,396.18 L439.32,396.18 L439.32,385.8 C439.32,384.8 439.25,383.96 439.11,383.28 C438.97,382.6 438.69,382.04 438.27,381.6 C437.85,381.16 437.27,380.84 436.53,380.64 C435.79,380.44 434.84,380.34 433.68,380.34 L433.68,380.34 L420.66,380.34 C419.86,380.34 419.23,380.68 418.77,381.36 C418.31,382.04 418.08,382.8 418.08,383.64 C418.08,384.44 418.3,385.17 418.74,385.83 C419.18,386.49 419.82,386.82 420.66,386.82 L420.66,386.82 L430.44,386.82 C431.04,386.82 431.42,386.88 431.58,387 C431.74,387.12 431.82,387.4 431.82,387.84 L431.82,387.84 L431.82,394.08 C431.82,394.64 431.74,395 431.58,395.16 C431.42,395.32 431.06,395.4 430.5,395.4 L430.5,395.4 L423.54,395.4 C421.54,395.4 420.16,395.76 419.4,396.48 C418.64,397.2 418.26,398.46 418.26,400.26 L418.26,400.26 L418.26,410.76 C418.26,411.88 418.33,412.85 418.47,413.67 C418.61,414.49 418.88,415.17 419.28,415.71 C419.68,416.25 420.23,416.66 420.93,416.94 C421.63,417.22 422.54,417.38 423.66,417.42 C424.26,417.46 424.86,417.48 425.46,417.48 L425.46,417.48 L427.32,417.48 Z M515.7,431.7 C516.78,431.7 517.68,431.45 518.4,430.95 C519.12,430.45 519.48,429.66 519.48,428.58 L519.48,428.58 L519.48,378.78 C519.48,377.86 519.11,377.15 518.37,376.65 C517.63,376.15 516.74,375.9 515.7,375.9 C514.58,375.9 513.66,376.15 512.94,376.65 C512.22,377.15 511.86,377.86 511.86,378.78 L511.86,378.78 L511.86,428.58 C511.86,429.66 512.22,430.45 512.94,430.95 C513.66,431.45 514.58,431.7 515.7,431.7 Z M489.36,417.96 C494.32,417.96 498.05,416.26 500.55,412.86 C503.05,409.46 504.3,404.72 504.3,398.64 C504.3,395.6 503.99,392.88 503.37,390.48 C502.75,388.08 501.81,386.04 500.55,384.36 C499.29,382.68 497.73,381.4 495.87,380.52 C494.01,379.64 491.84,379.2 489.36,379.2 C486.88,379.2 484.71,379.64 482.85,380.52 C480.99,381.4 479.43,382.68 478.17,384.36 C476.91,386.04 475.97,388.08 475.35,390.48 C474.73,392.88 474.42,395.6 474.42,398.64 C474.42,404.72 475.67,409.46 478.17,412.86 C480.67,416.26 484.4,417.96 489.36,417.96 Z M489.36,411.48 C487,411.48 485.19,410.48 483.93,408.48 C482.67,406.48 482.04,403.2 482.04,398.64 C482.04,394.08 482.67,390.78 483.93,388.74 C485.19,386.7 487,385.68 489.36,385.68 C491.72,385.68 493.54,386.7 494.82,388.74 C496.1,390.78 496.74,394.08 496.74,398.64 C496.74,403.16 496.1,406.43 494.82,408.45 C493.54,410.47 491.72,411.48 489.36,411.48 Z M571.2,412.92 C572.36,412.92 573.29,412.67 573.99,412.17 C574.69,411.67 575.04,410.86 575.04,409.74 L575.04,409.74 L575.04,378.78 C575.04,377.86 574.68,377.15 573.96,376.65 C573.24,376.15 572.32,375.9 571.2,375.9 C570.16,375.9 569.27,376.15 568.53,376.65 C567.79,377.15 567.42,377.86 567.42,378.78 L567.42,378.78 L567.42,409.74 C567.42,410.86 567.78,411.67 568.5,412.17 C569.22,412.67 570.12,412.92 571.2,412.92 Z M546.24,397.86 C548.4,397.86 550.34,397.63 552.06,397.17 C553.78,396.71 555.25,396.05 556.47,395.19 C557.69,394.33 558.63,393.27 559.29,392.01 C559.95,390.75 560.28,389.34 560.28,387.78 C560.28,386.18 559.95,384.76 559.29,383.52 C558.63,382.28 557.69,381.22 556.47,380.34 C555.25,379.46 553.78,378.79 552.06,378.33 C550.34,377.87 548.4,377.64 546.24,377.64 C542,377.64 538.62,378.53 536.1,380.31 C533.58,382.09 532.32,384.58 532.32,387.78 C532.32,389.34 532.65,390.75 533.31,392.01 C533.97,393.27 534.9,394.33 536.1,395.19 C537.3,396.05 538.76,396.71 540.48,397.17 C542.2,397.63 544.12,397.86 546.24,397.86 Z M546.24,392.1 C544.16,392.1 542.55,391.7 541.41,390.9 C540.27,390.1 539.7,389.06 539.7,387.78 C539.7,386.42 540.27,385.35 541.41,384.57 C542.55,383.79 544.16,383.4 546.24,383.4 C548.4,383.4 550.05,383.79 551.19,384.57 C552.33,385.35 552.9,386.42 552.9,387.78 C552.9,389.06 552.33,390.1 551.19,390.9 C550.05,391.7 548.4,392.1 546.24,392.1 Z M556.08,433.02 C562.32,433.02 567.09,432.14 570.39,430.38 C573.69,428.62 575.34,426.16 575.34,423 C575.34,419.76 573.69,417.26 570.39,415.5 C567.09,413.74 562.32,412.86 556.08,412.86 C554.8,412.86 553.6,412.9 552.48,412.98 C551.36,413.06 550.28,413.18 549.24,413.34 C549.36,413.06 549.42,412.72 549.42,412.32 L549.42,412.32 L549.42,407.04 C552.14,406.96 554.69,406.77 557.07,406.47 C559.45,406.17 561.38,405.8 562.86,405.36 C563.54,405.16 564.03,404.8 564.33,404.28 C564.63,403.76 564.78,403.14 564.78,402.42 C564.78,401.38 564.54,400.59 564.06,400.05 C563.58,399.51 562.96,399.24 562.2,399.24 L562.2,399.24 L561.93,399.24 C561.83,399.24 561.7,399.26 561.54,399.3 C560.02,399.62 558.09,399.92 555.75,400.2 C553.41,400.48 550.72,400.62 547.68,400.62 L547.68,400.62 L530.28,400.62 C529.48,400.62 528.83,400.91 528.33,401.49 C527.83,402.07 527.58,402.86 527.58,403.86 C527.58,404.86 527.83,405.65 528.33,406.23 C528.83,406.81 529.48,407.1 530.28,407.1 L530.28,407.1 L541.86,407.1 L541.86,412.32 C541.86,413.44 542.44,414.26 543.6,414.78 C539.12,416.5 536.88,419.24 536.88,423 C536.88,426.16 538.53,428.62 541.83,430.38 C545.13,432.14 549.88,433.02 556.08,433.02 Z M556.14,427.02 C552.5,427.02 549.71,426.67 547.77,425.97 C545.83,425.27 544.86,424.28 544.86,423 C544.86,421.64 545.83,420.61 547.77,419.91 C549.71,419.21 552.5,418.86 556.14,418.86 C559.78,418.86 562.55,419.21 564.45,419.91 C566.35,420.61 567.3,421.64 567.3,423 C567.3,424.28 566.35,425.27 564.45,425.97 C562.55,426.67 559.78,427.02 556.14,427.02 Z M590.28,408.66 C590.44,408.66 590.61,408.65 590.79,408.63 C590.97,408.61 591.16,408.58 591.36,408.54 C593.04,408.22 594.74,407.73 596.46,407.07 C598.18,406.41 599.82,405.6 601.38,404.64 C602.94,403.68 604.35,402.57 605.61,401.31 C606.87,400.05 607.9,398.64 608.7,397.08 C609.46,398.6 610.49,399.98 611.79,401.22 C613.09,402.46 614.52,403.56 616.08,404.52 C617.64,405.48 619.29,406.29 621.03,406.95 C622.77,407.61 624.46,408.08 626.1,408.36 C626.3,408.4 626.49,408.43 626.67,408.45 C626.85,408.47 627,408.48 627.12,408.48 C628.2,408.48 629.07,408.15 629.73,407.49 C630.39,406.83 630.72,405.88 630.72,404.64 C630.72,403.96 630.56,403.35 630.24,402.81 C629.92,402.27 629.42,401.92 628.74,401.76 C626.78,401.36 624.86,400.75 622.98,399.93 C621.1,399.11 619.43,398.09 617.97,396.87 C616.51,395.65 615.33,394.22 614.43,392.58 C613.53,390.94 613.08,389.08 613.08,387 L613.08,387 L613.08,386.34 L626.88,386.34 C627.8,386.34 628.46,385.99 628.86,385.29 C629.26,384.59 629.46,383.84 629.46,383.04 C629.46,382.24 629.25,381.5 628.83,380.82 C628.41,380.14 627.76,379.8 626.88,379.8 L626.88,379.8 L590.28,379.8 C589.4,379.8 588.75,380.13 588.33,380.79 C587.91,381.45 587.7,382.2 587.7,383.04 C587.7,383.84 587.9,384.59 588.3,385.29 C588.7,385.99 589.36,386.34 590.28,386.34 L590.28,386.34 L604.2,386.34 L604.2,387.06 C604.2,389.14 603.8,391 603,392.64 C602.2,394.28 601.1,395.7 599.7,396.9 C598.3,398.1 596.66,399.11 594.78,399.93 C592.9,400.75 590.88,401.4 588.72,401.88 C588.04,402.04 587.53,402.4 587.19,402.96 C586.85,403.52 586.68,404.14 586.68,404.82 C586.68,405.98 587.02,406.91 587.7,407.61 C588.38,408.31 589.24,408.66 590.28,408.66 Z M632.16,423.9 C633,423.9 633.63,423.59 634.05,422.97 C634.47,422.35 634.68,421.58 634.68,420.66 C634.68,419.74 634.47,418.97 634.05,418.35 C633.63,417.73 633,417.42 632.16,417.42 L632.16,417.42 L585,417.42 C584.2,417.42 583.59,417.73 583.17,418.35 C582.75,418.97 582.54,419.74 582.54,420.66 C582.54,421.58 582.75,422.35 583.17,422.97 C583.59,423.59 584.2,423.9 585,423.9 L585,423.9 L632.16,423.9 Z" id="항공권특가알림플레이윙즈"></path>
            </g>
        </g>
    </g>
</svg>