<?xml version="1.0" encoding="UTF-8"?>
<svg width="411px" height="100px" viewBox="0 0 411 100" version="1.1" xmlns="http://www.w3.org/2000/svg" xmlns:xlink="http://www.w3.org/1999/xlink">
    <!-- Generator: Sketch 63.1 (92452) - https://sketch.com -->
    <title>왜우리는매번현재가격을비교할까요?</title>
    <desc>Created with Sketch.</desc>
    <g id="Page-1" stroke="none" stroke-width="1" fill="none" fill-rule="evenodd" fill-opacity="0.87">
        <path d="M31.84,37.84 C32.5333333,37.84 33.1066667,37.68 33.56,37.36 C34.0133333,37.04 34.24,36.5333333 34.24,35.84 L34.24,35.84 L34.24,2.4 C34.24,1.81333333 34.0133333,1.36 33.56,1.04 C33.1066667,0.72 32.5333333,0.56 31.84,0.56 C31.1466667,0.56 30.5733333,0.72 30.12,1.04 C29.6666667,1.36 29.44,1.81333333 29.44,2.4 L29.44,2.4 L29.44,14.04 L26.28,14.04 L26.28,3.12 C26.28,2.53333333 26.06,2.08666667 25.62,1.78 C25.18,1.47333333 24.6133333,1.32 23.92,1.32 C23.2266667,1.32 22.6466667,1.47333333 22.18,1.78 C21.7133333,2.08666667 21.48,2.53333333 21.48,3.12 L21.48,3.12 L21.48,35.04 C21.48,35.7333333 21.7133333,36.2333333 22.18,36.54 C22.6466667,36.8466667 23.2266667,37 23.92,37 C24.6133333,37 25.18,36.8466667 25.62,36.54 C26.06,36.2333333 26.28,35.7333333 26.28,35.04 L26.28,35.04 L26.28,18.48 L29.44,18.48 L29.44,35.84 C29.44,36.5333333 29.6666667,37.04 30.12,37.36 C30.5733333,37.68 31.1466667,37.84 31.84,37.84 Z M9.2,29.08 C10.08,29.08 10.9866667,29.0533333 11.92,29 C12.8533333,28.9466667 13.7533333,28.8666667 14.62,28.76 C15.4866667,28.6533333 16.3,28.5333333 17.06,28.4 C17.82,28.2666667 18.48,28.12 19.04,27.96 C19.5733333,27.8266667 19.9266667,27.5266667 20.1,27.06 C20.2733333,26.5933333 20.3066667,26.0533333 20.2,25.44 C20.12,24.8266667 19.8733333,24.3733333 19.46,24.08 C19.0466667,23.7866667 18.5733333,23.7066667 18.04,23.84 C17.4266667,24 16.6866667,24.1533333 15.82,24.3 C14.9533333,24.4466667 14.04,24.5333333 13.08,24.56 L13.08,24.56 L13.08,19.4 C15.0533333,18.9466667 16.6,18.0133333 17.72,16.6 C18.84,15.1866667 19.4,13.44 19.4,11.36 C19.4,10.1066667 19.1866667,8.96666667 18.76,7.94 C18.3333333,6.91333333 17.7333333,6.03333333 16.96,5.3 C16.1866667,4.56666667 15.2466667,4 14.14,3.6 C13.0333333,3.2 11.8,3 10.44,3 C9.08,3 7.84666667,3.2 6.74,3.6 C5.63333333,4 4.69333333,4.56666667 3.92,5.3 C3.14666667,6.03333333 2.54666667,6.91333333 2.12,7.94 C1.69333333,8.96666667 1.48,10.1066667 1.48,11.36 C1.48,13.4933333 2.06666667,15.2733333 3.24,16.7 C4.41333333,18.1266667 6.04,19.0533333 8.12,19.48 L8.12,19.48 L8.12,24.72 L2.72,24.72 C2.18666667,24.72 1.75333333,24.92 1.42,25.32 C1.08666667,25.72 0.92,26.24 0.92,26.88 C0.92,27.5733333 1.08666667,28.1133333 1.42,28.5 C1.75333333,28.8866667 2.18666667,29.08 2.72,29.08 L2.72,29.08 L9.2,29.08 Z M10.4,15.68 C9.12,15.68 8.10666667,15.2666667 7.36,14.44 C6.61333333,13.6133333 6.24,12.5866667 6.24,11.36 C6.24,10.08 6.61333333,9.03333333 7.36,8.22 C8.10666667,7.40666667 9.12,7 10.4,7 C11.7066667,7 12.74,7.40666667 13.5,8.22 C14.26,9.03333333 14.64,10.08 14.64,11.36 C14.64,12.5866667 14.26,13.6133333 13.5,14.44 C12.74,15.2666667 11.7066667,15.68 10.4,15.68 Z M65.84,18.44 C68.1066667,18.44 70.0466667,18.2266667 71.66,17.8 C73.2733333,17.3733333 74.6,16.7866667 75.64,16.04 C76.68,15.2933333 77.44,14.4 77.92,13.36 C78.4,12.32 78.64,11.2 78.64,10 C78.64,8.8 78.4,7.68666667 77.92,6.66 C77.44,5.63333333 76.68,4.75333333 75.64,4.02 C74.6,3.28666667 73.2733333,2.70666667 71.66,2.28 C70.0466667,1.85333333 68.1066667,1.64 65.84,1.64 C63.5466667,1.64 61.5866667,1.85333333 59.96,2.28 C58.3333333,2.70666667 57.0066667,3.28666667 55.98,4.02 C54.9533333,4.75333333 54.2,5.63333333 53.72,6.66 C53.24,7.68666667 53,8.8 53,10 C53,11.2 53.24,12.32 53.72,13.36 C54.2,14.4 54.9533333,15.2933333 55.98,16.04 C57.0066667,16.7866667 58.3333333,17.3733333 59.96,17.8 C61.5866667,18.2266667 63.5466667,18.44 65.84,18.44 Z M65.84,14.12 C63.0666667,14.12 61.1133333,13.74 59.98,12.98 C58.8466667,12.22 58.28,11.2266667 58.28,10 C58.28,9.41333333 58.4133333,8.86666667 58.68,8.36 C58.9466667,7.85333333 59.38,7.42 59.98,7.06 C60.58,6.7 61.36,6.42 62.32,6.22 C63.28,6.02 64.4533333,5.92 65.84,5.92 C68.56,5.92 70.4933333,6.3 71.64,7.06 C72.7866667,7.82 73.36,8.8 73.36,10 C73.36,11.2266667 72.7866667,12.22 71.64,12.98 C70.4933333,13.74 68.56,14.12 65.84,14.12 Z M65.84,38.6 C66.5333333,38.6 67.1466667,38.44 67.68,38.12 C68.2133333,37.8 68.48,37.2666667 68.48,36.52 L68.48,36.52 L68.48,25.6 L81.52,25.6 C82.08,25.6 82.5,25.3933333 82.78,24.98 C83.06,24.5666667 83.2,24.04 83.2,23.4 C83.2,22.8133333 83.06,22.3133333 82.78,21.9 C82.5,21.4866667 82.08,21.28 81.52,21.28 L81.52,21.28 L50.08,21.28 C49.5466667,21.28 49.14,21.4866667 48.86,21.9 C48.58,22.3133333 48.44,22.8133333 48.44,23.4 C48.44,24.04 48.58,24.5666667 48.86,24.98 C49.14,25.3933333 49.5466667,25.6 50.08,25.6 L50.08,25.6 L63.16,25.6 L63.16,36.52 C63.16,37.2666667 63.42,37.8 63.94,38.12 C64.46,38.44 65.0933333,38.6 65.84,38.6 Z M114.4,37.8 C115.12,37.8 115.72,37.6333333 116.2,37.3 C116.68,36.9666667 116.92,36.44 116.92,35.72 L116.92,35.72 L116.92,2.52 C116.92,1.90666667 116.673333,1.43333333 116.18,1.1 C115.686667,0.766666667 115.093333,0.6 114.4,0.6 C113.653333,0.6 113.04,0.766666667 112.56,1.1 C112.08,1.43333333 111.84,1.90666667 111.84,2.52 L111.84,2.52 L111.84,35.72 C111.84,36.44 112.08,36.9666667 112.56,37.3 C113.04,37.6333333 113.653333,37.8 114.4,37.8 Z M94.16,28.6 C95.6,28.6 97.0266667,28.56 98.44,28.48 C99.8533333,28.4 101.18,28.2933333 102.42,28.16 C103.66,28.0266667 104.786667,27.8733333 105.8,27.7 C106.813333,27.5266667 107.64,27.3466667 108.28,27.16 C108.626667,27.0533333 108.906667,26.8466667 109.12,26.54 C109.333333,26.2333333 109.44,25.8133333 109.44,25.28 C109.44,24.5333333 109.273333,23.9666667 108.94,23.58 C108.606667,23.1933333 108.186667,23 107.68,23 C107.573333,23 107.453333,23.0133333 107.32,23.04 C105.8,23.3333333 104.033333,23.6 102.02,23.84 C100.006667,24.08 97.92,24.2 95.76,24.2 L95.76,24.2 L93.72,24.2 C93.24,24.2 92.9466667,24.1333333 92.84,24 C92.7333333,23.8666667 92.68,23.5733333 92.68,23.12 L92.68,23.12 L92.68,18.56 C92.68,18.1866667 92.7333333,17.9533333 92.84,17.86 C92.9466667,17.7666667 93.1866667,17.72 93.56,17.72 L93.56,17.72 L101.36,17.72 C102.693333,17.72 103.626667,17.4266667 104.16,16.84 C104.693333,16.2533333 104.96,15.3066667 104.96,14 L104.96,14 L104.96,7.04 C104.96,5.70666667 104.726667,4.76 104.26,4.2 C103.793333,3.64 102.866667,3.36 101.48,3.36 L101.48,3.36 L89.2,3.36 C88.6133333,3.36 88.1666667,3.58 87.86,4.02 C87.5533333,4.46 87.4,4.97333333 87.4,5.56 C87.4,6.09333333 87.5533333,6.58666667 87.86,7.04 C88.1666667,7.49333333 88.6133333,7.72 89.2,7.72 L89.2,7.72 L98.88,7.72 C99.3066667,7.72 99.5666667,7.78 99.66,7.9 C99.7533333,8.02 99.8,8.24 99.8,8.56 L99.8,8.56 L99.8,12.76 C99.8,13.1333333 99.7466667,13.38 99.64,13.5 C99.5333333,13.62 99.28,13.68 98.88,13.68 L98.88,13.68 L91.4,13.68 C89.96,13.68 88.96,13.9133333 88.4,14.38 C87.84,14.8466667 87.56,15.7066667 87.56,16.96 L87.56,16.96 L87.56,24.16 C87.56,25.7066667 87.8333333,26.8133333 88.38,27.48 C88.9266667,28.1466667 89.92,28.5066667 91.36,28.56 C91.84,28.5866667 92.3133333,28.6 92.78,28.6 L92.78,28.6 L94.16,28.6 Z M150.68,15.48 C151.293333,15.48 151.74,15.2866667 152.02,14.9 C152.3,14.5133333 152.44,14 152.44,13.36 C152.44,12.7466667 152.3,12.2466667 152.02,11.86 C151.74,11.4733333 151.293333,11.28 150.68,11.28 L150.68,11.28 L133.52,11.28 C133.146667,11.28 132.9,11.2266667 132.78,11.12 C132.66,11.0133333 132.6,10.76 132.6,10.36 L132.6,10.36 L132.6,3.2 C132.6,2.58666667 132.34,2.12666667 131.82,1.82 C131.3,1.51333333 130.666667,1.36 129.92,1.36 C129.226667,1.36 128.62,1.51333333 128.1,1.82 C127.58,2.12666667 127.32,2.58666667 127.32,3.2 L127.32,3.2 L127.32,12.04 C127.32,12.76 127.386667,13.3466667 127.52,13.8 C127.653333,14.2533333 127.873333,14.6066667 128.18,14.86 C128.486667,15.1133333 128.873333,15.28 129.34,15.36 C129.806667,15.44 130.386667,15.48 131.08,15.48 L131.08,15.48 L150.68,15.48 Z M155.28,23.2 C155.813333,23.2 156.213333,22.98 156.48,22.54 C156.746667,22.1 156.88,21.6133333 156.88,21.08 C156.88,20.5733333 156.746667,20.0933333 156.48,19.64 C156.213333,19.1866667 155.813333,18.96 155.28,18.96 L155.28,18.96 L123.68,18.96 C123.146667,18.96 122.753333,19.1866667 122.5,19.64 C122.246667,20.0933333 122.12,20.5733333 122.12,21.08 C122.12,21.6133333 122.246667,22.1 122.5,22.54 C122.753333,22.98 123.146667,23.2 123.68,23.2 L123.68,23.2 L155.28,23.2 Z M151,37.96 C151.613333,37.96 152.046667,37.7533333 152.3,37.34 C152.553333,36.9266667 152.68,36.4133333 152.68,35.8 C152.68,35.1866667 152.553333,34.68 152.3,34.28 C152.046667,33.88 151.613333,33.68 151,33.68 L151,33.68 L133.48,33.68 C133.08,33.68 132.826667,33.6266667 132.72,33.52 C132.613333,33.4133333 132.56,33.1733333 132.56,32.8 L132.56,32.8 L132.56,27.92 C132.56,27.28 132.293333,26.8 131.76,26.48 C131.226667,26.16 130.613333,26 129.92,26 C129.2,26 128.573333,26.16 128.04,26.48 C127.506667,26.8 127.24,27.28 127.24,27.92 L127.24,27.92 L127.24,34.56 C127.24,35.3066667 127.306667,35.9066667 127.44,36.36 C127.573333,36.8133333 127.786667,37.16 128.08,37.4 C128.373333,37.64 128.753333,37.7933333 129.22,37.86 C129.686667,37.9266667 130.266667,37.96 130.96,37.96 L130.96,37.96 L151,37.96 Z M200,37.8 C200.746667,37.8 201.353333,37.64 201.82,37.32 C202.286667,37 202.52,36.4933333 202.52,35.8 L202.52,35.8 L202.52,2.4 C202.52,1.84 202.28,1.39333333 201.8,1.06 C201.32,0.726666667 200.72,0.56 200,0.56 C199.306667,0.56 198.733333,0.726666667 198.28,1.06 C197.826667,1.39333333 197.6,1.84 197.6,2.4 L197.6,2.4 L197.6,13.72 L194.12,13.72 L194.12,3.12 C194.12,2.53333333 193.88,2.08666667 193.4,1.78 C192.92,1.47333333 192.333333,1.32 191.64,1.32 C190.946667,1.32 190.36,1.47333333 189.88,1.78 C189.4,2.08666667 189.16,2.53333333 189.16,3.12 L189.16,3.12 L189.16,35.04 C189.16,35.7333333 189.393333,36.2333333 189.86,36.54 C190.326667,36.8466667 190.92,37 191.64,37 C192.36,37 192.953333,36.8466667 193.42,36.54 C193.886667,36.2333333 194.12,35.7333333 194.12,35.04 L194.12,35.04 L194.12,18.44 L197.6,18.44 L197.6,35.8 C197.6,36.4933333 197.826667,37 198.28,37.32 C198.733333,37.64 199.306667,37.8 200,37.8 Z M182.4,27.48 C183.92,27.48 184.94,27.18 185.46,26.58 C185.98,25.98 186.24,24.9466667 186.24,23.48 L186.24,23.48 L186.24,8.12 C186.24,6.68 185.973333,5.66 185.44,5.06 C184.906667,4.46 183.893333,4.16 182.4,4.16 L182.4,4.16 L174.36,4.16 C173.56,4.16 172.906667,4.24666667 172.4,4.42 C171.893333,4.59333333 171.5,4.86 171.22,5.22 C170.94,5.58 170.753333,6.04 170.66,6.6 C170.566667,7.16 170.52,7.84 170.52,8.64 L170.52,8.64 L170.52,23.48 C170.52,24.9466667 170.786667,25.98 171.32,26.58 C171.853333,27.18 172.866667,27.48 174.36,27.48 L174.36,27.48 L182.4,27.48 Z M180.28,23.36 L176.52,23.36 C176.12,23.36 175.866667,23.2933333 175.76,23.16 C175.653333,23.0266667 175.6,22.7733333 175.6,22.4 L175.6,22.4 L175.6,9.2 C175.6,8.82666667 175.653333,8.57333333 175.76,8.44 C175.866667,8.30666667 176.12,8.24 176.52,8.24 L176.52,8.24 L180.28,8.24 C180.653333,8.24 180.9,8.30666667 181.02,8.44 C181.14,8.57333333 181.2,8.82666667 181.2,9.2 L181.2,9.2 L181.2,22.4 C181.2,22.7733333 181.14,23.0266667 181.02,23.16 C180.9,23.2933333 180.653333,23.36 180.28,23.36 L180.28,23.36 Z M235.8,28.08 C236.546667,28.08 237.16,27.9066667 237.64,27.56 C238.12,27.2133333 238.36,26.68 238.36,25.96 L238.36,25.96 L238.36,2.48 C238.36,1.86666667 238.106667,1.39333333 237.6,1.06 C237.093333,0.726666667 236.493333,0.56 235.8,0.56 C235.106667,0.56 234.513333,0.726666667 234.02,1.06 C233.526667,1.39333333 233.28,1.86666667 233.28,2.48 L233.28,2.48 L233.28,9.68 L226.64,9.68 L226.64,4.44 C226.64,3.82666667 226.393333,3.38 225.9,3.1 C225.406667,2.82 224.786667,2.68 224.04,2.68 C223.4,2.68 222.833333,2.82 222.34,3.1 C221.846667,3.38 221.6,3.82666667 221.6,4.44 L221.6,4.44 L221.6,8.56 L213.4,8.56 L213.4,4.44 C213.4,3.82666667 213.14,3.38 212.62,3.1 C212.1,2.82 211.48,2.68 210.76,2.68 C210.12,2.68 209.546667,2.82 209.04,3.1 C208.533333,3.38 208.28,3.82666667 208.28,4.44 L208.28,4.44 L208.28,18.2 C208.28,19.5066667 208.56,20.3866667 209.12,20.84 C209.68,21.2933333 210.666667,21.52 212.08,21.52 L212.08,21.52 L222.84,21.52 C223.506667,21.52 224.086667,21.4733333 224.58,21.38 C225.073333,21.2866667 225.466667,21.1133333 225.76,20.86 C226.053333,20.6066667 226.273333,20.2666667 226.42,19.84 C226.566667,19.4133333 226.64,18.8666667 226.64,18.2 L226.64,18.2 L226.64,14 L233.28,14 L233.28,25.96 C233.28,26.68 233.52,27.2133333 234,27.56 C234.48,27.9066667 235.08,28.08 235.8,28.08 Z M220.56,17.44 L214.32,17.44 C213.92,17.44 213.666667,17.4 213.56,17.32 C213.453333,17.24 213.4,16.9733333 213.4,16.52 L213.4,16.52 L213.4,12.52 L221.6,12.52 L221.6,16.44 C221.6,16.8933333 221.54,17.1733333 221.42,17.28 C221.3,17.3866667 221.013333,17.44 220.56,17.44 L220.56,17.44 Z M237.8,38.04 C238.413333,38.04 238.86,37.8333333 239.14,37.42 C239.42,37.0066667 239.56,36.4933333 239.56,35.88 C239.56,35.2666667 239.42,34.7533333 239.14,34.34 C238.86,33.9266667 238.413333,33.72 237.8,33.72 L237.8,33.72 L219.92,33.72 C219.52,33.72 219.266667,33.6733333 219.16,33.58 C219.053333,33.4866667 219,33.2533333 219,32.88 L219,32.88 L219,26.56 C219,25.9466667 218.74,25.48 218.22,25.16 C217.7,24.84 217.08,24.68 216.36,24.68 C215.64,24.68 215.013333,24.84 214.48,25.16 C213.946667,25.48 213.68,25.9466667 213.68,26.56 L213.68,26.56 L213.68,34.48 C213.68,35.2266667 213.753333,35.8333333 213.9,36.3 C214.046667,36.7666667 214.273333,37.1266667 214.58,37.38 C214.886667,37.6333333 215.28,37.8066667 215.76,37.9 C216.24,37.9933333 216.813333,38.04 217.48,38.04 L217.48,38.04 L237.8,38.04 Z M30.4,89.68 C31.1466667,89.68 31.76,89.5133333 32.24,89.18 C32.72,88.8466667 32.96,88.3066667 32.96,87.56 L32.96,87.56 L32.96,62.48 C32.96,61.8666667 32.7066667,61.3933333 32.2,61.06 C31.6933333,60.7266667 31.0933333,60.56 30.4,60.56 C29.7066667,60.56 29.1133333,60.7266667 28.62,61.06 C28.1266667,61.3933333 27.88,61.8666667 27.88,62.48 L27.88,62.48 L27.88,71.24 L24.24,71.24 C23.6266667,71.24 23.2,71.4333333 22.96,71.82 C22.72,72.2066667 22.6,72.7066667 22.6,73.32 C22.6,73.9333333 22.72,74.4333333 22.96,74.82 C23.2,75.2066667 23.6266667,75.4 24.24,75.4 L24.24,75.4 L27.88,75.4 L27.88,78.52 L24.24,78.52 C23.6533333,78.52 23.2333333,78.7133333 22.98,79.1 C22.7266667,79.4866667 22.6,79.9866667 22.6,80.6 C22.6,81.2133333 22.7266667,81.7133333 22.98,82.1 C23.2333333,82.4866667 23.6533333,82.68 24.24,82.68 L24.24,82.68 L27.88,82.68 L27.88,87.56 C27.88,88.3066667 28.12,88.8466667 28.6,89.18 C29.08,89.5133333 29.68,89.68 30.4,89.68 Z M16.4,65.64 C17.0133333,65.64 17.4533333,65.4333333 17.72,65.02 C17.9866667,64.6066667 18.12,64.12 18.12,63.56 C18.12,63.0266667 17.98,62.56 17.7,62.16 C17.42,61.76 16.9866667,61.56 16.4,61.56 L16.4,61.56 L8.04,61.56 C7.45333333,61.56 7.02666667,61.76 6.76,62.16 C6.49333333,62.56 6.36,63.0266667 6.36,63.56 C6.36,64.12 6.48666667,64.6066667 6.74,65.02 C6.99333333,65.4333333 7.42666667,65.64 8.04,65.64 L8.04,65.64 L16.4,65.64 Z M20.88,71.92 C21.4933333,71.92 21.9333333,71.7133333 22.2,71.3 C22.4666667,70.8866667 22.6,70.4 22.6,69.84 C22.6,69.3066667 22.46,68.8333333 22.18,68.42 C21.9,68.0066667 21.4666667,67.8 20.88,67.8 L20.88,67.8 L3.08,67.8 C2.49333333,67.8 2.06,68 1.78,68.4 C1.5,68.8 1.36,69.28 1.36,69.84 C1.36,70.4 1.49333333,70.8866667 1.76,71.3 C2.02666667,71.7133333 2.46666667,71.92 3.08,71.92 L3.08,71.92 L20.88,71.92 Z M12.4,85.56 C15.2266667,85.56 17.3866667,85 18.88,83.88 C20.3733333,82.76 21.12,81.28 21.12,79.44 C21.12,77.5733333 20.3733333,76.0866667 18.88,74.98 C17.3866667,73.8733333 15.2266667,73.32 12.4,73.32 C9.54666667,73.32 7.36666667,73.8733333 5.86,74.98 C4.35333333,76.0866667 3.6,77.5733333 3.6,79.44 C3.6,81.28 4.35333333,82.76 5.86,83.88 C7.36666667,85 9.54666667,85.56 12.4,85.56 Z M12.4,82.24 C11.0666667,82.24 10.0533333,81.9666667 9.36,81.42 C8.66666667,80.8733333 8.32,80.2133333 8.32,79.44 C8.32,78.6666667 8.66666667,78.0066667 9.36,77.46 C10.0533333,76.9133333 11.0666667,76.64 12.4,76.64 C13.7066667,76.64 14.7066667,76.9133333 15.4,77.46 C16.0933333,78.0066667 16.44,78.6666667 16.44,79.44 C16.44,80.2133333 16.0933333,80.8733333 15.4,81.42 C14.7066667,81.9666667 13.7066667,82.24 12.4,82.24 Z M32.36,98.36 C32.9733333,98.36 33.42,98.1466667 33.7,97.72 C33.98,97.2933333 34.12,96.7866667 34.12,96.2 C34.12,95.5866667 33.98,95.0733333 33.7,94.66 C33.42,94.2466667 32.9733333,94.04 32.36,94.04 L32.36,94.04 L14.24,94.04 C13.8133333,94.04 13.5466667,93.9933333 13.44,93.9 C13.3333333,93.8066667 13.28,93.5733333 13.28,93.2 L13.28,93.2 L13.28,89.04 C13.28,88.4266667 13.02,87.9533333 12.5,87.62 C11.98,87.2866667 11.3733333,87.12 10.68,87.12 C9.96,87.12 9.33333333,87.2866667 8.8,87.62 C8.26666667,87.9533333 8,88.4266667 8,89.04 L8,89.04 L8,94.76 C8,95.5066667 8.07333333,96.1133333 8.22,96.58 C8.36666667,97.0466667 8.59333333,97.4133333 8.9,97.68 C9.20666667,97.9466667 9.6,98.1266667 10.08,98.22 C10.56,98.3133333 11.1466667,98.36 11.84,98.36 L11.84,98.36 L32.36,98.36 Z M68.32,97.84 C69.04,97.84 69.6333333,97.68 70.1,97.36 C70.5666667,97.04 70.8,96.5333333 70.8,95.84 L70.8,95.84 L70.8,62.4 C70.8,61.8133333 70.56,61.36 70.08,61.04 C69.6,60.72 69.0133333,60.56 68.32,60.56 C67.6266667,60.56 67.0466667,60.72 66.58,61.04 C66.1133333,61.36 65.88,61.8133333 65.88,62.4 L65.88,62.4 L65.88,73.72 L62.36,73.72 L62.36,63.12 C62.36,62.5333333 62.1266667,62.0866667 61.66,61.78 C61.1933333,61.4733333 60.6133333,61.32 59.92,61.32 C59.2,61.32 58.6066667,61.4733333 58.14,61.78 C57.6733333,62.0866667 57.44,62.5333333 57.44,63.12 L57.44,63.12 L57.44,95.04 C57.44,95.7333333 57.6666667,96.2333333 58.12,96.54 C58.5733333,96.8466667 59.1733333,97 59.92,97 C60.6133333,97 61.1933333,96.8466667 61.66,96.54 C62.1266667,96.2333333 62.36,95.7333333 62.36,95.04 L62.36,95.04 L62.36,78.16 L65.88,78.16 L65.88,95.84 C65.88,96.5333333 66.1066667,97.04 66.56,97.36 C67.0133333,97.68 67.6,97.84 68.32,97.84 Z M39.72,89.26 C40.28,89.4333333 40.8666667,89.32 41.48,88.92 C42.12,88.52 42.7266667,88.0266667 43.3,87.44 C43.8733333,86.8533333 44.4,86.2133333 44.88,85.52 C45.36,84.8266667 45.78,84.0933333 46.14,83.32 C46.5,82.5466667 46.7866667,81.7733333 47,81 C47.24,81.8 47.5533333,82.5733333 47.94,83.32 C48.3266667,84.0666667 48.7666667,84.7666667 49.26,85.42 C49.7533333,86.0733333 50.2866667,86.6666667 50.86,87.2 C51.4333333,87.7333333 52,88.1866667 52.56,88.56 C53.04,88.88 53.5666667,89.0066667 54.14,88.94 C54.7133333,88.8733333 55.2,88.5866667 55.6,88.08 C56,87.5733333 56.1933333,87 56.18,86.36 C56.1666667,85.72 55.9066667,85.2 55.4,84.8 C54.5466667,84.16 53.76,83.4333333 53.04,82.62 C52.32,81.8066667 51.7,80.8533333 51.18,79.76 C50.66,78.6666667 50.2533333,77.4 49.96,75.96 C49.6666667,74.52 49.52,72.88 49.52,71.04 L49.52,71.04 L49.52,68.36 L54,68.36 C54.6133333,68.36 55.0533333,68.14 55.32,67.7 C55.5866667,67.26 55.72,66.7466667 55.72,66.16 C55.72,65.6 55.58,65.1133333 55.3,64.7 C55.02,64.2866667 54.5866667,64.08 54,64.08 L54,64.08 L39.92,64.08 C39.36,64.08 38.94,64.28 38.66,64.68 C38.38,65.08 38.24,65.5733333 38.24,66.16 C38.24,66.7466667 38.3666667,67.26 38.62,67.7 C38.8733333,68.14 39.3066667,68.36 39.92,68.36 L39.92,68.36 L44.52,68.36 L44.52,71.12 C44.52,73.0133333 44.3733333,74.6733333 44.08,76.1 C43.7866667,77.5266667 43.38,78.7933333 42.86,79.9 C42.34,81.0066667 41.7133333,81.9866667 40.98,82.84 C40.2466667,83.6933333 39.4533333,84.4933333 38.6,85.24 C38.12,85.6933333 37.88,86.22 37.88,86.82 C37.88,87.42 38.0533333,87.9466667 38.4,88.4 C38.72,88.8 39.16,89.0866667 39.72,89.26 Z M112.44,97.8 C113.186667,97.8 113.8,97.6333333 114.28,97.3 C114.76,96.9666667 115,96.44 115,95.72 L115,95.72 L115,77.8 L119.32,77.8 C119.933333,77.8 120.366667,77.5866667 120.62,77.16 C120.873333,76.7333333 121,76.2133333 121,75.6 C121,74.9866667 120.873333,74.4733333 120.62,74.06 C120.366667,73.6466667 119.933333,73.44 119.32,73.44 L119.32,73.44 L115,73.44 L115,62.52 C115,61.9066667 114.76,61.4333333 114.28,61.1 C113.8,60.7666667 113.186667,60.6 112.44,60.6 C111.746667,60.6 111.16,60.7666667 110.68,61.1 C110.2,61.4333333 109.96,61.9066667 109.96,62.52 L109.96,62.52 L109.96,95.72 C109.96,96.44 110.193333,96.9666667 110.66,97.3 C111.126667,97.6333333 111.72,97.8 112.44,97.8 Z M88.36,89.16 C88.7333333,89.16 89.16,89.0533333 89.64,88.84 C94.6,86.76 98.3666667,83.94 100.94,80.38 C103.513333,76.82 104.8,72.4133333 104.8,67.16 C104.8,66.44 104.74,65.8533333 104.62,65.4 C104.5,64.9466667 104.3,64.5866667 104.02,64.32 C103.74,64.0533333 103.373333,63.8733333 102.92,63.78 C102.466667,63.6866667 101.92,63.64 101.28,63.64 L101.28,63.64 L88.44,63.64 C87.9066667,63.64 87.48,63.8466667 87.16,64.26 C86.84,64.6733333 86.68,65.1866667 86.68,65.8 C86.68,66.4666667 86.84,67 87.16,67.4 C87.48,67.8 87.9066667,68 88.44,68 L88.44,68 L98.4,68 C98.8266667,68 99.1066667,68.0666667 99.24,68.2 C99.3733333,68.3333333 99.44,68.5866667 99.44,68.96 C99.44,70.8533333 99.1466667,72.5866667 98.56,74.16 C97.9733333,75.7333333 97.14,77.16 96.06,78.44 C94.98,79.72 93.68,80.8733333 92.16,81.9 C90.64,82.9266667 88.9466667,83.84 87.08,84.64 C86.7866667,84.7733333 86.54,85.0133333 86.34,85.36 C86.14,85.7066667 86.04,86.0933333 86.04,86.52 C86.04,87.32 86.2933333,87.96 86.8,88.44 C87.3066667,88.92 87.8266667,89.16 88.36,89.16 Z M151.52,82.76 C152.266667,82.76 152.873333,82.5933333 153.34,82.26 C153.806667,81.9266667 154.04,81.3866667 154.04,80.64 L154.04,80.64 L154.04,62.48 C154.04,61.8666667 153.793333,61.4 153.3,61.08 C152.806667,60.76 152.213333,60.6 151.52,60.6 C150.826667,60.6 150.233333,60.76 149.74,61.08 C149.246667,61.4 149,61.8666667 149,62.48 L149,62.48 L149,66.28 L142.04,66.28 C142.04,66.1733333 142.046667,66.0733333 142.06,65.98 C142.073333,65.8866667 142.08,65.7733333 142.08,65.64 C142.08,64.52 141.84,63.7466667 141.36,63.32 C140.88,62.8933333 140.013333,62.68 138.76,62.68 L138.76,62.68 L125.92,62.68 C125.36,62.68 124.94,62.8866667 124.66,63.3 C124.38,63.7133333 124.24,64.2266667 124.24,64.84 C124.24,65.48 124.38,66.0066667 124.66,66.42 C124.94,66.8333333 125.36,67.04 125.92,67.04 L125.92,67.04 L135.52,67.04 C135.946667,67.04 136.226667,67.0866667 136.36,67.18 C136.493333,67.2733333 136.56,67.4266667 136.56,67.64 C136.56,68.92 136.253333,70.0933333 135.64,71.16 C135.026667,72.2266667 134.186667,73.1866667 133.12,74.04 C132.053333,74.8933333 130.8,75.64 129.36,76.28 C127.92,76.92 126.373333,77.44 124.72,77.84 C124.293333,77.9466667 123.966667,78.1733333 123.74,78.52 C123.513333,78.8666667 123.4,79.2666667 123.4,79.72 C123.4,80.4933333 123.626667,81.12 124.08,81.6 C124.533333,82.08 125.026667,82.32 125.56,82.32 C125.8,82.32 126.066667,82.28 126.36,82.2 C128.146667,81.7733333 129.84,81.2066667 131.44,80.5 C133.04,79.7933333 134.486667,78.9466667 135.78,77.96 C137.073333,76.9733333 138.186667,75.86 139.12,74.62 C140.053333,73.38 140.773333,72.0133333 141.28,70.52 L141.28,70.52 L149,70.52 L149,73.96 L142.6,73.96 C141.986667,73.96 141.553333,74.1533333 141.3,74.54 C141.046667,74.9266667 140.92,75.4266667 140.92,76.04 C140.92,76.68 141.046667,77.1933333 141.3,77.58 C141.553333,77.9666667 141.986667,78.16 142.6,78.16 L142.6,78.16 L149,78.16 L149,80.64 C149,81.3333333 149.226667,81.86 149.68,82.22 C150.133333,82.58 150.746667,82.76 151.52,82.76 Z M151.44,99.08 C152.106667,99.08 152.706667,98.92 153.24,98.6 C153.773333,98.28 154.04,97.8133333 154.04,97.2 L154.04,97.2 L154.04,88 C154.04,86.5866667 153.753333,85.6333333 153.18,85.14 C152.606667,84.6466667 151.64,84.4 150.28,84.4 L150.28,84.4 L130.28,84.4 C129.666667,84.4 129.213333,84.6066667 128.92,85.02 C128.626667,85.4333333 128.48,85.9466667 128.48,86.56 C128.48,87.1733333 128.626667,87.68 128.92,88.08 C129.213333,88.48 129.666667,88.68 130.28,88.68 L130.28,88.68 L147.96,88.68 C148.333333,88.68 148.566667,88.72 148.66,88.8 C148.753333,88.88 148.8,89.1066667 148.8,89.48 L148.8,89.48 L148.8,97.2 C148.8,97.8133333 149.066667,98.28 149.6,98.6 C150.133333,98.92 150.746667,99.08 151.44,99.08 Z M176.36,74.2 C178.653333,74.2 180.613333,74.04 182.24,73.72 C183.866667,73.4 185.2,72.9533333 186.24,72.38 C187.28,71.8066667 188.04,71.1133333 188.52,70.3 C189,69.4866667 189.24,68.5866667 189.24,67.6 C189.24,66.6133333 189,65.7133333 188.52,64.9 C188.04,64.0866667 187.28,63.3866667 186.24,62.8 C185.2,62.2133333 183.866667,61.7666667 182.24,61.46 C180.613333,61.1533333 178.653333,61 176.36,61 C174.066667,61 172.106667,61.1533333 170.48,61.46 C168.853333,61.7666667 167.52,62.2133333 166.48,62.8 C165.44,63.3866667 164.673333,64.0866667 164.18,64.9 C163.686667,65.7133333 163.44,66.6133333 163.44,67.6 C163.44,68.5866667 163.686667,69.4866667 164.18,70.3 C164.673333,71.1133333 165.44,71.8066667 166.48,72.38 C167.52,72.9533333 168.853333,73.4 170.48,73.72 C172.106667,74.04 174.066667,74.2 176.36,74.2 Z M176.36,70.32 C173.64,70.32 171.706667,70.08 170.56,69.6 C169.413333,69.12 168.84,68.4533333 168.84,67.6 C168.84,66.72 169.413333,66.0333333 170.56,65.54 C171.706667,65.0466667 173.64,64.8 176.36,64.8 C179.106667,64.8 181.04,65.0466667 182.16,65.54 C183.28,66.0333333 183.84,66.72 183.84,67.6 C183.84,68.4533333 183.28,69.12 182.16,69.6 C181.04,70.08 179.106667,70.32 176.36,70.32 Z M192.12,80.12 C192.653333,80.12 193.053333,79.92 193.32,79.52 C193.586667,79.12 193.72,78.6533333 193.72,78.12 C193.72,77.5866667 193.586667,77.1133333 193.32,76.7 C193.053333,76.2866667 192.653333,76.08 192.12,76.08 L192.12,76.08 L160.52,76.08 C159.986667,76.08 159.593333,76.2866667 159.34,76.7 C159.086667,77.1133333 158.96,77.5866667 158.96,78.12 C158.96,78.6533333 159.086667,79.12 159.34,79.52 C159.593333,79.92 159.986667,80.12 160.52,80.12 L160.52,80.12 L192.12,80.12 Z M188.64,98.8 C189.2,98.8 189.613333,98.6 189.88,98.2 C190.146667,97.8 190.28,97.2933333 190.28,96.68 C190.28,96.0933333 190.146667,95.6133333 189.88,95.24 C189.613333,94.8666667 189.2,94.68 188.64,94.68 L188.64,94.68 L169.88,94.68 C169.533333,94.68 169.32,94.6466667 169.24,94.58 C169.16,94.5133333 169.12,94.3466667 169.12,94.08 L169.12,94.08 L169.12,92.96 C169.12,92.6933333 169.16,92.5266667 169.24,92.46 C169.32,92.3933333 169.533333,92.36 169.88,92.36 L169.88,92.36 L185.44,92.36 C186.72,92.36 187.6,92.08 188.08,91.52 C188.56,90.96 188.8,90.1066667 188.8,88.96 L188.8,88.96 L188.8,85.76 C188.8,84.6933333 188.56,83.8866667 188.08,83.34 C187.6,82.7933333 186.72,82.52 185.44,82.52 L185.44,82.52 L165.28,82.52 C164.746667,82.52 164.34,82.7066667 164.06,83.08 C163.78,83.4533333 163.64,83.9466667 163.64,84.56 C163.64,85.1466667 163.78,85.6266667 164.06,86 C164.34,86.3733333 164.746667,86.56 165.28,86.56 L165.28,86.56 L182.72,86.56 C183.093333,86.56 183.313333,86.5933333 183.38,86.66 C183.446667,86.7266667 183.48,86.88 183.48,87.12 L183.48,87.12 L183.48,88.2 C183.48,88.4666667 183.44,88.6266667 183.36,88.68 C183.28,88.7333333 183.066667,88.76 182.72,88.76 L182.72,88.76 L166.88,88.76 C165.68,88.76 164.866667,89.0133333 164.44,89.52 C164.013333,90.0266667 163.8,90.7866667 163.8,91.8 L163.8,91.8 L163.8,95.44 C163.8,96.72 164.106667,97.6 164.72,98.08 C165.333333,98.56 166.32,98.8 167.68,98.8 L167.68,98.8 L188.64,98.8 Z M235.52,97.8 C236.24,97.8 236.84,97.6333333 237.32,97.3 C237.8,96.9666667 238.04,96.44 238.04,95.72 L238.04,95.72 L238.04,62.52 C238.04,61.9066667 237.793333,61.4333333 237.3,61.1 C236.806667,60.7666667 236.213333,60.6 235.52,60.6 C234.773333,60.6 234.16,60.7666667 233.68,61.1 C233.2,61.4333333 232.96,61.9066667 232.96,62.52 L232.96,62.52 L232.96,95.72 C232.96,96.44 233.2,96.9666667 233.68,97.3 C234.16,97.6333333 234.773333,97.8 235.52,97.8 Z M223.32,87.52 C224.706667,87.52 225.693333,87.2533333 226.28,86.72 C226.866667,86.1866667 227.16,85.2666667 227.16,83.96 L227.16,83.96 L227.16,64.4 C227.16,63.7866667 226.906667,63.3266667 226.4,63.02 C225.893333,62.7133333 225.293333,62.56 224.6,62.56 C223.933333,62.56 223.353333,62.7133333 222.86,63.02 C222.366667,63.3266667 222.12,63.7866667 222.12,64.4 L222.12,64.4 L222.12,71.32 L213.76,71.32 L213.76,64.4 C213.76,63.7866667 213.513333,63.3333333 213.02,63.04 C212.526667,62.7466667 211.92,62.6 211.2,62.6 C210.56,62.6 209.986667,62.7466667 209.48,63.04 C208.973333,63.3333333 208.72,63.7866667 208.72,64.4 L208.72,64.4 L208.72,83.92 C208.72,85.2533333 208.986667,86.1866667 209.52,86.72 C210.053333,87.2533333 211.04,87.52 212.48,87.52 L212.48,87.52 L223.32,87.52 Z M221.16,83.32 L214.64,83.32 C214.266667,83.32 214.026667,83.2733333 213.92,83.18 C213.813333,83.0866667 213.76,82.8133333 213.76,82.36 L213.76,82.36 L213.76,75.36 L222.12,75.36 L222.12,82.32 C222.12,82.7733333 222.073333,83.0533333 221.98,83.16 C221.886667,83.2666667 221.613333,83.32 221.16,83.32 L221.16,83.32 Z M270.24,83.44 C270.773333,83.44 271.24,83.3066667 271.64,83.04 C272.04,82.7733333 272.346667,82.3333333 272.56,81.72 C272.8,81.0533333 273.006667,80.3 273.18,79.46 C273.353333,78.62 273.5,77.74 273.62,76.82 C273.74,75.9 273.826667,74.96 273.88,74 C273.933333,73.04 273.96,72.1066667 273.96,71.2 L273.96,71.2 L273.96,67.16 C273.96,65.9066667 273.68,65.0133333 273.12,64.48 C272.56,63.9466667 271.586667,63.68 270.2,63.68 L270.2,63.68 L249.08,63.68 C248.466667,63.68 248.02,63.8866667 247.74,64.3 C247.46,64.7133333 247.32,65.24 247.32,65.88 C247.32,66.4933333 247.46,67.02 247.74,67.46 C248.02,67.9 248.466667,68.12 249.08,68.12 L249.08,68.12 L267.72,68.12 C268.146667,68.12 268.406667,68.1866667 268.5,68.32 C268.593333,68.4533333 268.64,68.7066667 268.64,69.08 L268.64,69.08 L268.64,71.84 C268.64,73.36 268.553333,74.9133333 268.38,76.5 C268.206667,78.0866667 267.96,79.48 267.64,80.68 C267.613333,80.8133333 267.593333,80.9266667 267.58,81.02 C267.566667,81.1133333 267.56,81.2133333 267.56,81.32 C267.56,81.96 267.806667,82.4733333 268.3,82.86 C268.793333,83.2466667 269.44,83.44 270.24,83.44 Z M276.32,92.6 C276.88,92.6 277.3,92.3933333 277.58,91.98 C277.86,91.5666667 278,91.04 278,90.4 C278,89.7866667 277.86,89.2733333 277.58,88.86 C277.3,88.4466667 276.88,88.24 276.32,88.24 L276.32,88.24 L265.12,88.24 L265.12,77.84 C265.12,77.2266667 264.866667,76.7733333 264.36,76.48 C263.853333,76.1866667 263.253333,76.04 262.56,76.04 C261.866667,76.04 261.266667,76.1866667 260.76,76.48 C260.253333,76.7733333 260,77.2266667 260,77.84 L260,77.84 L260,88.24 L256.32,88.24 L256.32,77.84 C256.32,77.2266667 256.073333,76.7733333 255.58,76.48 C255.086667,76.1866667 254.493333,76.04 253.8,76.04 C253.106667,76.04 252.513333,76.1866667 252.02,76.48 C251.526667,76.7733333 251.28,77.2266667 251.28,77.84 L251.28,77.84 L251.28,88.24 L244.88,88.24 C244.346667,88.24 243.94,88.4466667 243.66,88.86 C243.38,89.2733333 243.24,89.7866667 243.24,90.4 C243.24,91.04 243.38,91.5666667 243.66,91.98 C243.94,92.3933333 244.346667,92.6 244.88,92.6 L244.88,92.6 L276.32,92.6 Z M307.36,82.36 C308.106667,82.36 308.713333,82.2 309.18,81.88 C309.646667,81.56 309.88,81.0266667 309.88,80.28 L309.88,80.28 L309.88,74.84 L314.12,74.84 C314.733333,74.84 315.173333,74.6333333 315.44,74.22 C315.706667,73.8066667 315.84,73.2933333 315.84,72.68 C315.84,72.0666667 315.706667,71.5533333 315.44,71.14 C315.173333,70.7266667 314.733333,70.52 314.12,70.52 L314.12,70.52 L309.88,70.52 L309.88,62.48 C309.88,61.8666667 309.633333,61.3933333 309.14,61.06 C308.646667,60.7266667 308.053333,60.56 307.36,60.56 C306.666667,60.56 306.073333,60.7266667 305.58,61.06 C305.086667,61.3933333 304.84,61.8666667 304.84,62.48 L304.84,62.48 L304.84,80.28 C304.84,81.0266667 305.073333,81.56 305.54,81.88 C306.006667,82.2 306.613333,82.36 307.36,82.36 Z M295.6,64.68 C296.213333,64.68 296.653333,64.5 296.92,64.14 C297.186667,63.78 297.32,63.32 297.32,62.76 C297.32,62.2266667 297.18,61.78 296.9,61.42 C296.62,61.06 296.186667,60.88 295.6,60.88 L295.6,60.88 L286.84,60.88 C286.253333,60.88 285.826667,61.06 285.56,61.42 C285.293333,61.78 285.16,62.2266667 285.16,62.76 C285.16,63.32 285.286667,63.78 285.54,64.14 C285.793333,64.5 286.226667,64.68 286.84,64.68 L286.84,64.68 L295.6,64.68 Z M300.6,70.44 C301.213333,70.44 301.653333,70.2466667 301.92,69.86 C302.186667,69.4733333 302.32,69.0133333 302.32,68.48 C302.32,67.9466667 302.18,67.4866667 301.9,67.1 C301.62,66.7133333 301.186667,66.52 300.6,66.52 L300.6,66.52 L281.56,66.52 C280.973333,66.52 280.546667,66.7066667 280.28,67.08 C280.013333,67.4533333 279.88,67.92 279.88,68.48 C279.88,69.0133333 280.006667,69.4733333 280.26,69.86 C280.513333,70.2466667 280.946667,70.44 281.56,70.44 L281.56,70.44 L300.6,70.44 Z M291.36,82.04 C294.186667,82.04 296.353333,81.5733333 297.86,80.64 C299.366667,79.7066667 300.12,78.4266667 300.12,76.8 C300.12,75.1733333 299.366667,73.8933333 297.86,72.96 C296.353333,72.0266667 294.186667,71.56 291.36,71.56 C288.48,71.56 286.286667,72.0266667 284.78,72.96 C283.273333,73.8933333 282.52,75.1733333 282.52,76.8 C282.52,78.4266667 283.273333,79.7066667 284.78,80.64 C286.286667,81.5733333 288.48,82.04 291.36,82.04 Z M291.36,78.84 C290,78.84 288.993333,78.6533333 288.34,78.28 C287.686667,77.9066667 287.36,77.4133333 287.36,76.8 C287.36,76.24 287.686667,75.7666667 288.34,75.38 C288.993333,74.9933333 290,74.8 291.36,74.8 C292.693333,74.8 293.686667,74.9933333 294.34,75.38 C294.993333,75.7666667 295.32,76.24 295.32,76.8 C295.32,77.4133333 294.993333,77.9066667 294.34,78.28 C293.686667,78.6533333 292.693333,78.84 291.36,78.84 Z M309.8,98.96 C310.36,98.96 310.773333,98.78 311.04,98.42 C311.306667,98.06 311.44,97.5733333 311.44,96.96 C311.44,96.3733333 311.306667,95.9133333 311.04,95.58 C310.773333,95.2466667 310.36,95.08 309.8,95.08 L309.8,95.08 L291.64,95.08 C291.293333,95.08 291.066667,95.06 290.96,95.02 C290.853333,94.98 290.8,94.8266667 290.8,94.56 L290.8,94.56 L290.8,93.36 C290.8,93.12 290.853333,92.9733333 290.96,92.92 C291.066667,92.8666667 291.306667,92.84 291.68,92.84 L291.68,92.84 L306.68,92.84 C307.986667,92.84 308.846667,92.6133333 309.26,92.16 C309.673333,91.7066667 309.88,90.9066667 309.88,89.76 L309.88,89.76 L309.88,86.64 C309.88,85.5466667 309.666667,84.78 309.24,84.34 C308.813333,83.9 307.96,83.68 306.68,83.68 L306.68,83.68 L287.04,83.68 C286.48,83.68 286.053333,83.8533333 285.76,84.2 C285.466667,84.5466667 285.32,85.0133333 285.32,85.6 C285.32,86.8533333 285.893333,87.48 287.04,87.48 L287.04,87.48 L303.76,87.48 C304.133333,87.48 304.373333,87.5133333 304.48,87.58 C304.586667,87.6466667 304.64,87.8 304.64,88.04 L304.64,88.04 L304.64,89 C304.64,89.2666667 304.586667,89.4266667 304.48,89.48 C304.373333,89.5333333 304.133333,89.56 303.76,89.56 L303.76,89.56 L288.48,89.56 C287.306667,89.56 286.52,89.7933333 286.12,90.26 C285.72,90.7266667 285.52,91.48 285.52,92.52 L285.52,92.52 L285.52,95.64 C285.52,96.8933333 285.766667,97.76 286.26,98.24 C286.753333,98.72 287.666667,98.96 289,98.96 L289,98.96 L309.8,98.96 Z M344.48,97.8 C345.226667,97.8 345.82,97.6333333 346.26,97.3 C346.7,96.9666667 346.92,96.44 346.92,95.72 L346.92,95.72 L346.92,77.8 L350.96,77.8 C351.573333,77.8 352.006667,77.5866667 352.26,77.16 C352.513333,76.7333333 352.64,76.2133333 352.64,75.6 C352.64,74.9866667 352.513333,74.4666667 352.26,74.04 C352.006667,73.6133333 351.573333,73.4 350.96,73.4 L350.96,73.4 L346.92,73.4 L346.92,62.52 C346.92,61.9066667 346.693333,61.4333333 346.24,61.1 C345.786667,60.7666667 345.2,60.6 344.48,60.6 C343.76,60.6 343.173333,60.7666667 342.72,61.1 C342.266667,61.4333333 342.04,61.9066667 342.04,62.52 L342.04,62.52 L342.04,95.72 C342.04,96.44 342.26,96.9666667 342.7,97.3 C343.14,97.6333333 343.733333,97.8 344.48,97.8 Z M330.04,90.4 C330.733333,90.4 331.306667,90.1333333 331.76,89.6 C334.186667,86.9333333 335.946667,83.7933333 337.04,80.18 C338.133333,76.5666667 338.68,72.48 338.68,67.92 C338.68,66.5066667 338.46,65.5133333 338.02,64.94 C337.58,64.3666667 336.76,64.08 335.56,64.08 L335.56,64.08 L330.96,64.08 C330.426667,64.08 330.006667,64.28 329.7,64.68 C329.393333,65.08 329.24,65.5866667 329.24,66.2 C329.24,66.8133333 329.393333,67.32 329.7,67.72 C330.006667,68.12 330.426667,68.32 330.96,68.32 L330.96,68.32 L332.84,68.32 C333.266667,68.32 333.526667,68.4 333.62,68.56 C333.713333,68.72 333.76,69.0533333 333.76,69.56 C333.733333,71.1333333 333.626667,72.6733333 333.44,74.18 C333.253333,75.6866667 332.94,77.1466667 332.5,78.56 C332.06,79.9733333 331.48,81.3533333 330.76,82.7 C330.04,84.0466667 329.146667,85.3466667 328.08,86.6 C327.92,86.8133333 327.786667,87.0333333 327.68,87.26 C327.573333,87.4866667 327.52,87.7333333 327.52,88 C327.52,88.24 327.586667,88.5 327.72,88.78 C327.853333,89.06 328.04,89.32 328.28,89.56 C328.52,89.8 328.793333,90 329.1,90.16 C329.406667,90.32 329.72,90.4 330.04,90.4 Z M319.2,88.08 C319.786667,88.08 320.306667,87.8533333 320.76,87.4 C323.32,84.7866667 325.186667,81.8933333 326.36,78.72 C327.533333,75.5466667 328.12,71.9466667 328.12,67.92 C328.12,66.6133333 327.946667,65.6466667 327.6,65.02 C327.253333,64.3933333 326.506667,64.08 325.36,64.08 L325.36,64.08 L319.28,64.08 C318.746667,64.08 318.34,64.28 318.06,64.68 C317.78,65.08 317.64,65.5866667 317.64,66.2 C317.64,66.8133333 317.78,67.32 318.06,67.72 C318.34,68.12 318.746667,68.32 319.28,68.32 L319.28,68.32 L322.28,68.32 C322.653333,68.32 322.9,68.3733333 323.02,68.48 C323.14,68.5866667 323.2,68.8266667 323.2,69.2 C323.2,71.92 322.813333,74.52 322.04,77 C321.266667,79.48 319.84,81.7733333 317.76,83.88 L317.76,83.88 L317.48,84.16 C317.266667,84.3733333 317.1,84.62 316.98,84.9 C316.86,85.18 316.8,85.4666667 316.8,85.76 C316.8,86.3466667 317.053333,86.88 317.56,87.36 C318.066667,87.84 318.613333,88.08 319.2,88.08 Z M371.16,81.08 C373.48,81.08 375.473333,80.8466667 377.14,80.38 C378.806667,79.9133333 380.18,79.26 381.26,78.42 C382.34,77.58 383.133333,76.58 383.64,75.42 C384.146667,74.26 384.4,73 384.4,71.64 C384.4,70.28 384.146667,69.0266667 383.64,67.88 C383.133333,66.7333333 382.34,65.7466667 381.26,64.92 C380.18,64.0933333 378.806667,63.4466667 377.14,62.98 C375.473333,62.5133333 373.48,62.28 371.16,62.28 C368.866667,62.28 366.886667,62.5133333 365.22,62.98 C363.553333,63.4466667 362.18,64.0933333 361.1,64.92 C360.02,65.7466667 359.22,66.7333333 358.7,67.88 C358.18,69.0266667 357.92,70.28 357.92,71.64 C357.92,73 358.18,74.26 358.7,75.42 C359.22,76.58 360.02,77.58 361.1,78.42 C362.18,79.26 363.553333,79.9133333 365.22,80.38 C366.886667,80.8466667 368.866667,81.08 371.16,81.08 Z M371.16,76.64 C368.386667,76.64 366.36,76.18 365.08,75.26 C363.8,74.34 363.16,73.1333333 363.16,71.64 C363.16,70.1733333 363.8,68.9733333 365.08,68.04 C366.36,67.1066667 368.386667,66.64 371.16,66.64 C373.933333,66.64 375.96,67.1066667 377.24,68.04 C378.52,68.9733333 379.16,70.1733333 379.16,71.64 C379.16,73.1333333 378.52,74.34 377.24,75.26 C375.96,76.18 373.933333,76.64 371.16,76.64 Z M386.88,92.84 C387.413333,92.84 387.82,92.6266667 388.1,92.2 C388.38,91.7733333 388.52,91.2533333 388.52,90.64 C388.52,90.0266667 388.386667,89.5133333 388.12,89.1 C387.853333,88.6866667 387.44,88.48 386.88,88.48 L386.88,88.48 L380.48,88.48 L380.48,83.44 C380.48,82.8266667 380.22,82.38 379.7,82.1 C379.18,81.82 378.56,81.68 377.84,81.68 C377.146667,81.68 376.54,81.82 376.02,82.1 C375.5,82.38 375.24,82.8266667 375.24,83.44 L375.24,83.44 L375.24,88.48 L367.04,88.48 L367.04,83.44 C367.04,82.8266667 366.786667,82.38 366.28,82.1 C365.773333,81.82 365.173333,81.68 364.48,81.68 C363.786667,81.68 363.173333,81.82 362.64,82.1 C362.106667,82.38 361.84,82.8266667 361.84,83.44 L361.84,83.44 L361.84,88.48 L355.4,88.48 C354.866667,88.48 354.46,88.6866667 354.18,89.1 C353.9,89.5133333 353.76,90.0266667 353.76,90.64 C353.76,91.2533333 353.9,91.7733333 354.18,92.2 C354.46,92.6266667 354.866667,92.84 355.4,92.84 L355.4,92.84 L386.88,92.84 Z M399.38,86.7 C399.98,86.6866667 400.533333,86.5066667 401.04,86.16 C401.546667,85.8133333 401.8,85.3066667 401.8,84.64 L401.8,84.64 L401.8,82.52 C401.8,81.72 401.946667,81.0533333 402.24,80.52 C402.533333,79.9866667 403.106667,79.4933333 403.96,79.04 C404.733333,78.6133333 405.493333,78.1133333 406.24,77.54 C406.986667,76.9666667 407.66,76.3066667 408.26,75.56 C408.86,74.8133333 409.34,74 409.7,73.12 C410.06,72.24 410.24,71.2933333 410.24,70.28 C410.24,67.6933333 409.386667,65.64 407.68,64.12 C405.973333,62.6 403.586667,61.84 400.52,61.84 C399.48,61.84 398.5,61.96 397.58,62.2 C396.66,62.44 395.82,62.7666667 395.06,63.18 C394.3,63.5933333 393.646667,64.0866667 393.1,64.66 C392.553333,65.2333333 392.133333,65.84 391.84,66.48 C391.6,67.0133333 391.593333,67.54 391.82,68.06 C392.046667,68.58 392.393333,68.9866667 392.86,69.28 C393.326667,69.5733333 393.86,69.7 394.46,69.66 C395.06,69.62 395.6,69.3066667 396.08,68.72 C396.613333,68.1066667 397.246667,67.5866667 397.98,67.16 C398.713333,66.7333333 399.48,66.52 400.28,66.52 C401.666667,66.52 402.746667,66.8533333 403.52,67.52 C404.293333,68.1866667 404.68,69.2 404.68,70.56 C404.68,71.1733333 404.546667,71.76 404.28,72.32 C404.013333,72.88 403.673333,73.4 403.26,73.88 C402.846667,74.36 402.373333,74.8 401.84,75.2 C401.306667,75.6 400.773333,75.9466667 400.24,76.24 C399.173333,76.8533333 398.36,77.6066667 397.8,78.5 C397.24,79.3933333 396.96,80.5333333 396.96,81.92 L396.96,81.92 L396.96,84.64 C396.96,85.36 397.213333,85.8866667 397.72,86.22 C398.226667,86.5533333 398.78,86.7133333 399.38,86.7 Z M399.28,95.72 C400.133333,95.72 400.846667,95.4333333 401.42,94.86 C401.993333,94.2866667 402.28,93.5733333 402.28,92.72 C402.28,91.8666667 401.993333,91.1466667 401.42,90.56 C400.846667,89.9733333 400.133333,89.68 399.28,89.68 C398.426667,89.68 397.706667,89.9733333 397.12,90.56 C396.533333,91.1466667 396.24,91.8666667 396.24,92.72 C396.24,93.5733333 396.533333,94.2866667 397.12,94.86 C397.706667,95.4333333 398.426667,95.72 399.28,95.72 Z" id="왜우리는매번현재가격을비교할까요?" fill="#000000" fill-rule="nonzero"></path>
    </g>
</svg>