<?xml version="1.0" encoding="UTF-8"?>
<svg width="215px" height="203px" viewBox="0 0 215 203" version="1.1" xmlns="http://www.w3.org/2000/svg" xmlns:xlink="http://www.w3.org/1999/xlink">
    <!-- Generator: Sketch 63.1 (92452) - https://sketch.com -->
    <title>언제든가볍게지구산책</title>
    <desc>Created with Sketch.</desc>
    <g id="Page-1" stroke="none" stroke-width="1" fill="none" fill-rule="evenodd">
        <g id="PC_서비스소개" transform="translate(-3.000000, -808.000000)" fill="#FFFFFF" fill-rule="nonzero">
            <g id="title-copy" transform="translate(0.000000, 229.000000)">
                <path d="M73.71,620.82 C74.83,620.82 75.74,620.56 76.44,620.04 C77.14,619.52 77.49,618.72 77.49,617.64 L77.49,617.64 L77.49,582.72 C77.49,581.8 77.12,581.1 76.38,580.62 C75.64,580.14 74.75,579.9 73.71,579.9 C72.67,579.9 71.78,580.14 71.04,580.62 C70.3,581.1 69.93,581.8 69.93,582.72 L69.93,582.72 L69.93,594 L60.99,594 C60.63,592.44 60.03,591.02 59.19,589.74 C58.35,588.46 57.3,587.36 56.04,586.44 C54.78,585.52 53.33,584.81 51.69,584.31 C50.05,583.81 48.25,583.56 46.29,583.56 C44.01,583.56 41.94,583.9 40.08,584.58 C38.22,585.26 36.64,586.21 35.34,587.43 C34.04,588.65 33.03,590.1 32.31,591.78 C31.59,593.46 31.23,595.3 31.23,597.3 C31.23,599.3 31.59,601.14 32.31,602.82 C33.03,604.5 34.04,605.94 35.34,607.14 C36.64,608.34 38.22,609.28 40.08,609.96 C41.94,610.64 44.01,610.98 46.29,610.98 C50.25,610.98 53.52,610.02 56.1,608.1 C58.68,606.18 60.31,603.64 60.99,600.48 L60.99,600.48 L69.93,600.48 L69.93,617.64 C69.93,618.72 70.29,619.52 71.01,620.04 C71.73,620.56 72.63,620.82 73.71,620.82 Z M46.29,604.8 C43.89,604.8 42.01,604.1 40.65,602.7 C39.29,601.3 38.61,599.48 38.61,597.24 C38.61,595 39.29,593.18 40.65,591.78 C42.01,590.38 43.89,589.68 46.29,589.68 C48.73,589.68 50.62,590.38 51.96,591.78 C53.3,593.18 53.97,595 53.97,597.24 C53.97,599.48 53.3,601.3 51.96,602.7 C50.62,604.1 48.73,604.8 46.29,604.8 Z M76.47,636.06 C77.39,636.06 78.06,635.75 78.48,635.13 C78.9,634.51 79.11,633.72 79.11,632.76 C79.11,631.88 78.9,631.13 78.48,630.51 C78.06,629.89 77.39,629.58 76.47,629.58 L76.47,629.58 L49.83,629.58 C49.27,629.58 48.91,629.5 48.75,629.34 C48.59,629.18 48.51,628.82 48.51,628.26 L48.51,628.26 L48.51,618.66 C48.51,617.74 48.12,617.03 47.34,616.53 C46.56,616.03 45.61,615.78 44.49,615.78 C43.45,615.78 42.53,616.03 41.73,616.53 C40.93,617.03 40.53,617.74 40.53,618.66 L40.53,618.66 L40.53,630.66 C40.53,631.78 40.64,632.69 40.86,633.39 C41.08,634.09 41.41,634.64 41.85,635.04 C42.29,635.44 42.87,635.71 43.59,635.85 C44.31,635.99 45.19,636.06 46.23,636.06 L46.23,636.06 L76.47,636.06 Z M130.59,635.7 C131.71,635.7 132.61,635.46 133.29,634.98 C133.97,634.5 134.31,633.74 134.31,632.7 L134.31,632.7 L134.31,582.6 C134.31,581.76 133.96,581.1 133.26,580.62 C132.56,580.14 131.67,579.9 130.59,579.9 C129.55,579.9 128.68,580.14 127.98,580.62 C127.28,581.1 126.93,581.76 126.93,582.6 L126.93,582.6 L126.93,632.7 C126.93,633.74 127.28,634.5 127.98,634.98 C128.68,635.46 129.55,635.7 130.59,635.7 Z M118.83,634.5 C119.87,634.5 120.73,634.27 121.41,633.81 C122.09,633.35 122.43,632.6 122.43,631.56 L122.43,631.56 L122.43,583.68 C122.43,582.8 122.08,582.13 121.38,581.67 C120.68,581.21 119.83,580.98 118.83,580.98 C117.79,580.98 116.92,581.21 116.22,581.67 C115.52,582.13 115.17,582.8 115.17,583.68 L115.17,583.68 L115.17,598.68 L109.35,598.68 C108.43,598.68 107.75,598.99 107.31,599.61 C106.87,600.23 106.65,601.06 106.65,602.1 C106.65,603.1 106.87,603.91 107.31,604.53 C107.75,605.15 108.43,605.46 109.35,605.46 L109.35,605.46 L115.17,605.46 L115.17,631.56 C115.17,632.6 115.52,633.35 116.22,633.81 C116.92,634.27 117.79,634.5 118.83,634.5 Z M87.69,622.89 C88.53,623.15 89.41,622.98 90.33,622.38 C91.29,621.78 92.2,621.04 93.06,620.16 C93.92,619.28 94.71,618.32 95.43,617.28 C96.15,616.24 96.78,615.14 97.32,613.98 C97.86,612.82 98.29,611.66 98.61,610.5 C98.97,611.7 99.44,612.86 100.02,613.98 C100.6,615.1 101.26,616.15 102,617.13 C102.74,618.11 103.54,619 104.4,619.8 C105.26,620.6 106.11,621.28 106.95,621.84 C107.67,622.32 108.46,622.51 109.32,622.41 C110.18,622.31 110.91,621.88 111.51,621.12 C112.11,620.36 112.4,619.5 112.38,618.54 C112.36,617.58 111.97,616.8 111.21,616.2 C109.93,615.24 108.75,614.15 107.67,612.93 C106.59,611.71 105.66,610.28 104.88,608.64 C104.1,607 103.49,605.1 103.05,602.94 C102.61,600.78 102.39,598.32 102.39,595.56 L102.39,595.56 L102.39,591.6 L109.11,591.6 C110.03,591.6 110.69,591.27 111.09,590.61 C111.49,589.95 111.69,589.18 111.69,588.3 C111.69,587.46 111.47,586.72 111.03,586.08 C110.59,585.44 109.95,585.12 109.11,585.12 L109.11,585.12 L87.99,585.12 C87.15,585.12 86.52,585.43 86.1,586.05 C85.68,586.67 85.47,587.42 85.47,588.3 C85.47,589.18 85.66,589.95 86.04,590.61 C86.42,591.27 87.07,591.6 87.99,591.6 L87.99,591.6 L94.89,591.6 L94.89,595.68 C94.89,598.52 94.67,601.01 94.23,603.15 C93.79,605.29 93.18,607.19 92.4,608.85 C91.62,610.51 90.68,611.98 89.58,613.26 C88.48,614.54 87.29,615.74 86.01,616.86 C85.29,617.54 84.93,618.33 84.93,619.23 C84.93,620.13 85.19,620.92 85.71,621.6 C86.19,622.2 86.85,622.63 87.69,622.89 Z M182.85,603.54 C183.77,603.54 184.44,603.25 184.86,602.67 C185.28,602.09 185.49,601.32 185.49,600.36 C185.49,599.44 185.28,598.69 184.86,598.11 C184.44,597.53 183.77,597.24 182.85,597.24 L182.85,597.24 L157.17,597.24 C156.57,597.24 156.19,597.15 156.03,596.97 C155.87,596.79 155.79,596.42 155.79,595.86 L155.79,595.86 L155.79,589.56 C155.79,588.92 155.87,588.52 156.03,588.36 C156.19,588.2 156.57,588.12 157.17,588.12 L157.17,588.12 L182.55,588.12 C183.47,588.12 184.14,587.83 184.56,587.25 C184.98,586.67 185.19,585.92 185.19,585 C185.19,584.04 184.98,583.27 184.56,582.69 C184.14,582.11 183.47,581.82 182.55,581.82 L182.55,581.82 L153.51,581.82 C152.39,581.82 151.47,581.91 150.75,582.09 C150.03,582.27 149.45,582.57 149.01,582.99 C148.57,583.41 148.26,583.97 148.08,584.67 C147.9,585.37 147.81,586.24 147.81,587.28 L147.81,587.28 L147.81,598.08 C147.81,599.24 147.92,600.17 148.14,600.87 C148.36,601.57 148.69,602.12 149.13,602.52 C149.57,602.92 150.15,603.19 150.87,603.33 C151.59,603.47 152.47,603.54 153.51,603.54 L153.51,603.54 L182.85,603.54 Z M189.87,614.46 C190.67,614.46 191.27,614.13 191.67,613.47 C192.07,612.81 192.27,612.08 192.27,611.28 C192.27,610.48 192.07,609.75 191.67,609.09 C191.27,608.43 190.67,608.1 189.87,608.1 L189.87,608.1 L142.47,608.1 C141.67,608.1 141.08,608.43 140.7,609.09 C140.32,609.75 140.13,610.48 140.13,611.28 C140.13,612.08 140.32,612.81 140.7,613.47 C141.08,614.13 141.67,614.46 142.47,614.46 L142.47,614.46 L189.87,614.46 Z M183.57,636.06 C184.49,636.06 185.14,635.74 185.52,635.1 C185.9,634.46 186.09,633.68 186.09,632.76 C186.09,631.84 185.9,631.08 185.52,630.48 C185.14,629.88 184.49,629.58 183.57,629.58 L183.57,629.58 L156.81,629.58 C156.25,629.58 155.89,629.5 155.73,629.34 C155.57,629.18 155.49,628.82 155.49,628.26 L155.49,628.26 L155.49,620.94 C155.49,619.98 155.08,619.26 154.26,618.78 C153.44,618.3 152.51,618.06 151.47,618.06 C150.43,618.06 149.51,618.3 148.71,618.78 C147.91,619.26 147.51,619.98 147.51,620.94 L147.51,620.94 L147.51,630.66 C147.51,632.66 147.95,634.06 148.83,634.86 C149.71,635.66 151.17,636.06 153.21,636.06 L153.21,636.06 L183.57,636.06 Z M70.35,707.7 C71.47,707.7 72.39,707.45 73.11,706.95 C73.83,706.45 74.19,705.66 74.19,704.58 L74.19,704.58 L74.19,677.7 L80.67,677.7 C81.59,677.7 82.24,677.38 82.62,676.74 C83,676.1 83.19,675.32 83.19,674.4 C83.19,673.48 83,672.71 82.62,672.09 C82.24,671.47 81.59,671.16 80.67,671.16 L80.67,671.16 L74.19,671.16 L74.19,654.78 C74.19,653.86 73.83,653.15 73.11,652.65 C72.39,652.15 71.47,651.9 70.35,651.9 C69.31,651.9 68.43,652.15 67.71,652.65 C66.99,653.15 66.63,653.86 66.63,654.78 L66.63,654.78 L66.63,704.58 C66.63,705.66 66.98,706.45 67.68,706.95 C68.38,707.45 69.27,707.7 70.35,707.7 Z M34.23,694.74 C34.79,694.74 35.43,694.58 36.15,694.26 C43.59,691.14 49.24,686.91 53.1,681.57 C56.96,676.23 58.89,669.62 58.89,661.74 C58.89,660.66 58.8,659.78 58.62,659.1 C58.44,658.42 58.14,657.88 57.72,657.48 C57.3,657.08 56.75,656.81 56.07,656.67 C55.39,656.53 54.57,656.46 53.61,656.46 L53.61,656.46 L34.35,656.46 C33.55,656.46 32.91,656.77 32.43,657.39 C31.95,658.01 31.71,658.78 31.71,659.7 C31.71,660.7 31.95,661.5 32.43,662.1 C32.91,662.7 33.55,663 34.35,663 L34.35,663 L49.29,663 C49.93,663 50.35,663.1 50.55,663.3 C50.75,663.5 50.85,663.88 50.85,664.44 C50.85,667.28 50.41,669.88 49.53,672.24 C48.65,674.6 47.4,676.74 45.78,678.66 C44.16,680.58 42.21,682.31 39.93,683.85 C37.65,685.39 35.11,686.76 32.31,687.96 C31.87,688.16 31.5,688.52 31.2,689.04 C30.9,689.56 30.75,690.14 30.75,690.78 C30.75,691.98 31.13,692.94 31.89,693.66 C32.65,694.38 33.43,694.74 34.23,694.74 Z M128.97,682.38 C130.09,682.38 131,682.12 131.7,681.6 C132.4,681.08 132.75,680.28 132.75,679.2 L132.75,679.2 L132.75,654.72 C132.75,653.8 132.38,653.1 131.64,652.62 C130.9,652.14 130.01,651.9 128.97,651.9 C127.93,651.9 127.04,652.14 126.3,652.62 C125.56,653.1 125.19,653.8 125.19,654.72 L125.19,654.72 L125.19,659.16 L115.23,659.16 L115.23,656.64 C115.23,655.76 114.85,655.11 114.09,654.69 C113.33,654.27 112.41,654.06 111.33,654.06 C110.37,654.06 109.51,654.27 108.75,654.69 C107.99,655.11 107.61,655.76 107.61,656.64 L107.61,656.64 L107.61,662.1 L95.25,662.1 L95.25,656.64 C95.25,655.76 94.87,655.11 94.11,654.69 C93.35,654.27 92.43,654.06 91.35,654.06 C90.35,654.06 89.48,654.27 88.74,654.69 C88,655.11 87.63,655.76 87.63,656.64 L87.63,656.64 L87.63,675.24 C87.63,676.36 87.71,677.28 87.87,678 C88.03,678.72 88.33,679.29 88.77,679.71 C89.21,680.13 89.85,680.43 90.69,680.61 C91.53,680.79 92.61,680.88 93.93,680.88 L93.93,680.88 L108.87,680.88 C109.95,680.88 110.88,680.83 111.66,680.73 C112.44,680.63 113.08,680.41 113.58,680.07 C114.08,679.73 114.46,679.24 114.72,678.6 C114.98,677.96 115.15,677.12 115.23,676.08 L115.23,676.08 L125.19,676.08 L125.19,679.2 C125.19,680.24 125.54,681.03 126.24,681.57 C126.94,682.11 127.85,682.38 128.97,682.38 Z M125.19,669.84 L115.23,669.84 L115.23,665.4 L125.19,665.4 L125.19,669.84 Z M106.11,674.76 L96.63,674.76 C96.07,674.76 95.7,674.7 95.52,674.58 C95.34,674.46 95.25,674.06 95.25,673.38 L95.25,673.38 L95.25,668.1 L107.61,668.1 L107.61,673.26 C107.61,673.94 107.53,674.36 107.37,674.52 C107.21,674.68 106.79,674.76 106.11,674.76 L106.11,674.76 Z M126.21,708.78 C127.49,708.78 128.55,708.7 129.39,708.54 C130.23,708.38 130.9,708.08 131.4,707.64 C131.9,707.2 132.25,706.59 132.45,705.81 C132.65,705.03 132.75,704.04 132.75,702.84 L132.75,702.84 L132.75,687.24 C132.75,686.32 132.38,685.63 131.64,685.17 C130.9,684.71 130.01,684.48 128.97,684.48 C127.97,684.48 127.09,684.71 126.33,685.17 C125.57,685.63 125.19,686.32 125.19,687.24 L125.19,687.24 L125.19,691.56 L103.59,691.56 L103.59,687.24 C103.59,686.32 103.22,685.63 102.48,685.17 C101.74,684.71 100.85,684.48 99.81,684.48 C98.81,684.48 97.93,684.71 97.17,685.17 C96.41,685.63 96.03,686.32 96.03,687.24 L96.03,687.24 L96.03,702.84 C96.03,704 96.12,704.96 96.3,705.72 C96.48,706.48 96.81,707.08 97.29,707.52 C97.77,707.96 98.43,708.28 99.27,708.48 C100.11,708.68 101.21,708.78 102.57,708.78 L102.57,708.78 L126.21,708.78 Z M123.87,702.84 L104.91,702.84 C104.31,702.84 103.94,702.78 103.8,702.66 C103.66,702.54 103.59,702.14 103.59,701.46 L103.59,701.46 L103.59,697.38 L125.19,697.38 L125.19,701.46 C125.19,702.14 125.12,702.54 124.98,702.66 C124.84,702.78 124.47,702.84 123.87,702.84 L123.87,702.84 Z M185.85,707.7 C186.97,707.7 187.87,707.46 188.55,706.98 C189.23,706.5 189.57,705.74 189.57,704.7 L189.57,704.7 L189.57,654.6 C189.57,653.76 189.22,653.1 188.52,652.62 C187.82,652.14 186.93,651.9 185.85,651.9 C184.81,651.9 183.94,652.14 183.24,652.62 C182.54,653.1 182.19,653.76 182.19,654.6 L182.19,654.6 L182.19,704.7 C182.19,705.74 182.54,706.5 183.24,706.98 C183.94,707.46 184.81,707.7 185.85,707.7 Z M173.91,706.5 C174.95,706.5 175.81,706.27 176.49,705.81 C177.17,705.35 177.51,704.6 177.51,703.56 L177.51,703.56 L177.51,655.68 C177.51,654.8 177.17,654.13 176.49,653.67 C175.81,653.21 174.95,652.98 173.91,652.98 C172.87,652.98 172.01,653.21 171.33,653.67 C170.65,654.13 170.31,654.8 170.31,655.68 L170.31,655.68 L170.31,670.68 L163.77,670.68 C164.29,668.12 164.55,665.3 164.55,662.22 C164.55,660.14 164.17,658.74 163.41,658.02 C162.65,657.3 161.37,656.94 159.57,656.94 L159.57,656.94 L144.33,656.94 C143.49,656.94 142.85,657.25 142.41,657.87 C141.97,658.49 141.75,659.26 141.75,660.18 C141.75,661.1 141.97,661.86 142.41,662.46 C142.85,663.06 143.49,663.36 144.33,663.36 L144.33,663.36 L155.49,663.36 C156.09,663.36 156.5,663.43 156.72,663.57 C156.94,663.71 157.05,664.04 157.05,664.56 C157.05,669.88 155.79,674.47 153.27,678.33 C150.75,682.19 147.07,685.48 142.23,688.2 C141.79,688.44 141.45,688.78 141.21,689.22 C140.97,689.66 140.85,690.16 140.85,690.72 C140.85,691.28 140.96,691.79 141.18,692.25 C141.4,692.71 141.68,693.11 142.02,693.45 C142.36,693.79 142.74,694.06 143.16,694.26 C143.58,694.46 143.99,694.56 144.39,694.56 C145.15,694.56 145.87,694.36 146.55,693.96 C150.39,691.8 153.57,689.33 156.09,686.55 C158.61,683.77 160.57,680.64 161.97,677.16 L161.97,677.16 L170.31,677.16 L170.31,703.56 C170.31,704.6 170.65,705.35 171.33,705.81 C172.01,706.27 172.87,706.5 173.91,706.5 Z M45.66,779.76 C46.74,779.76 47.64,779.5 48.36,778.98 C49.08,778.46 49.44,777.66 49.44,776.58 L49.44,776.58 L49.44,726.72 C49.44,725.8 49.08,725.09 48.36,724.59 C47.64,724.09 46.74,723.84 45.66,723.84 C44.58,723.84 43.68,724.09 42.96,724.59 C42.24,725.09 41.88,725.8 41.88,726.72 L41.88,726.72 L41.88,776.58 C41.88,777.66 42.23,778.46 42.93,778.98 C43.63,779.5 44.54,779.76 45.66,779.76 Z M6.33,765.81 C7.15,765.99 8.12,765.78 9.24,765.18 C10.4,764.54 11.53,763.77 12.63,762.87 C13.73,761.97 14.76,760.96 15.72,759.84 C16.68,758.72 17.53,757.53 18.27,756.27 C19.01,755.01 19.62,753.68 20.1,752.28 C20.62,753.68 21.29,755 22.11,756.24 C22.93,757.48 23.83,758.62 24.81,759.66 C25.79,760.7 26.83,761.63 27.93,762.45 C29.03,763.27 30.12,763.94 31.2,764.46 C32.36,765.02 33.33,765.2 34.11,765 C34.89,764.8 35.6,764.22 36.24,763.26 C36.8,762.42 37.01,761.52 36.87,760.56 C36.73,759.6 36.26,758.9 35.46,758.46 C33.66,757.5 32.06,756.43 30.66,755.25 C29.26,754.07 28.06,752.7 27.06,751.14 C26.06,749.58 25.3,747.78 24.78,745.74 C24.26,743.7 24,741.34 24,738.66 L24,738.66 L24,735.3 L33.36,735.3 C34.28,735.3 34.94,734.96 35.34,734.28 C35.74,733.6 35.94,732.84 35.94,732 C35.94,731.16 35.73,730.4 35.31,729.72 C34.89,729.04 34.24,728.7 33.36,728.7 L33.36,728.7 L6.6,728.7 C5.72,728.7 5.07,729.04 4.65,729.72 C4.23,730.4 4.02,731.16 4.02,732 C4.02,732.84 4.22,733.6 4.62,734.28 C5.02,734.96 5.68,735.3 6.6,735.3 L6.6,735.3 L16.02,735.3 L16.02,738.54 C16.02,741.26 15.77,743.67 15.27,745.77 C14.77,747.87 14.04,749.74 13.08,751.38 C12.12,753.02 10.96,754.48 9.6,755.76 C8.24,757.04 6.7,758.24 4.98,759.36 C4.06,759.96 3.54,760.72 3.42,761.64 C3.3,762.56 3.54,763.44 4.14,764.28 C4.78,765.12 5.51,765.63 6.33,765.81 Z M83.28,780.72 C84.32,780.72 85.24,780.47 86.04,779.97 C86.84,779.47 87.24,778.68 87.24,777.6 L87.24,777.6 L87.24,757.8 L106.86,757.8 C107.7,757.8 108.33,757.48 108.75,756.84 C109.17,756.2 109.38,755.42 109.38,754.5 C109.38,753.58 109.17,752.8 108.75,752.16 C108.33,751.52 107.7,751.2 106.86,751.2 L106.86,751.2 L99.24,751.2 C99.72,750.24 100.14,749.15 100.5,747.93 C100.86,746.71 101.18,745.43 101.46,744.09 C101.74,742.75 101.95,741.38 102.09,739.98 C102.23,738.58 102.3,737.22 102.3,735.9 L102.3,735.9 L102.3,731.22 C102.3,729.26 101.91,727.91 101.13,727.17 C100.35,726.43 98.96,726.06 96.96,726.06 L96.96,726.06 L66.42,726.06 C65.5,726.06 64.8,726.36 64.32,726.96 C63.84,727.56 63.6,728.36 63.6,729.36 C63.6,730.28 63.84,731.05 64.32,731.67 C64.8,732.29 65.5,732.6 66.42,732.6 L66.42,732.6 L92.94,732.6 C93.54,732.6 93.92,732.7 94.08,732.9 C94.24,733.1 94.32,733.5 94.32,734.1 L94.32,734.1 L94.32,737.52 C94.32,740.12 94.08,742.61 93.6,744.99 C93.12,747.37 92.52,749.44 91.8,751.2 L91.8,751.2 L59.64,751.2 C58.84,751.2 58.23,751.52 57.81,752.16 C57.39,752.8 57.18,753.58 57.18,754.5 C57.18,755.42 57.39,756.2 57.81,756.84 C58.23,757.48 58.84,757.8 59.64,757.8 L59.64,757.8 L79.32,757.8 L79.32,777.6 C79.32,778.68 79.7,779.47 80.46,779.97 C81.22,780.47 82.16,780.72 83.28,780.72 Z M153.42,764.28 C154.54,764.28 155.45,764.03 156.15,763.53 C156.85,763.03 157.2,762.24 157.2,761.16 L157.2,761.16 L157.2,745.8 L163.56,745.8 C164.48,745.8 165.14,745.5 165.54,744.9 C165.94,744.3 166.14,743.52 166.14,742.56 C166.14,741.64 165.94,740.88 165.54,740.28 C165.14,739.68 164.48,739.38 163.56,739.38 L163.56,739.38 L157.2,739.38 L157.2,726.72 C157.2,725.8 156.83,725.09 156.09,724.59 C155.35,724.09 154.46,723.84 153.42,723.84 C152.38,723.84 151.49,724.09 150.75,724.59 C150.01,725.09 149.64,725.8 149.64,726.72 L149.64,726.72 L149.64,761.16 C149.64,762.24 149.99,763.03 150.69,763.53 C151.39,764.03 152.3,764.28 153.42,764.28 Z M114.39,756.9 C115.13,757.3 116.06,757.28 117.18,756.84 C118.42,756.36 119.65,755.73 120.87,754.95 C122.09,754.17 123.23,753.28 124.29,752.28 C125.35,751.28 126.28,750.19 127.08,749.01 C127.88,747.83 128.5,746.6 128.94,745.32 C129.42,746.52 130.07,747.67 130.89,748.77 C131.71,749.87 132.61,750.87 133.59,751.77 C134.57,752.67 135.62,753.47 136.74,754.17 C137.86,754.87 139,755.44 140.16,755.88 C141.32,756.36 142.32,756.38 143.16,755.94 C144,755.5 144.62,754.88 145.02,754.08 C145.38,753.24 145.47,752.38 145.29,751.5 C145.11,750.62 144.56,749.98 143.64,749.58 C142.2,749.02 140.83,748.29 139.53,747.39 C138.23,746.49 137.07,745.39 136.05,744.09 C135.03,742.79 134.22,741.24 133.62,739.44 C133.02,737.64 132.72,735.56 132.72,733.2 L132.72,733.2 L132.72,728.64 C132.72,727.72 132.33,727.03 131.55,726.57 C130.77,726.11 129.84,725.88 128.76,725.88 C127.72,725.88 126.81,726.11 126.03,726.57 C125.25,727.03 124.86,727.72 124.86,728.64 L124.86,728.64 L124.86,733.56 C124.86,735.88 124.58,737.93 124.02,739.71 C123.46,741.49 122.69,743.07 121.71,744.45 C120.73,745.83 119.57,747.02 118.23,748.02 C116.89,749.02 115.44,749.9 113.88,750.66 C112.84,751.14 112.28,751.81 112.2,752.67 C112.12,753.53 112.28,754.36 112.68,755.16 C113.08,755.92 113.65,756.5 114.39,756.9 Z M156.78,780.06 C157.7,780.06 158.36,779.75 158.76,779.13 C159.16,778.51 159.36,777.74 159.36,776.82 C159.36,775.9 159.16,775.14 158.76,774.54 C158.36,773.94 157.7,773.64 156.78,773.64 L156.78,773.64 L130.38,773.64 C129.78,773.64 129.4,773.56 129.24,773.4 C129.08,773.24 129,772.88 129,772.32 L129,772.32 L129,762.54 C129,761.62 128.6,760.91 127.8,760.41 C127,759.91 126.08,759.66 125.04,759.66 C124,759.66 123.07,759.91 122.25,760.41 C121.43,760.91 121.02,761.62 121.02,762.54 L121.02,762.54 L121.02,774.84 C121.02,775.96 121.14,776.86 121.38,777.54 C121.62,778.22 121.98,778.75 122.46,779.13 C122.94,779.51 123.55,779.76 124.29,779.88 C125.03,780 125.9,780.06 126.9,780.06 L126.9,780.06 L156.78,780.06 Z M213.42,758.76 C214.54,758.76 215.45,758.53 216.15,758.07 C216.85,757.61 217.2,756.86 217.2,755.82 L217.2,755.82 L217.2,726.6 C217.2,725.76 216.84,725.1 216.12,724.62 C215.4,724.14 214.5,723.9 213.42,723.9 C212.38,723.9 211.52,724.14 210.84,724.62 C210.16,725.1 209.82,725.76 209.82,726.6 L209.82,726.6 L209.82,738.6 L204.54,738.6 L204.54,727.68 C204.54,726.8 204.19,726.13 203.49,725.67 C202.79,725.21 201.92,724.98 200.88,724.98 C199.84,724.98 198.96,725.21 198.24,725.67 C197.52,726.13 197.16,726.8 197.16,727.68 L197.16,727.68 L197.16,755.22 C197.16,756.26 197.49,757.02 198.15,757.5 C198.81,757.98 199.72,758.22 200.88,758.22 C201.96,758.22 202.84,757.98 203.52,757.5 C204.2,757.02 204.54,756.26 204.54,755.22 L204.54,755.22 L204.54,745.26 L209.82,745.26 L209.82,755.82 C209.82,756.86 210.16,757.61 210.84,758.07 C211.52,758.53 212.38,758.76 213.42,758.76 Z M186.36,732.12 C187.2,732.12 187.84,731.82 188.28,731.22 C188.72,730.62 188.94,729.88 188.94,729 C188.94,728.16 188.72,727.43 188.28,726.81 C187.84,726.19 187.2,725.88 186.36,725.88 L186.36,725.88 L176.46,725.88 C175.66,725.88 175.05,726.18 174.63,726.78 C174.21,727.38 174,728.12 174,729 C174,729.8 174.18,730.52 174.54,731.16 C174.9,731.8 175.54,732.12 176.46,732.12 L176.46,732.12 L186.36,732.12 Z M168.96,756.9 C170,758.54 171.46,759 173.34,758.28 C175.26,757.52 177.01,756.37 178.59,754.83 C180.17,753.29 181.3,751.68 181.98,750 C182.66,751.6 183.76,753.07 185.28,754.41 C186.8,755.75 188.46,756.76 190.26,757.44 C191.06,757.76 191.86,757.78 192.66,757.5 C193.46,757.22 194.08,756.7 194.52,755.94 C194.96,755.14 195.12,754.31 195,753.45 C194.88,752.59 194.36,751.96 193.44,751.56 C192.4,751.12 191.4,750.61 190.44,750.03 C189.48,749.45 188.62,748.76 187.86,747.96 C187.1,747.16 186.48,746.23 186,745.17 C185.52,744.11 185.26,742.86 185.22,741.42 L185.22,741.42 L192.12,741.42 C193.04,741.42 193.7,741.11 194.1,740.49 C194.5,739.87 194.7,739.14 194.7,738.3 C194.7,737.46 194.48,736.74 194.04,736.14 C193.6,735.54 192.96,735.24 192.12,735.24 L192.12,735.24 L170.82,735.24 C169.98,735.24 169.35,735.53 168.93,736.11 C168.51,736.69 168.3,737.42 168.3,738.3 C168.3,739.14 168.5,739.87 168.9,740.49 C169.3,741.11 169.94,741.42 170.82,741.42 L170.82,741.42 L177.78,741.42 C177.7,744.38 176.92,746.72 175.44,748.44 C173.96,750.16 172.06,751.56 169.74,752.64 C168.94,753 168.49,753.61 168.39,754.47 C168.29,755.33 168.48,756.14 168.96,756.9 Z M213.3,781.68 C214.34,781.68 215.25,781.45 216.03,780.99 C216.81,780.53 217.2,779.84 217.2,778.92 L217.2,778.92 L217.2,766.14 C217.2,765.06 217.08,764.18 216.84,763.5 C216.6,762.82 216.23,762.29 215.73,761.91 C215.23,761.53 214.58,761.27 213.78,761.13 C212.98,760.99 212.02,760.92 210.9,760.92 L210.9,760.92 L180.06,760.92 C179.14,760.92 178.46,761.24 178.02,761.88 C177.58,762.52 177.36,763.3 177.36,764.22 C177.36,765.14 177.58,765.92 178.02,766.56 C178.46,767.2 179.14,767.52 180.06,767.52 L180.06,767.52 L208.08,767.52 C208.64,767.52 208.99,767.58 209.13,767.7 C209.27,767.82 209.34,768.16 209.34,768.72 L209.34,768.72 L209.34,778.92 C209.34,779.84 209.74,780.53 210.54,780.99 C211.34,781.45 212.26,781.68 213.3,781.68 Z" id="언제든가볍게지구산책"></path>
            </g>
        </g>
    </g>
</svg>