<?xml version="1.0" encoding="UTF-8"?>
<svg width="152px" height="143px" viewBox="0 0 152 143" version="1.1" xmlns="http://www.w3.org/2000/svg" xmlns:xlink="http://www.w3.org/1999/xlink">
    <!-- Generator: Sketch 63.1 (92452) - https://sketch.com -->
    <title>언제든가볍게지구산책</title>
    <desc>Created with Sketch.</desc>
    <g id="Page-1" stroke="none" stroke-width="1" fill="none" fill-rule="evenodd">
        <g id="PC_서비스소개" transform="translate(-1450.000000, -282.000000)" fill="#FFFFFF" fill-rule="nonzero">
            <path d="M1500.3035,311 C1501.10246,311 1501.75162,310.815738 1502.25097,310.447214 C1502.75032,310.07869 1503,309.51173 1503,308.746334 L1503,308.746334 L1503,283.998534 C1503,283.34653 1502.73606,282.85044 1502.20817,282.510264 C1501.68029,282.170088 1501.0454,282 1500.3035,282 C1499.56161,282 1498.92672,282.170088 1498.39883,282.510264 C1497.87095,282.85044 1497.607,283.34653 1497.607,283.998534 L1497.607,283.998534 L1497.607,291.992669 L1491.22957,291.992669 C1490.97276,290.887097 1490.54475,289.880743 1489.94553,288.973607 C1489.3463,288.066471 1488.59728,287.286901 1487.69844,286.634897 C1486.79961,285.982893 1485.76524,285.479717 1484.59533,285.125367 C1483.42542,284.771017 1482.14137,284.593842 1480.74319,284.593842 C1479.11673,284.593842 1477.64008,284.8348 1476.31323,285.316716 C1474.98638,285.798631 1473.85927,286.471896 1472.93191,287.33651 C1472.00454,288.201124 1471.28405,289.228739 1470.77043,290.419355 C1470.25681,291.609971 1470,292.913978 1470,294.331378 C1470,295.748778 1470.25681,297.052786 1470.77043,298.243402 C1471.28405,299.434018 1472.00454,300.454545 1472.93191,301.304985 C1473.85927,302.155425 1474.98638,302.821603 1476.31323,303.303519 C1477.64008,303.785435 1479.11673,304.026393 1480.74319,304.026393 C1483.56809,304.026393 1485.90078,303.346041 1487.74125,301.985337 C1489.58171,300.624633 1490.74449,298.824536 1491.22957,296.585044 L1491.22957,296.585044 L1497.607,296.585044 L1497.607,308.746334 C1497.607,309.51173 1497.86381,310.07869 1498.37743,310.447214 C1498.89105,310.815738 1499.53307,311 1500.3035,311 Z M1480.5,300 C1478.78125,300 1477.4349,299.490741 1476.46094,298.472222 C1475.48698,297.453704 1475,296.12963 1475,294.5 C1475,292.87037 1475.48698,291.546296 1476.46094,290.527778 C1477.4349,289.509259 1478.78125,289 1480.5,289 C1482.2474,289 1483.60091,289.509259 1484.56055,290.527778 C1485.52018,291.546296 1486,292.87037 1486,294.5 C1486,296.12963 1485.52018,297.453704 1484.56055,298.472222 C1483.60091,299.490741 1482.2474,300 1480.5,300 Z M1502.15241,322 C1502.79627,322 1503.26516,321.785996 1503.5591,321.357988 C1503.85303,320.92998 1504,320.384615 1504,319.721893 C1504,319.114398 1503.85303,318.596647 1503.5591,318.168639 C1503.26516,317.740631 1502.79627,317.526627 1502.15241,317.526627 L1502.15241,317.526627 L1483.50855,317.526627 C1483.11664,317.526627 1482.8647,317.4714 1482.75272,317.360947 C1482.64075,317.250493 1482.58476,317.001972 1482.58476,316.615385 L1482.58476,316.615385 L1482.58476,309.988166 C1482.58476,309.353057 1482.31182,308.862919 1481.76594,308.517751 C1481.22006,308.172584 1480.55521,308 1479.77138,308 C1479.04355,308 1478.39969,308.172584 1477.83981,308.517751 C1477.27994,308.862919 1477,309.353057 1477,309.988166 L1477,309.988166 L1477,318.272189 C1477,319.045365 1477.07698,319.67357 1477.23095,320.156805 C1477.38491,320.640039 1477.61586,321.019724 1477.92379,321.295858 C1478.23173,321.571992 1478.63764,321.758383 1479.14152,321.85503 C1479.64541,321.951677 1480.26128,322 1480.98911,322 L1480.98911,322 L1502.15241,322 Z M1540.47967,322 C1541.23848,322 1541.84824,321.827957 1542.30894,321.483871 C1542.76965,321.139785 1543,320.594982 1543,319.849462 L1543,319.849462 L1543,283.935484 C1543,283.333333 1542.76287,282.860215 1542.28862,282.516129 C1541.81436,282.172043 1541.21138,282 1540.47967,282 C1539.77507,282 1539.18564,282.172043 1538.71138,282.516129 C1538.23713,282.860215 1538,283.333333 1538,283.935484 L1538,283.935484 L1538,319.849462 C1538,320.594982 1538.23713,321.139785 1538.71138,321.483871 C1539.18564,321.827957 1539.77507,322 1540.47967,322 Z M1532.49049,321 C1533.21546,321 1533.81496,320.836697 1534.28897,320.51009 C1534.76299,320.183483 1535,319.650972 1535,318.912556 L1535,318.912556 L1535,284.91704 C1535,284.292227 1534.75602,283.816517 1534.26806,283.48991 C1533.7801,283.163303 1533.18758,283 1532.49049,283 C1531.76553,283 1531.15906,283.163303 1530.6711,283.48991 C1530.18314,283.816517 1529.93916,284.292227 1529.93916,284.91704 L1529.93916,284.91704 L1529.93916,295.567265 L1525.88213,295.567265 C1525.24081,295.567265 1524.76679,295.787369 1524.46008,296.227578 C1524.15336,296.667788 1524,297.2571 1524,297.995516 C1524,298.705531 1524.15336,299.280643 1524.46008,299.720852 C1524.76679,300.161061 1525.24081,300.381166 1525.88213,300.381166 L1525.88213,300.381166 L1529.93916,300.381166 L1529.93916,318.912556 C1529.93916,319.650972 1530.18314,320.183483 1530.6711,320.51009 C1531.15906,320.836697 1531.76553,321 1532.49049,321 Z M1510.01086,312.915976 C1510.62286,313.10126 1511.264,312.980113 1511.93429,312.552536 C1512.63372,312.124959 1513.29672,311.597614 1513.92329,310.9705 C1514.54986,310.343387 1515.12543,309.659264 1515.65,308.918131 C1516.17458,308.176997 1516.63358,307.393106 1517.027,306.566457 C1517.42043,305.739808 1517.73372,304.913159 1517.96686,304.08651 C1518.22915,304.941664 1518.57158,305.768313 1518.99415,306.566457 C1519.41672,307.364601 1519.89758,308.11286 1520.43672,308.811236 C1520.97586,309.509612 1521.55872,310.143852 1522.18529,310.713954 C1522.81186,311.284057 1523.43115,311.768644 1524.04315,312.167716 C1524.56772,312.509778 1525.14329,312.645177 1525.76987,312.573914 C1526.39644,312.502652 1526.92829,312.196221 1527.36544,311.654624 C1527.80258,311.113026 1528.01387,310.500166 1527.99929,309.816042 C1527.98472,309.131919 1527.70058,308.576069 1527.14687,308.148492 C1526.21429,307.464369 1525.35458,306.687604 1524.56772,305.818197 C1523.78086,304.94879 1523.10329,303.929732 1522.53501,302.761021 C1521.96672,301.59231 1521.52229,300.238316 1521.20172,298.699039 C1520.88115,297.159761 1520.72086,295.406695 1520.72086,293.439841 L1520.72086,293.439841 L1520.72086,290.617832 L1525.61687,290.617832 C1526.28715,290.617832 1526.76801,290.382665 1527.05944,289.91233 C1527.35087,289.441995 1527.49658,288.893271 1527.49658,288.266158 C1527.49658,287.667551 1527.33629,287.140206 1527.01572,286.684123 C1526.69515,286.228041 1526.22887,286 1525.61687,286 L1525.61687,286 L1510.22943,286 C1509.61743,286 1509.15843,286.220915 1508.85243,286.662744 C1508.54643,287.104574 1508.39343,287.639045 1508.39343,288.266158 C1508.39343,288.893271 1508.53186,289.441995 1508.80871,289.91233 C1509.08557,290.382665 1509.55914,290.617832 1510.22943,290.617832 L1510.22943,290.617832 L1515.25657,290.617832 L1515.25657,293.525356 C1515.25657,295.549221 1515.09629,297.323666 1514.77572,298.848691 C1514.45515,300.373716 1514.01072,301.72771 1513.44243,302.910673 C1512.87415,304.093636 1512.18929,305.1412 1511.38786,306.053364 C1510.58643,306.965529 1509.71943,307.820683 1508.78686,308.618827 C1508.26229,309.103414 1508,309.66639 1508,310.307756 C1508,310.949122 1508.18943,311.512098 1508.56829,311.996685 C1508.918,312.424263 1509.39886,312.730693 1510.01086,312.915976 Z M1578.10828,299 C1578.76752,299 1579.24761,298.799724 1579.54857,298.399171 C1579.84952,297.998619 1580,297.466851 1580,296.803867 C1580,296.168508 1579.84952,295.650552 1579.54857,295.25 C1579.24761,294.849448 1578.76752,294.649171 1578.10828,294.649171 L1578.10828,294.649171 L1559.70701,294.649171 C1559.27707,294.649171 1559.00478,294.587017 1558.89013,294.462707 C1558.77548,294.338398 1558.71815,294.082873 1558.71815,293.696133 L1558.71815,293.696133 L1558.71815,289.345304 C1558.71815,288.903315 1558.77548,288.627072 1558.89013,288.516575 C1559.00478,288.406077 1559.27707,288.350829 1559.70701,288.350829 L1559.70701,288.350829 L1577.89331,288.350829 C1578.55255,288.350829 1579.03264,288.150552 1579.3336,287.75 C1579.63455,287.349448 1579.78503,286.831492 1579.78503,286.196133 C1579.78503,285.533149 1579.63455,285.001381 1579.3336,284.600829 C1579.03264,284.200276 1578.55255,284 1577.89331,284 L1577.89331,284 L1557.08439,284 C1556.28185,284 1555.62261,284.062155 1555.10669,284.186464 C1554.59076,284.310773 1554.17516,284.517956 1553.85987,284.808011 C1553.54459,285.098066 1553.32245,285.484807 1553.19347,285.968232 C1553.06449,286.451657 1553,287.052486 1553,287.770718 L1553,287.770718 L1553,295.229282 C1553,296.030387 1553.07882,296.672652 1553.23646,297.156077 C1553.39411,297.639503 1553.63057,298.019337 1553.94586,298.29558 C1554.26115,298.571823 1554.67675,298.758287 1555.19268,298.854972 C1555.7086,298.951657 1556.33917,299 1557.08439,299 L1557.08439,299 L1578.10828,299 Z M1582.29689,307 C1582.8646,307 1583.29037,306.740566 1583.57422,306.221698 C1583.85807,305.70283 1584,305.128931 1584,304.5 C1584,303.871069 1583.85807,303.29717 1583.57422,302.778302 C1583.29037,302.259434 1582.8646,302 1582.29689,302 L1582.29689,302 L1548.66053,302 C1548.09283,302 1547.67415,302.259434 1547.40449,302.778302 C1547.13483,303.29717 1547,303.871069 1547,304.5 C1547,305.128931 1547.13483,305.70283 1547.40449,306.221698 C1547.67415,306.740566 1548.09283,307 1548.66053,307 L1548.66053,307 L1582.29689,307 Z M1578.23639,322 C1578.88025,322 1579.33515,321.768889 1579.60109,321.306667 C1579.86703,320.844444 1580,320.281111 1580,319.616667 C1580,318.952222 1579.86703,318.403333 1579.60109,317.97 C1579.33515,317.536667 1578.88025,317.32 1578.23639,317.32 L1578.23639,317.32 L1559.50855,317.32 C1559.11664,317.32 1558.8647,317.262222 1558.75272,317.146667 C1558.64075,317.031111 1558.58476,316.771111 1558.58476,316.366667 L1558.58476,316.366667 L1558.58476,311.08 C1558.58476,310.386667 1558.29782,309.866667 1557.72395,309.52 C1557.15008,309.173333 1556.49922,309 1555.77138,309 C1555.04355,309 1554.39969,309.173333 1553.83981,309.52 C1553.27994,309.866667 1553,310.386667 1553,311.08 L1553,311.08 L1553,318.1 C1553,319.544444 1553.30793,320.555556 1553.92379,321.133333 C1554.53966,321.711111 1555.56143,322 1556.98911,322 L1556.98911,322 L1578.23639,322 Z M1497.69565,373 C1498.50725,373 1499.17391,372.820789 1499.69565,372.462366 C1500.21739,372.103943 1500.47826,371.537634 1500.47826,370.763441 L1500.47826,370.763441 L1500.47826,351.494624 L1505.17391,351.494624 C1505.84058,351.494624 1506.31159,351.265233 1506.58696,350.806452 C1506.86232,350.34767 1507,349.78853 1507,349.129032 C1507,348.469534 1506.86232,347.917563 1506.58696,347.473118 C1506.31159,347.028674 1505.84058,346.806452 1505.17391,346.806452 L1505.17391,346.806452 L1500.47826,346.806452 L1500.47826,335.064516 C1500.47826,334.405018 1500.21739,333.896057 1499.69565,333.537634 C1499.17391,333.179211 1498.50725,333 1497.69565,333 C1496.94203,333 1496.30435,333.179211 1495.78261,333.537634 C1495.26087,333.896057 1495,334.405018 1495,335.064516 L1495,335.064516 L1495,370.763441 C1495,371.537634 1495.25362,372.103943 1495.76087,372.462366 C1496.26812,372.820789 1496.91304,373 1497.69565,373 Z M1471.47335,363 C1471.87136,363 1472.32623,362.887147 1472.83795,362.661442 C1478.1258,360.460815 1482.14144,357.477273 1484.88486,353.710815 C1487.62829,349.944357 1489,345.282132 1489,339.724138 C1489,338.962382 1488.93603,338.341693 1488.8081,337.862069 C1488.68017,337.382445 1488.46695,337.001567 1488.16844,336.719436 C1487.86994,336.437304 1487.47903,336.246865 1486.99574,336.148119 C1486.51244,336.049373 1485.92964,336 1485.24733,336 L1485.24733,336 L1471.55864,336 C1470.99005,336 1470.53518,336.218652 1470.19403,336.655956 C1469.85288,337.09326 1469.6823,337.636364 1469.6823,338.285266 C1469.6823,338.990596 1469.85288,339.554859 1470.19403,339.978056 C1470.53518,340.401254 1470.99005,340.612853 1471.55864,340.612853 L1471.55864,340.612853 L1482.17697,340.612853 C1482.63184,340.612853 1482.93035,340.683386 1483.07249,340.824451 C1483.21464,340.965517 1483.28571,341.233542 1483.28571,341.628527 C1483.28571,343.631661 1482.97299,345.465517 1482.34755,347.130094 C1481.7221,348.794671 1480.83369,350.304075 1479.6823,351.658307 C1478.53092,353.012539 1477.14499,354.232759 1475.52452,355.318966 C1473.90405,356.405172 1472.09879,357.371473 1470.10874,358.217868 C1469.79602,358.358934 1469.53305,358.612853 1469.31983,358.979624 C1469.10661,359.346395 1469,359.755486 1469,360.206897 C1469,361.053292 1469.27008,361.730408 1469.81023,362.238245 C1470.35039,362.746082 1470.90476,363 1471.47335,363 Z M1539.31915,355 C1540.11348,355 1540.75887,354.812336 1541.25532,354.437008 C1541.75177,354.06168 1542,353.484252 1542,352.704724 L1542,352.704724 L1542,335.035433 C1542,334.371391 1541.73759,333.866142 1541.21277,333.519685 C1540.68794,333.173228 1540.05674,333 1539.31915,333 C1538.58156,333 1537.95035,333.173228 1537.42553,333.519685 C1536.90071,333.866142 1536.6383,334.371391 1536.6383,335.035433 L1536.6383,335.035433 L1536.6383,338.240157 L1529.57447,338.240157 L1529.57447,336.42126 C1529.57447,335.786089 1529.30496,335.316929 1528.76596,335.01378 C1528.22695,334.71063 1527.57447,334.559055 1526.80851,334.559055 C1526.12766,334.559055 1525.51773,334.71063 1524.97872,335.01378 C1524.43972,335.316929 1524.17021,335.786089 1524.17021,336.42126 L1524.17021,336.42126 L1524.17021,340.362205 L1515.40426,340.362205 L1515.40426,336.42126 C1515.40426,335.786089 1515.13475,335.316929 1514.59574,335.01378 C1514.05674,334.71063 1513.40426,334.559055 1512.6383,334.559055 C1511.92908,334.559055 1511.31206,334.71063 1510.78723,335.01378 C1510.26241,335.316929 1510,335.786089 1510,336.42126 L1510,336.42126 L1510,349.846457 C1510,350.654856 1510.05674,351.318898 1510.17021,351.838583 C1510.28369,352.358268 1510.49645,352.769685 1510.80851,353.072835 C1511.12057,353.375984 1511.57447,353.59252 1512.17021,353.722441 C1512.76596,353.852362 1513.53191,353.917323 1514.46809,353.917323 L1514.46809,353.917323 L1525.06383,353.917323 C1525.82979,353.917323 1526.48936,353.881234 1527.04255,353.809055 C1527.59574,353.736877 1528.04965,353.578084 1528.40426,353.332677 C1528.75887,353.08727 1529.02837,352.733596 1529.21277,352.271654 C1529.39716,351.809711 1529.51773,351.203412 1529.57447,350.452756 L1529.57447,350.452756 L1536.6383,350.452756 L1536.6383,352.704724 C1536.6383,353.455381 1536.88652,354.025591 1537.38298,354.415354 C1537.87943,354.805118 1538.52482,355 1539.31915,355 Z M1537,346 L1530,346 L1530,343 L1537,343 L1537,346 Z M1522.90777,349 L1516.00485,349 C1515.59709,349 1515.32767,348.954955 1515.1966,348.864865 C1515.06553,348.774775 1515,348.474474 1515,347.963964 L1515,347.963964 L1515,344 L1524,344 L1524,347.873874 C1524,348.384384 1523.94175,348.6997 1523.82524,348.81982 C1523.70874,348.93994 1523.40291,349 1522.90777,349 L1522.90777,349 Z M1537.36928,373 C1538.2756,373 1539.02614,372.944033 1539.62092,372.832099 C1540.21569,372.720165 1540.69009,372.510288 1541.04412,372.202469 C1541.39815,371.89465 1541.64597,371.467901 1541.78758,370.922222 C1541.92919,370.376543 1542,369.683951 1542,368.844444 L1542,368.844444 L1542,357.930864 C1542,357.287243 1541.73802,356.804527 1541.21405,356.482716 C1540.69009,356.160905 1540.05991,356 1539.32353,356 C1538.61547,356 1537.99237,356.160905 1537.45425,356.482716 C1536.91612,356.804527 1536.64706,357.287243 1536.64706,357.930864 L1536.64706,357.930864 L1536.64706,360.953086 L1521.35294,360.953086 L1521.35294,357.930864 C1521.35294,357.287243 1521.09096,356.804527 1520.56699,356.482716 C1520.04303,356.160905 1519.41285,356 1518.67647,356 C1517.96841,356 1517.34532,356.160905 1516.80719,356.482716 C1516.26906,356.804527 1516,357.287243 1516,357.930864 L1516,357.930864 L1516,368.844444 C1516,369.655967 1516.06373,370.327572 1516.19118,370.859259 C1516.31863,371.390947 1516.55229,371.8107 1516.89216,372.118519 C1517.23203,372.426337 1517.69935,372.650206 1518.29412,372.790123 C1518.88889,372.930041 1519.66776,373 1520.63072,373 L1520.63072,373 L1537.36928,373 Z M1535.08333,369 L1521.91667,369 C1521.5,369 1521.24306,368.956044 1521.14583,368.868132 C1521.04861,368.78022 1521,368.487179 1521,367.989011 L1521,367.989011 L1521,365 L1536,365 L1536,367.989011 C1536,368.487179 1535.95139,368.78022 1535.85417,368.868132 C1535.75694,368.956044 1535.5,369 1535.08333,369 L1535.08333,369 Z M1579.47967,373 C1580.23848,373 1580.84824,372.827957 1581.30894,372.483871 C1581.76965,372.139785 1582,371.594982 1582,370.849462 L1582,370.849462 L1582,334.935484 C1582,334.333333 1581.76287,333.860215 1581.28862,333.516129 C1580.81436,333.172043 1580.21138,333 1579.47967,333 C1578.77507,333 1578.18564,333.172043 1577.71138,333.516129 C1577.23713,333.860215 1577,334.333333 1577,334.935484 L1577,334.935484 L1577,370.849462 C1577,371.594982 1577.23713,372.139785 1577.71138,372.483871 C1578.18564,372.827957 1578.77507,373 1579.47967,373 Z M1571.44681,372 C1572.1844,372 1572.79433,371.836697 1573.2766,371.51009 C1573.75887,371.183483 1574,370.650972 1574,369.912556 L1574,369.912556 L1574,335.91704 C1574,335.292227 1573.75887,334.816517 1573.2766,334.48991 C1572.79433,334.163303 1572.1844,334 1571.44681,334 C1570.70922,334 1570.09929,334.163303 1569.61702,334.48991 C1569.13475,334.816517 1568.89362,335.292227 1568.89362,335.91704 L1568.89362,335.91704 L1568.89362,346.567265 L1564.25532,346.567265 C1564.62411,344.749626 1564.80851,342.747384 1564.80851,340.560538 C1564.80851,339.083707 1564.53901,338.089686 1564,337.578475 C1563.46099,337.067265 1562.55319,336.811659 1561.2766,336.811659 L1561.2766,336.811659 L1550.46809,336.811659 C1549.87234,336.811659 1549.41844,337.031764 1549.10638,337.471973 C1548.79433,337.912182 1548.6383,338.458894 1548.6383,339.112108 C1548.6383,339.765321 1548.79433,340.304933 1549.10638,340.730942 C1549.41844,341.156951 1549.87234,341.369955 1550.46809,341.369955 L1550.46809,341.369955 L1558.38298,341.369955 C1558.80851,341.369955 1559.09929,341.419656 1559.25532,341.519058 C1559.41135,341.61846 1559.48936,341.852765 1559.48936,342.221973 C1559.48936,345.999253 1558.59574,349.258221 1556.80851,351.998879 C1555.02128,354.739537 1552.41135,357.075486 1548.97872,359.006726 C1548.66667,359.17713 1548.42553,359.418535 1548.25532,359.730942 C1548.08511,360.043348 1548,360.398356 1548,360.795964 C1548,361.193572 1548.07801,361.55568 1548.23404,361.882287 C1548.39007,362.208894 1548.58865,362.4929 1548.82979,362.734305 C1549.07092,362.97571 1549.34043,363.167414 1549.6383,363.309417 C1549.93617,363.45142 1550.22695,363.522422 1550.51064,363.522422 C1551.04965,363.522422 1551.56028,363.380419 1552.04255,363.096413 C1554.76596,361.56278 1557.02128,359.809043 1558.80851,357.835202 C1560.59574,355.86136 1561.98582,353.639013 1562.97872,351.168161 L1562.97872,351.168161 L1568.89362,351.168161 L1568.89362,369.912556 C1568.89362,370.650972 1569.13475,371.183483 1569.61702,371.51009 C1570.09929,371.836697 1570.70922,372 1571.44681,372 Z M1480.5,424 C1481.21429,424 1481.80952,423.81402 1482.28571,423.44206 C1482.7619,423.0701 1483,422.497854 1483,421.725322 L1483,421.725322 L1483,386.060086 C1483,385.402003 1482.7619,384.894134 1482.28571,384.536481 C1481.80952,384.178827 1481.21429,384 1480.5,384 C1479.78571,384 1479.19048,384.178827 1478.71429,384.536481 C1478.2381,384.894134 1478,385.402003 1478,386.060086 L1478,386.060086 L1478,421.725322 C1478,422.497854 1478.23148,423.0701 1478.69444,423.44206 C1479.15741,423.81402 1479.75926,424 1480.5,424 Z M1452.10489,413.956419 C1452.69196,414.082319 1453.38643,413.935436 1454.18829,413.515769 C1455.01879,413.068123 1455.82781,412.529551 1456.61536,411.90005 C1457.4029,411.270549 1458.14033,410.564109 1458.82764,409.78073 C1459.51495,408.997351 1460.1235,408.165011 1460.6533,407.28371 C1461.1831,406.402409 1461.61983,405.472146 1461.96349,404.492923 C1462.33578,405.472146 1462.81546,406.395414 1463.40254,407.262727 C1463.98962,408.130039 1464.63397,408.927407 1465.3356,409.65483 C1466.03723,410.382253 1466.78181,411.032737 1467.56936,411.606283 C1468.3569,412.179828 1469.13728,412.648456 1469.91051,413.012168 C1470.74101,413.403857 1471.43548,413.529757 1471.99391,413.389868 C1472.55235,413.249979 1473.06068,412.844301 1473.51888,412.172833 C1473.91981,411.585299 1474.07016,410.955798 1473.96993,410.284331 C1473.8697,409.612863 1473.5332,409.123251 1472.96044,408.815495 C1471.67174,408.144028 1470.52622,407.395621 1469.52389,406.570276 C1468.52157,405.74493 1467.66243,404.78669 1466.94648,403.695555 C1466.23054,402.60442 1465.68641,401.345418 1465.31412,399.91855 C1464.94183,398.491681 1464.75568,396.84099 1464.75568,394.966476 L1464.75568,394.966476 L1464.75568,392.61634 L1471.45695,392.61634 C1472.11563,392.61634 1472.58815,392.378528 1472.87453,391.902905 C1473.16091,391.427283 1473.3041,390.895704 1473.3041,390.30817 C1473.3041,389.720636 1473.15375,389.189057 1472.85305,388.713434 C1472.55235,388.237811 1472.08699,388 1471.45695,388 L1471.45695,388 L1452.29819,388 C1451.66816,388 1451.20279,388.237811 1450.90209,388.713434 C1450.6014,389.189057 1450.45105,389.720636 1450.45105,390.30817 C1450.45105,390.895704 1450.59424,391.427283 1450.88062,391.902905 C1451.16699,392.378528 1451.63952,392.61634 1452.29819,392.61634 L1452.29819,392.61634 L1459.04242,392.61634 L1459.04242,394.882543 C1459.04242,396.785034 1458.86343,398.470698 1458.50546,399.939533 C1458.14749,401.408369 1457.62484,402.716331 1456.93753,403.863422 C1456.25022,405.010512 1455.41972,406.031703 1454.44604,406.926993 C1453.47235,407.822283 1452.36979,408.661617 1451.13836,409.444996 C1450.47968,409.864664 1450.10739,410.396242 1450.02148,411.039732 C1449.93556,411.683222 1450.10739,412.298734 1450.53696,412.886268 C1450.99517,413.473802 1451.51781,413.830519 1452.10489,413.956419 Z M1506.5,424 C1507.23716,424 1507.88927,423.821625 1508.45632,423.464874 C1509.02337,423.108123 1509.3069,422.544457 1509.3069,421.773875 L1509.3069,421.773875 L1509.3069,407.646542 L1523.21379,407.646542 C1523.8092,407.646542 1524.25575,407.418222 1524.55345,406.961581 C1524.85115,406.50494 1525,405.948408 1525,405.291987 C1525,404.635565 1524.85115,404.079034 1524.55345,403.622393 C1524.25575,403.165752 1523.8092,402.937431 1523.21379,402.937431 L1523.21379,402.937431 L1517.81264,402.937431 C1518.15287,402.25247 1518.45057,401.474753 1518.70575,400.604281 C1518.96092,399.733809 1519.18774,398.820527 1519.38621,397.864435 C1519.58467,396.908342 1519.73352,395.930845 1519.83276,394.931943 C1519.93199,393.933041 1519.98161,392.962678 1519.98161,392.020856 L1519.98161,392.020856 L1519.98161,388.681668 C1519.98161,387.283205 1519.70517,386.319978 1519.1523,385.791987 C1518.59943,385.263996 1517.61418,385 1516.19655,385 L1516.19655,385 L1494.54943,385 C1493.89732,385 1493.40115,385.21405 1493.06092,385.642151 C1492.72069,386.070252 1492.55057,386.641054 1492.55057,387.354555 C1492.55057,388.010977 1492.72069,388.560373 1493.06092,389.002744 C1493.40115,389.445115 1493.89732,389.666301 1494.54943,389.666301 L1494.54943,389.666301 L1513.34713,389.666301 C1513.77241,389.666301 1514.04176,389.737651 1514.15517,389.880351 C1514.26858,390.023052 1514.32529,390.308452 1514.32529,390.736553 L1514.32529,390.736553 L1514.32529,393.176729 C1514.32529,395.031833 1514.15517,396.808452 1513.81494,398.506586 C1513.47471,400.20472 1513.04943,401.681668 1512.53908,402.937431 L1512.53908,402.937431 L1489.74368,402.937431 C1489.17663,402.937431 1488.74425,403.165752 1488.44655,403.622393 C1488.14885,404.079034 1488,404.635565 1488,405.291987 C1488,405.948408 1488.14885,406.50494 1488.44655,406.961581 C1488.74425,407.418222 1489.17663,407.646542 1489.74368,407.646542 L1489.74368,407.646542 L1503.6931,407.646542 L1503.6931,421.773875 C1503.6931,422.544457 1503.96245,423.108123 1504.50115,423.464874 C1505.03985,423.821625 1505.70613,424 1506.5,424 Z M1556.74909,413 C1557.56364,413 1558.22545,412.820722 1558.73455,412.462166 C1559.24364,412.10361 1559.49818,411.537092 1559.49818,410.762611 L1559.49818,410.762611 L1559.49818,399.747774 L1564.12364,399.747774 C1564.79273,399.747774 1565.27273,399.532641 1565.56364,399.102374 C1565.85455,398.672107 1566,398.11276 1566,397.424332 C1566,396.76459 1565.85455,396.219585 1565.56364,395.789318 C1565.27273,395.35905 1564.79273,395.143917 1564.12364,395.143917 L1564.12364,395.143917 L1559.49818,395.143917 L1559.49818,386.065282 C1559.49818,385.405539 1559.22909,384.89639 1558.69091,384.537834 C1558.15273,384.179278 1557.50545,384 1556.74909,384 C1555.99273,384 1555.34545,384.179278 1554.80727,384.537834 C1554.26909,384.89639 1554,385.405539 1554,386.065282 L1554,386.065282 L1554,410.762611 C1554,411.537092 1554.25455,412.10361 1554.76364,412.462166 C1555.27273,412.820722 1555.93455,413 1556.74909,413 Z M1528.59759,407.799215 C1529.13253,408.080314 1529.80482,408.066259 1530.61446,407.75705 C1531.51084,407.419732 1532.4,406.977001 1533.28193,406.428858 C1534.16386,405.880716 1534.98795,405.255271 1535.75422,404.552524 C1536.52048,403.849776 1537.19277,403.083782 1537.77108,402.25454 C1538.3494,401.425299 1538.79759,400.56092 1539.11566,399.661404 C1539.46265,400.5047 1539.93253,401.312859 1540.5253,402.085881 C1541.11807,402.858903 1541.76867,403.56165 1542.47711,404.194122 C1543.18554,404.826595 1543.94458,405.388793 1544.75422,405.880716 C1545.56386,406.372638 1546.38795,406.773204 1547.22651,407.082413 C1548.06506,407.419732 1548.78795,407.433787 1549.39518,407.124578 C1550.00241,406.815369 1550.4506,406.379666 1550.73976,405.817468 C1551,405.227161 1551.06506,404.622798 1550.93494,404.004381 C1550.80482,403.385963 1550.40723,402.936205 1549.74217,402.655106 C1548.7012,402.261568 1547.71084,401.748563 1546.77108,401.11609 C1545.83133,400.483618 1544.99277,399.710596 1544.25542,398.797025 C1543.51807,397.883454 1542.93253,396.794195 1542.4988,395.529251 C1542.06506,394.264306 1541.84819,392.802592 1541.84819,391.144109 L1541.84819,391.144109 L1541.84819,387.939582 C1541.84819,387.293055 1541.56627,386.808159 1541.00241,386.484896 C1540.43855,386.161632 1539.76627,386 1538.98554,386 C1538.23373,386 1537.5759,386.161632 1537.01205,386.484896 C1536.44819,386.808159 1536.16627,387.293055 1536.16627,387.939582 L1536.16627,387.939582 L1536.16627,391.397098 C1536.16627,393.027471 1535.96386,394.468103 1535.55904,395.718992 C1535.15422,396.969882 1534.59759,398.080223 1533.88916,399.050014 C1533.18072,400.019805 1532.34217,400.856074 1531.37349,401.558821 C1530.40482,402.261568 1529.35663,402.879985 1528.22892,403.414073 C1527.47711,403.751392 1527.07229,404.222232 1527.01446,404.826595 C1526.95663,405.430957 1527.07229,406.014237 1527.36145,406.576435 C1527.6506,407.110523 1528.06265,407.518116 1528.59759,407.799215 Z M1559.1831,424 C1559.83099,424 1560.29577,423.787255 1560.57746,423.361765 C1560.85915,422.936275 1561,422.407843 1561,421.776471 C1561,421.145098 1560.85915,420.623529 1560.57746,420.211765 C1560.29577,419.8 1559.83099,419.594118 1559.1831,419.594118 L1559.1831,419.594118 L1540.59155,419.594118 C1540.16901,419.594118 1539.90141,419.539216 1539.78873,419.429412 C1539.67606,419.319608 1539.61972,419.072549 1539.61972,418.688235 L1539.61972,418.688235 L1539.61972,411.976471 C1539.61972,411.345098 1539.33803,410.857843 1538.77465,410.514706 C1538.21127,410.171569 1537.56338,410 1536.83099,410 C1536.09859,410 1535.44366,410.171569 1534.8662,410.514706 C1534.28873,410.857843 1534,411.345098 1534,411.976471 L1534,411.976471 L1534,420.417647 C1534,421.186275 1534.08451,421.803922 1534.25352,422.270588 C1534.42254,422.737255 1534.67606,423.10098 1535.01408,423.361765 C1535.35211,423.622549 1535.78169,423.794118 1536.30282,423.876471 C1536.82394,423.958824 1537.43662,424 1538.14085,424 L1538.14085,424 L1559.1831,424 Z M1599.35928,409 C1600.14172,409 1600.77745,408.835055 1601.26647,408.505164 C1601.75549,408.175273 1602,407.637407 1602,406.891566 L1602,406.891566 L1602,385.936317 C1602,385.333907 1601.7485,384.860585 1601.24551,384.516351 C1600.74251,384.172117 1600.11377,384 1599.35928,384 C1598.63273,384 1598.03194,384.172117 1597.55689,384.516351 C1597.08184,384.860585 1596.84431,385.333907 1596.84431,385.936317 L1596.84431,385.936317 L1596.84431,394.542169 L1593.15569,394.542169 L1593.15569,386.710843 C1593.15569,386.079748 1592.91118,385.599254 1592.42216,385.269363 C1591.93313,384.939472 1591.32535,384.774527 1590.5988,384.774527 C1589.87226,384.774527 1589.25749,384.939472 1588.75449,385.269363 C1588.2515,385.599254 1588,386.079748 1588,386.710843 L1588,386.710843 L1588,406.461274 C1588,407.207114 1588.23054,407.752151 1588.69162,408.096386 C1589.15269,408.44062 1589.78842,408.612737 1590.5988,408.612737 C1591.35329,408.612737 1591.96806,408.44062 1592.44311,408.096386 C1592.91816,407.752151 1593.15569,407.207114 1593.15569,406.461274 L1593.15569,406.461274 L1593.15569,399.318417 L1596.84431,399.318417 L1596.84431,406.891566 C1596.84431,407.637407 1597.08184,408.175273 1597.55689,408.505164 C1598.03194,408.835055 1598.63273,409 1599.35928,409 Z M1580.1004,390 C1580.71888,390 1581.19009,389.807692 1581.51406,389.423077 C1581.83802,389.038462 1582,388.564103 1582,388 C1582,387.461538 1581.83802,386.99359 1581.51406,386.596154 C1581.19009,386.198718 1580.71888,386 1580.1004,386 L1580.1004,386 L1572.81124,386 C1572.22222,386 1571.77309,386.192308 1571.46386,386.576923 C1571.15462,386.961538 1571,387.435897 1571,388 C1571,388.512821 1571.13253,388.974359 1571.39759,389.384615 C1571.66265,389.794872 1572.13387,390 1572.81124,390 L1572.81124,390 L1580.1004,390 Z M1567.46899,407.75644 C1568.20799,408.949449 1569.24545,409.284073 1570.58134,408.760313 C1571.94566,408.207456 1573.18919,407.370895 1574.31191,406.250631 C1575.43463,405.130367 1576.23759,403.959182 1576.72079,402.737076 C1577.20399,403.900986 1577.98563,404.970329 1579.06572,405.945104 C1580.1458,406.91988 1581.32537,407.654598 1582.60442,408.14926 C1583.17289,408.382042 1583.74136,408.396591 1584.30983,408.192907 C1584.87829,407.989223 1585.31885,407.610952 1585.63151,407.058094 C1585.94417,406.476139 1586.05786,405.87236 1585.97259,405.246758 C1585.88732,404.621156 1585.51782,404.162866 1584.86408,403.871889 C1584.12507,403.551813 1583.41449,403.180817 1582.73233,402.758899 C1582.05017,402.336981 1581.43907,401.835045 1580.89902,401.25309 C1580.35898,400.671134 1579.91842,399.994611 1579.57734,399.22352 C1579.23626,398.45243 1579.0515,397.543124 1579.02308,396.495605 L1579.02308,396.495605 L1583.92611,396.495605 C1584.57985,396.495605 1585.04883,396.270097 1585.33307,395.819082 C1585.6173,395.368066 1585.75942,394.837032 1585.75942,394.225979 C1585.75942,393.614926 1585.60309,393.091166 1585.29043,392.6547 C1584.97777,392.218233 1584.523,392 1583.92611,392 L1583.92611,392 L1568.79067,392 C1568.19378,392 1567.74611,392.210959 1567.44767,392.632876 C1567.14922,393.054794 1567,393.585828 1567,394.225979 C1567,394.837032 1567.14212,395.368066 1567.42635,395.819082 C1567.71058,396.270097 1568.16536,396.495605 1568.79067,396.495605 L1568.79067,396.495605 L1573.73634,396.495605 C1573.67949,398.64884 1573.12523,400.351059 1572.07357,401.602263 C1571.02191,402.853467 1569.6718,403.871889 1568.02324,404.657528 C1567.45477,404.919408 1567.13501,405.363149 1567.06395,405.988751 C1566.99289,406.614353 1567.12791,407.203583 1567.46899,407.75644 Z M1599.25904,425 C1599.98996,425 1600.62952,424.833815 1601.17771,424.501445 C1601.7259,424.169075 1602,423.67052 1602,423.00578 L1602,423.00578 L1602,413.771676 C1602,412.991329 1601.91566,412.355491 1601.74699,411.864162 C1601.57831,411.372832 1601.31827,410.989884 1600.96687,410.715318 C1600.61546,410.440751 1600.15863,410.25289 1599.59639,410.151734 C1599.03414,410.050578 1598.35944,410 1597.57229,410 L1597.57229,410 L1575.89759,410 C1575.251,410 1574.77309,410.231214 1574.46386,410.693642 C1574.15462,411.156069 1574,411.719653 1574,412.384393 C1574,413.049133 1574.15462,413.612717 1574.46386,414.075145 C1574.77309,414.537572 1575.251,414.768786 1575.89759,414.768786 L1575.89759,414.768786 L1595.59036,414.768786 C1595.98394,414.768786 1596.22992,414.812139 1596.32831,414.898844 C1596.42671,414.985549 1596.4759,415.231214 1596.4759,415.635838 L1596.4759,415.635838 L1596.4759,423.00578 C1596.4759,423.67052 1596.75703,424.169075 1597.31928,424.501445 C1597.88153,424.833815 1598.52811,425 1599.25904,425 Z" id="언제든가볍게지구산책"></path>
        </g>
    </g>
</svg>