<svg xmlns="http://www.w3.org/2000/svg" width="805" height="251" viewBox="0 0 805 251">
    <g fill="none" fill-rule="evenodd">
        <path fill="#FFF" d="M0 0H1920V3133H0z" transform="translate(-695 -710)"/>
        <g>
            <g>
                <g>
                    <path stroke="#9C9B9B" stroke-width=".27" d="M309.229 37.931L309.229 169.934M325.038 37.931L325.038 169.934M340.863 37.931L340.863 169.934M356.688 37.931L356.688 169.934M372.513 37.931L372.513 169.934M388.322 37.931L388.322 169.934M0 95.481L406.152 95.481M0 111.307L406.152 111.307M0 79.656L406.152 79.656M0 63.831L406.152 63.831M0 127.132L406.152 127.132M0 142.94L406.152 142.94" transform="translate(-695 -710) translate(695 532) translate(160 218) translate(0 .3)"/>
                    <path fill="#1D1D1B" fill-rule="nonzero" d="M316.504 135.649L313.935 131.788 315.078 131.788 317.166 134.937 319.105 131.788 320.215 131.788 317.746 135.649 320.381 139.626 319.205 139.626 317.067 136.312 314.913 139.626 313.819 139.626zM353.075 27.706v-2.85h-4.97v-.96l4.805-6.878h1.657v6.629h1.508v1.21h-1.508v2.932l-1.492-.083zm0-4.076v-3.596-1.657c-.331.63-.596 1.094-.894 1.657l-2.635 3.662 3.53-.066zM358.212 19.686l1.144 1.657c.298.448.547.862.812 1.31.265-.481.53-.895.795-1.326l1.127-1.657h1.657l-2.734 3.877 2.817 4.143h-1.657l-1.177-1.806c-.315-.464-.58-.912-.861-1.392-.265.48-.547.911-.845 1.392l-1.16 1.806h-1.658l2.85-4.093-2.717-3.927 1.607.016z" transform="translate(-695 -710) translate(695 532) translate(160 218) translate(0 .3)"/>
                    <path stroke="#1D1D1B" stroke-width=".68" d="M325.038 40.383L325.038 0M309.229 38.726L309.229 18.526M388.322 40.383L388.322 0M406.152 63.831L446.535 63.831M406.152 127.132L446.535 127.132" transform="translate(-695 -710) translate(695 532) translate(160 218) translate(0 .3)"/>
                    <path stroke="#1D1D1B" stroke-width=".27" d="M317.133 119.095L317.133 116.841" transform="translate(-695 -710) translate(695 532) translate(160 218) translate(0 .3)"/>
                    <path stroke="#1D1D1B" stroke-dasharray="2.62" stroke-width=".27" d="M317.133 112.5L317.133 45.205" transform="translate(-695 -710) translate(695 532) translate(160 218) translate(0 .3)"/>
                    <path stroke="#1D1D1B" stroke-width=".27" d="M317.133 43.035L317.133 40.764" transform="translate(-695 -710) translate(695 532) translate(160 218) translate(0 .3)"/>
                    <path stroke="#1D1D1B" stroke-dasharray="2.74" stroke-width=".27" d="M332.594 134.655L406.152 134.655" transform="translate(-695 -710) translate(695 532) translate(160 218) translate(0 .3)"/>
                    <path fill="#1D1D1B" fill-rule="nonzero" d="M422.176 101.347v-2.933h-4.971v-.96l4.805-6.861h1.574v6.628h1.508v1.144h-1.508v2.933l-1.408.05zm0-4.076v-3.58-1.656c-.331.63-.597 1.093-.895 1.657l-2.635 3.645 3.53-.066zM427.313 93.344L428.456 95c.299.447.547.845.812 1.292.265-.48.53-.878.796-1.325l1.127-1.657h1.574l-2.734 3.86 2.817 4.143h-1.657l-1.177-1.806c-.315-.464-.58-.911-.862-1.392-.265.48-.547.911-.845 1.392l-1.16 1.806h-1.657l2.85-4.093-2.717-3.91 1.69.033z" transform="translate(-695 -710) translate(695 532) translate(160 218) translate(0 .3)"/>
                </g>
                <g fill-rule="nonzero">
                    <path fill="#F63D58" d="M337.51 64.162h-31.634v-31.65c0-17.473 14.16-31.641 31.634-31.65 17.48 0 31.65 14.17 31.65 31.65 0 17.48-14.17 31.65-31.65 31.65z" transform="translate(-695 -710) translate(695 532) translate(160 218) translate(19.228 63.29)"/>
                    <path fill="#222" d="M.177 50.624c0-2.883 2.717-4.275 5.203-4.275 2.284-.19 4.378 1.282 4.971 3.496 2.084-2.254 5.034-3.509 8.103-3.447 8.186 0 14.168 4.972 14.168 16.571 0 11.6-6.628 16.571-14.334 16.571-3.016.068-5.896-1.259-7.804-3.596v12.412c0 2.933-2.602 4.308-5.104 4.308-2.502 0-5.203-1.375-5.203-4.308V50.624zm10.307 10.407v3.314c.43 5.534 3.546 6.43 5.087 6.43 4.772 0 6.529-3.431 6.529-7.872 0-4.706-1.989-7.523-6.363-7.523-2.105-.05-4.823 1.226-5.253 5.65zM38.157 36.77c0-2.866 2.602-4.258 5.153-4.258 2.552 0 5.154 1.392 5.154 4.259v38.61c0 2.933-2.668 4.375-5.154 4.375-1.267.123-2.531-.272-3.503-1.096-.97-.825-1.566-2.008-1.65-3.28V36.77zM83.014 57.203v18.012c.026 1.293-.504 2.535-1.454 3.412-.95.878-2.23 1.306-3.517 1.178-2.817 0-4.971-1.491-4.971-3.993-2.171 2.436-6.38 3.43-9.197 3.43-5.27 0-9.578-2.867-9.578-9.628.033-8.302 7.672-11.07 14.3-11.07 1.445-.007 2.89.064 4.326.216v-.447c0-2.37-1.657-3.43-5.253-3.43-1.665.088-3.3.481-4.822 1.16-1.039.495-2.166.777-3.315.828-2.302-.16-4.063-2.118-3.977-4.424-.132-1.67.768-3.253 2.27-3.994 3.621-1.707 7.6-2.52 11.6-2.37 7.457 0 13.588 3.315 13.588 11.12zm-9.942 9.76v-1.276c-1-.228-2.024-.34-3.05-.332-3.148 0-5.468.928-5.468 3.315.01.748.336 1.457.898 1.95.563.494 1.309.724 2.052.635 3.165 0 5.535-1.922 5.535-4.292h.033zM110.754 49.017c2.27-5.767 12.014-1.94 9.346 3.927l-12.23 26.861c-4.092 9.081-8.749 11.6-14.018 11.6-1.717.04-3.43-.167-5.088-.613-4.59-1.442-2.817-9.81 2.552-8.468.65.163 1.32.235 1.989.215 1.823 0 3.712-1.11 5.203-4.822l.282-.662-11.235-23.697c-3.165-6.628 6.81-10.307 9.627-3.828l6.86 16.753 6.712-17.266zM139.985 50.508c1.16-5.916 10.953-5.866 12.18 0l3.711 17.167 3.547-18.228c1.11-5.7 11.02-4.093 9.346 2.552l-5.535 22.14c-.702 3.397-3.725 5.813-7.194 5.748-3.47-.065-6.4-2.592-6.974-6.014l-3.314-15.229-3.1 15.444c-.604 3.39-3.526 5.876-6.97 5.929-3.443.052-6.44-2.343-7.148-5.713l-5.766-21.857c-1.773-6.81 8.75-8.965 9.942-2.718l3.662 18.444 3.613-17.665zM178.578 32.893c1.497-.035 2.945.533 4.018 1.578 1.072 1.044 1.679 2.476 1.683 3.973-.012 1.483-.626 2.897-1.7 3.92-1.076 1.02-2.519 1.562-4 1.5-1.467.049-2.891-.5-3.945-1.523-1.053-1.022-1.645-2.429-1.64-3.897-.013-1.482.572-2.907 1.623-3.952 1.051-1.045 2.48-1.621 3.961-1.599zm-5.103 17.665c0-2.867 2.717-4.259 5.203-4.259s5.104 1.392 5.104 4.259v24.856c0 2.933-2.668 4.375-5.154 4.375-2.485 0-5.153-1.442-5.153-4.375V50.558zM211.107 60.417c0-2.817-1.326-4.97-4.756-4.97-2.386 0-4.54 1.656-5.319 4.97v14.914c0 2.933-2.602 4.375-5.104 4.375-2.502 0-5.203-1.442-5.203-4.375V50.624c0-2.883 2.718-4.275 5.203-4.275 2.438-.201 4.613 1.524 4.971 3.944 2.208-2.629 5.52-4.07 8.949-3.895 6.43 0 11.516 3.878 11.516 11.965V75.38c0 2.933-2.7 4.375-5.253 4.375-1.246.11-2.483-.296-3.422-1.123-.94-.827-1.5-2.002-1.549-3.252l-.033-14.964zM248.938 74.155c-1.86 2.661-4.94 4.202-8.186 4.093-7.755 0-14.118-4.59-14.118-15.56 0-10.622 7.076-15.942 13.671-15.942 3.218-.175 6.359 1.03 8.633 3.315.496-2.37 2.693-3.99 5.104-3.762 2.536 0 5.203 1.392 5.203 4.259v25.154c0 11.351-6.628 16.571-16.836 16.571-4.042.152-8.025-1.011-11.35-3.314-4.425-3.612 0-10.92 5.203-7.54 1.712 1.087 3.675 1.715 5.7 1.823 5.104 0 6.976-2.32 6.976-7.241v-1.856zm0-10.191v-3.596c-.21-3.014-2.729-5.344-5.75-5.32-3.596 0-6.098 2.768-6.098 7.374 0 4.607 1.89 7.64 6.363 7.64 2.453 0 5.104-1.492 5.485-6.098zM287.482 48.288c4.756 2.767 1.11 9.942-3.877 7.158-1.497-.823-3.166-1.282-4.872-1.342-2.768 0-3.712.828-3.712 2.104 0 1.276 1.276 2.005 3.712 2.602l2.485.663c5.817 1.508 8.8 4.44 8.8 9.313 0 6.43-5.7 11.185-13.721 11.185-3.519.143-7.003-.744-10.025-2.552-4.54-2.983-.614-10.522 4.374-7.755 1.734.973 3.666 1.54 5.65 1.657 2.205 0 3.597-.68 3.597-2.055s-1.06-2.104-3.928-2.767l-2.767-.613c-4.607-.994-8.285-4.16-8.285-9.528 0-5.651 4.64-10.241 12.842-10.241 3.376-.129 6.727.619 9.727 2.17z" transform="translate(-695 -710) translate(695 532) translate(160 218) translate(19.228 63.29)"/>
                </g>
            </g>
        </g>
    </g>
</svg>
